<?xml version="1.0" encoding="utf-8"?>
<!-- Generator: Adobe Illustrator 21.1.0, SVG Export Plug-In . SVG Version: 6.00 Build 0)  -->
<svg version="1.0" id="Capa_1" xmlns="http://www.w3.org/2000/svg" xmlns:xlink="http://www.w3.org/1999/xlink" x="0px" y="0px"
	 viewBox="0 0 151 183" style="enable-background:new 0 0 151 183;" xml:space="preserve">
<style type="text/css">
	.st0{fill:#E7E8E9;}
	.st1{fill:#FFFFFF;}
	.st2{fill:#EB2D3D;}
	.st3{fill:url(#SVGID_1_);}
	.st4{fill:url(#SVGID_2_);}
	.st5{fill:#BFD951;}
</style>
<ellipse class="st0" cx="77.9" cy="112.9" rx="72.9" ry="70"/>
<ellipse class="st1" cx="73.1" cy="104.9" rx="72.9" ry="70"/>
<g>
	<circle class="st2" cx="70.9" cy="109.4" r="58.3"/>
	<linearGradient id="SVGID_1_" gradientUnits="userSpaceOnUse" x1="73.5941" y1="61.7837" x2="73.5941" y2="70.8962">
		<stop  offset="0" style="stop-color:#FFFFFF;stop-opacity:0.6"/>
		<stop  offset="1" style="stop-color:#FFFFFF;stop-opacity:0"/>
	</linearGradient>
	<path class="st3" d="M48.4,62.6c-1.3,0.6-4.6,2.1-4.1,4.3C44.9,69,52.7,72,72.9,72c15.8,0,29.2-0.8,29.9-4.5
		c0.8-3.6-12.4-8.9-29.6-8.9C59.3,58.7,51.7,61,48.4,62.6z"/>
	<linearGradient id="SVGID_2_" gradientUnits="userSpaceOnUse" x1="70.2448" y1="124.0751" x2="70.2448" y2="153.0755">
		<stop  offset="0" style="stop-color:#FFFFFF;stop-opacity:0.6"/>
		<stop  offset="0.7069" style="stop-color:#FFFFFF;stop-opacity:0"/>
	</linearGradient>
	<path class="st4" d="M26.8,124.8c0,0-0.1,14.5,15.5,25.4c17.4,12.1,36.9,10.1,49.4,6.3c15.4-4.8,23.1-17.6,22-28.1
		s-9-10.8-15.3-8.4s-25.8,11.8-36.9,11.9s-22.3-1.7-29.9-10.6C26,114.5,26.8,124.8,26.8,124.8z"/>
</g>
<path class="st1" d="M53.7,109.2L43.6,89c0,0,13.9-19.2,38-15.5c24.1,3.7,27,21.4,26.2,31.4c-0.9,9.9-13.1,20.6-20.7,25.1
	c-7.7,4.5-24.1,12.9-24.2,13.8s32.1-1.7,43.6-4.5c0,0-3.1,22.1-2.3,26c0,0-18.1,9.1-39.4,4.2s-25.5-10.3-26.2-14.5
	c-0.7-4.2-1-9.6,6.8-16.9c7.8-7.3,26.8-24.1,29.3-28.4c2.4-4.4,2.6-10.1-0.9-11.7C70.3,96.3,64,97,53.7,109.2z"/>
<g>
	<path class="st5" d="M41.1,5.7c0,0-5.7,26.6,5.9,28.7c0,0,4.7,1.1,7.7-4.1c0,0,0.3,1.8,0,3.5c0,0,5.7-0.6,6.8-0.3
		c0,0-1.5-23-0.9-28.4c0,0-5.3,0.6-6.3,0.7c0,0,1.1,15.2,0.5,18.2c-0.6,3-3,5.1-5.3,4.6c-3-0.8-4.9-7.4-1.7-22.8L41.1,5.7z"/>
	<path class="st5" d="M64.4,10.9c0,0,1.5,14.4,0.2,22.6c0,0,4.8-0.1,6.6,0c0,0-2.2-17,4.1-18c6.3-1,4.3,17.2,4.1,17.7
		c0,0,3.6-0.8,6.3-0.3c0,0,0.5-13.6-1.5-18.3c-1.3-3.2-3.7-5.4-9.1-4.1c-2.9,0.7-3.7,3.2-3.7,3.2s-0.3-1.9-0.2-3.8L64.4,10.9z"/>
	<path class="st5" d="M88.6,9.8c0,0,4.5-0.1,6.5-0.8c0,0-0.5,19.7,0.6,23.7c0,0-5.9-0.1-6.7,0.3C89,33,89.4,13.9,88.6,9.8z"/>
	<path class="st5" d="M100.7,4.6c0,0-0.3,2.2-0.4,4.3h-3.1c0,0-0.1,2.8-0.3,3.7h3c0,0-0.2,8.7-0.1,11.5s0.4,6.3,3,8
		c2.6,1.8,7.4,1.2,10-2.3l-1.9-2.6c0,0-1.6,1.4-3.2,0.8c-1.6-0.6-1.7-3.4-1.8-4.6c-0.1-1.2,0.3-11,0.3-11l3.6,0l-0.1-3.7l-3.1,0
		l0.6-4.6L100.7,4.6z"/>
	<path class="st5" d="M92.1,0.2c0,0-3.2-0.4-4.4,2.3s1.5,4.4,4.1,4c2.5-0.3,3.5-2,3.4-3.4C95.2,2.2,94.4,0.5,92.1,0.2z"/>
</g>
</svg>
