<?xml version="1.0" encoding="utf-8"?>
<!-- Generator: Adobe Illustrator 21.1.0, SVG Export Plug-In . SVG Version: 6.00 Build 0)  -->
<svg version="1.0" id="Capa_1" xmlns="http://www.w3.org/2000/svg" xmlns:xlink="http://www.w3.org/1999/xlink" x="0px" y="0px"
	 viewBox="0 0 238 39" style="enable-background:new 0 0 238 39;" xml:space="preserve">
<style type="text/css">
	.st0{clip-path:url(#SVGID_2_);}
	.st1{fill:#BFD951;}
	.st2{fill:url(#SVGID_3_);}
	.st3{fill:#FFFFFF;}
	.st4{opacity:0.65;}
	.st5{clip-path:url(#SVGID_5_);}
	.st6{fill:url(#SVGID_6_);}
</style>
<g>
	<defs>
		<rect id="SVGID_1_" width="119" height="39"/>
	</defs>
	<clipPath id="SVGID_2_">
		<use xlink:href="#SVGID_1_"  style="overflow:visible;"/>
	</clipPath>
	<g class="st0">
		<path class="st1" d="M108,38.9H11c-5.8,0-10.5-4.7-10.5-10.5V12.8C0.5,7,5.2,2.2,11,2.2h97c5.8,0,10.5,4.7,10.5,10.5v15.7
			C118.5,34.2,113.8,38.9,108,38.9z"/>
		<linearGradient id="SVGID_3_" gradientUnits="userSpaceOnUse" x1="59.5" y1="41.2455" x2="59.5" y2="7.3979">
			<stop  offset="7.139850e-02" style="stop-color:#FFFFFF"/>
			<stop  offset="0.1621" style="stop-color:#EDF4CF"/>
			<stop  offset="0.2603" style="stop-color:#DDEBA2"/>
			<stop  offset="0.3548" style="stop-color:#D0E37F"/>
			<stop  offset="0.4434" style="stop-color:#C7DD66"/>
			<stop  offset="0.5237" style="stop-color:#C1DA56"/>
			<stop  offset="0.5884" style="stop-color:#BFD951"/>
		</linearGradient>
		<path class="st2" d="M107.1,36.8H11.9c-5.7,0-10.4-4.7-10.4-10.4V10.5c0-5.7,4.7-10.4,10.4-10.4h95.3c5.7,0,10.4,4.7,10.4,10.4
			v15.8C117.6,32.1,112.9,36.8,107.1,36.8z"/>
		<g>
			<path class="st3" d="M18.4,13.5h2.5v6.7c0,1.1,0,1.7,0.1,2.1c0.1,0.5,0.4,0.9,0.8,1.2c0.4,0.3,1,0.5,1.7,0.5
				c0.7,0,1.3-0.1,1.6-0.4c0.4-0.3,0.6-0.6,0.7-1.1s0.1-1.1,0.1-2.1v-6.8h2.5V20c0,1.5-0.1,2.5-0.2,3.1c-0.1,0.6-0.4,1.1-0.8,1.5
				s-0.9,0.8-1.5,1c-0.6,0.3-1.4,0.4-2.4,0.4c-1.2,0-2.1-0.1-2.7-0.4c-0.6-0.3-1.1-0.6-1.5-1.1c-0.4-0.4-0.6-0.9-0.7-1.4
				c-0.2-0.7-0.2-1.8-0.2-3.1V13.5z"/>
			<path class="st3" d="M39.3,25.8h-2.4v-4.6c0-1-0.1-1.6-0.2-1.9c-0.1-0.3-0.3-0.5-0.5-0.7c-0.2-0.2-0.5-0.2-0.8-0.2
				c-0.4,0-0.8,0.1-1.1,0.3s-0.6,0.5-0.7,0.9c-0.1,0.4-0.2,1.1-0.2,2.1v4.1H31v-8.9h2.2v1.3c0.8-1,1.8-1.5,3-1.5
				c0.5,0,1,0.1,1.5,0.3c0.4,0.2,0.8,0.4,1,0.7s0.4,0.6,0.5,1c0.1,0.4,0.1,0.9,0.1,1.6V25.8z"/>
			<path class="st3" d="M41.8,15.7v-2.2h2.4v2.2H41.8z M41.8,25.8v-8.9h2.4v8.9H41.8z"/>
			<path class="st3" d="M50.8,16.9v1.9h-1.6v3.6c0,0.7,0,1.2,0,1.3c0,0.1,0.1,0.2,0.2,0.3c0.1,0.1,0.2,0.1,0.4,0.1
				c0.2,0,0.5-0.1,1-0.2l0.2,1.8c-0.6,0.2-1.2,0.4-1.9,0.4c-0.4,0-0.8-0.1-1.2-0.2c-0.3-0.1-0.6-0.3-0.8-0.6s-0.3-0.5-0.3-0.9
				c-0.1-0.3-0.1-0.8-0.1-1.7v-3.9h-1.1v-1.9h1.1v-1.8l2.4-1.4v3.2H50.8z"/>
			<path class="st3" d="M57.3,25.8V13.5h3.8l2.3,8.4l2.3-8.4h3.8v12.3h-2.4v-9.7l-2.5,9.7h-2.4l-2.5-9.7v9.7H57.3z"/>
			<path class="st3" d="M77.2,23l2.4,0.4c-0.3,0.9-0.8,1.5-1.5,2S76.7,26,75.7,26c-1.6,0-2.8-0.5-3.5-1.5c-0.6-0.8-0.9-1.8-0.9-3.1
				c0-1.5,0.4-2.6,1.2-3.5c0.8-0.8,1.8-1.3,3-1.3c1.4,0,2.4,0.4,3.2,1.3c0.8,0.9,1.2,2.2,1.1,4h-6c0,0.7,0.2,1.2,0.6,1.6
				c0.4,0.4,0.8,0.6,1.4,0.6c0.4,0,0.7-0.1,1-0.3C76.9,23.8,77.1,23.4,77.2,23z M77.4,20.6c0-0.7-0.2-1.2-0.5-1.6
				c-0.3-0.4-0.8-0.5-1.3-0.5c-0.5,0-1,0.2-1.3,0.6c-0.3,0.4-0.5,0.9-0.5,1.5H77.4z"/>
			<path class="st3" d="M90,25.8h-2.4v-4.6c0-1-0.1-1.6-0.2-1.9s-0.3-0.5-0.5-0.7s-0.5-0.2-0.8-0.2c-0.4,0-0.8,0.1-1.1,0.3
				s-0.6,0.5-0.7,0.9c-0.1,0.4-0.2,1.1-0.2,2.1v4.1h-2.4v-8.9h2.2v1.3c0.8-1,1.8-1.5,3-1.5c0.5,0,1,0.1,1.5,0.3
				c0.4,0.2,0.8,0.4,1,0.7s0.4,0.6,0.5,1c0.1,0.4,0.1,0.9,0.1,1.6V25.8z"/>
			<path class="st3" d="M98.4,25.8v-1.3c-0.3,0.5-0.8,0.9-1.3,1.1C96.6,25.9,96,26,95.4,26c-0.6,0-1.2-0.1-1.6-0.4
				c-0.5-0.3-0.8-0.6-1.1-1.1c-0.2-0.5-0.3-1.1-0.3-2v-5.7h2.4V21c0,1.3,0,2,0.1,2.3c0.1,0.3,0.3,0.5,0.5,0.7
				c0.2,0.2,0.5,0.2,0.9,0.2c0.4,0,0.8-0.1,1.1-0.3c0.3-0.2,0.5-0.5,0.7-0.8c0.1-0.3,0.2-1.1,0.2-2.4v-3.8h2.4v8.9H98.4z"/>
		</g>
	</g>
</g>
<g class="st4">
	<defs>
		<rect id="SVGID_4_" x="119" class="st4" width="119" height="39"/>
	</defs>
	<clipPath id="SVGID_5_">
		<use xlink:href="#SVGID_4_"  style="overflow:visible;"/>
	</clipPath>
	<g class="st5">
		<path class="st1" d="M227,38.9h-97c-5.8,0-10.5-4.7-10.5-10.5V12.8c0-5.8,4.7-10.5,10.5-10.5h97c5.8,0,10.5,4.7,10.5,10.5v15.7
			C237.5,34.2,232.8,38.9,227,38.9z"/>
		<linearGradient id="SVGID_6_" gradientUnits="userSpaceOnUse" x1="178.5" y1="41.2455" x2="178.5" y2="7.3979">
			<stop  offset="7.139850e-02" style="stop-color:#FFFFFF"/>
			<stop  offset="0.1621" style="stop-color:#EDF4CF"/>
			<stop  offset="0.2603" style="stop-color:#DDEBA2"/>
			<stop  offset="0.3548" style="stop-color:#D0E37F"/>
			<stop  offset="0.4434" style="stop-color:#C7DD66"/>
			<stop  offset="0.5237" style="stop-color:#C1DA56"/>
			<stop  offset="0.5884" style="stop-color:#BFD951"/>
		</linearGradient>
		<path class="st6" d="M226.1,36.8h-95.3c-5.7,0-10.4-4.7-10.4-10.4V10.5c0-5.7,4.7-10.4,10.4-10.4h95.3c5.7,0,10.4,4.7,10.4,10.4
			v15.8C236.6,32.1,231.9,36.8,226.1,36.8z"/>
		<g>
			<path class="st3" d="M137.4,13.5h2.5v6.7c0,1.1,0,1.7,0.1,2.1c0.1,0.5,0.4,0.9,0.8,1.2c0.4,0.3,1,0.5,1.7,0.5
				c0.7,0,1.3-0.1,1.6-0.4c0.4-0.3,0.6-0.6,0.7-1.1s0.1-1.1,0.1-2.1v-6.8h2.5V20c0,1.5-0.1,2.5-0.2,3.1c-0.1,0.6-0.4,1.1-0.8,1.5
				s-0.9,0.8-1.5,1c-0.6,0.3-1.4,0.4-2.4,0.4c-1.2,0-2.1-0.1-2.7-0.4c-0.6-0.3-1.1-0.6-1.5-1.1c-0.4-0.4-0.6-0.9-0.7-1.4
				c-0.2-0.7-0.2-1.8-0.2-3.1V13.5z"/>
			<path class="st3" d="M158.3,25.8h-2.4v-4.6c0-1-0.1-1.6-0.2-1.9c-0.1-0.3-0.3-0.5-0.5-0.7c-0.2-0.2-0.5-0.2-0.8-0.2
				c-0.4,0-0.8,0.1-1.1,0.3s-0.6,0.5-0.7,0.9c-0.1,0.4-0.2,1.1-0.2,2.1v4.1H150v-8.9h2.2v1.3c0.8-1,1.8-1.5,3-1.5
				c0.5,0,1,0.1,1.5,0.3c0.4,0.2,0.8,0.4,1,0.7s0.4,0.6,0.5,1c0.1,0.4,0.1,0.9,0.1,1.6V25.8z"/>
			<path class="st3" d="M160.8,15.7v-2.2h2.4v2.2H160.8z M160.8,25.8v-8.9h2.4v8.9H160.8z"/>
			<path class="st3" d="M169.8,16.9v1.9h-1.6v3.6c0,0.7,0,1.2,0,1.3c0,0.1,0.1,0.2,0.2,0.3c0.1,0.1,0.2,0.1,0.4,0.1
				c0.2,0,0.5-0.1,1-0.2l0.2,1.8c-0.6,0.2-1.2,0.4-1.9,0.4c-0.4,0-0.8-0.1-1.2-0.2c-0.3-0.1-0.6-0.3-0.8-0.6s-0.3-0.5-0.3-0.9
				c-0.1-0.3-0.1-0.8-0.1-1.7v-3.9h-1.1v-1.9h1.1v-1.8l2.4-1.4v3.2H169.8z"/>
			<path class="st3" d="M176.3,25.8V13.5h3.8l2.3,8.4l2.3-8.4h3.8v12.3h-2.4v-9.7l-2.5,9.7h-2.4l-2.5-9.7v9.7H176.3z"/>
			<path class="st3" d="M196.2,23l2.4,0.4c-0.3,0.9-0.8,1.5-1.5,2s-1.5,0.7-2.5,0.7c-1.6,0-2.8-0.5-3.5-1.5
				c-0.6-0.8-0.9-1.8-0.9-3.1c0-1.5,0.4-2.6,1.2-3.5c0.8-0.8,1.8-1.3,3-1.3c1.4,0,2.4,0.4,3.2,1.3c0.8,0.9,1.2,2.2,1.1,4h-6
				c0,0.7,0.2,1.2,0.6,1.6c0.4,0.4,0.8,0.6,1.4,0.6c0.4,0,0.7-0.1,1-0.3C195.9,23.8,196.1,23.4,196.2,23z M196.4,20.6
				c0-0.7-0.2-1.2-0.5-1.6c-0.3-0.4-0.8-0.5-1.3-0.5c-0.5,0-1,0.2-1.3,0.6c-0.3,0.4-0.5,0.9-0.5,1.5H196.4z"/>
			<path class="st3" d="M209,25.8h-2.4v-4.6c0-1-0.1-1.6-0.2-1.9s-0.3-0.5-0.5-0.7s-0.5-0.2-0.8-0.2c-0.4,0-0.8,0.1-1.1,0.3
				s-0.6,0.5-0.7,0.9c-0.1,0.4-0.2,1.1-0.2,2.1v4.1h-2.4v-8.9h2.2v1.3c0.8-1,1.8-1.5,3-1.5c0.5,0,1,0.1,1.5,0.3
				c0.4,0.2,0.8,0.4,1,0.7s0.4,0.6,0.5,1c0.1,0.4,0.1,0.9,0.1,1.6V25.8z"/>
			<path class="st3" d="M217.4,25.8v-1.3c-0.3,0.5-0.8,0.9-1.3,1.1c-0.5,0.3-1.1,0.4-1.7,0.4c-0.6,0-1.2-0.1-1.6-0.4
				c-0.5-0.3-0.8-0.6-1.1-1.1c-0.2-0.5-0.3-1.1-0.3-2v-5.7h2.4V21c0,1.3,0,2,0.1,2.3c0.1,0.3,0.3,0.5,0.5,0.7
				c0.2,0.2,0.5,0.2,0.9,0.2c0.4,0,0.8-0.1,1.1-0.3c0.3-0.2,0.5-0.5,0.7-0.8c0.1-0.3,0.2-1.1,0.2-2.4v-3.8h2.4v8.9H217.4z"/>
		</g>
	</g>
</g>
</svg>
