<?xml version="1.0" encoding="utf-8"?>
<!-- Generator: Adobe Illustrator 21.1.0, SVG Export Plug-In . SVG Version: 6.00 Build 0)  -->
<svg version="1.0" id="Capa_1" xmlns="http://www.w3.org/2000/svg" xmlns:xlink="http://www.w3.org/1999/xlink" x="0px" y="0px"
	 viewBox="0 0 450 278" style="enable-background:new 0 0 450 278;" xml:space="preserve">
<style type="text/css">
	.st0{clip-path:url(#SVGID_2_);}
	.st1{fill:#BBC6D3;}
	.st2{fill:#A3A3AC;}
	.st3{fill:#59666C;}
	.st4{fill:#4D555A;}
	.st5{fill:#EE6B40;}
	.st6{fill:#BBC6D3;stroke:#000000;stroke-width:2;stroke-miterlimit:10;}
	.st7{fill:#41555B;}
	.st8{fill:#636E73;}
	.st9{fill:#4B5358;}
	.st10{fill:#D65A40;}
	.st11{fill:#FFFFFF;stroke:#000000;stroke-miterlimit:10;}
	.st12{fill:none;stroke:#000000;stroke-width:0.5;stroke-miterlimit:10;}
	.st13{fill:#292929;}
	.st14{fill:#FFFFFF;}
	.st15{fill:#4C5458;}
	.st16{fill:#A4A3AB;}
	.st17{fill:#D4CBC3;}
	.st18{fill:none;stroke:#000000;stroke-miterlimit:10;}
	.st19{clip-path:url(#SVGID_4_);}
	.st20{fill:#BBC6D3;stroke:#000000;stroke-width:0.5;stroke-miterlimit:10;}
</style>
<g>
	<defs>
		<rect id="SVGID_1_" x="0" y="0.5" width="225" height="277.1"/>
	</defs>
	<clipPath id="SVGID_2_">
		<use xlink:href="#SVGID_1_"  style="overflow:visible;"/>
	</clipPath>
	<g class="st0">
		<g>
			<path class="st1" d="M139.6,255.5c0,0,0.6,7.1,6.3,7.8c5.7,0.7,6.7-0.8,13.3,1.9c6.6,2.7,9.8,2.9,11.8,1.3
				c2.1-1.6-7.4-19.6-7.4-19.6L139.6,255.5z"/>
			<g>
				<path d="M139.6,255.5c0.2,1.2,0.6,2.3,1.1,3.4c0.5,1.1,1.3,2,2.2,2.7c0.9,0.7,2,1.1,3.1,1.2c1.2,0.1,2.4,0.1,3.6,0.1
					c1.2,0,2.4-0.1,3.7,0c1.3,0.1,2.5,0.3,3.7,0.7c1.2,0.3,2.4,0.8,3.5,1.2c1.1,0.4,2.2,0.8,3.4,1.1c1.1,0.3,2.3,0.6,3.4,0.6
					c1.1,0.1,2.1-0.1,2.9-0.6l0.3-0.2c0,0-0.1,0-0.1,0.1c0,0.1,0,0,0,0c0,0,0-0.3,0-0.5c-0.1-0.5-0.2-1-0.3-1.6
					c-0.3-1.1-0.7-2.2-1.2-3.3c-0.9-2.2-1.8-4.4-2.9-6.6c-1-2.2-2.1-4.4-3.1-6.5l1.1,0.4c-2,0.7-4,1.3-5.9,2l-6,2L139.6,255.5z
					 M139.6,255.5l5.8-2.4l5.9-2.4l6-2.4c2-0.8,4-1.6,6.1-2.3l0.7-0.3l0.4,0.7c2.3,4.3,4.5,8.6,6.3,13.2c0.5,1.1,0.9,2.3,1.2,3.5
					c0.2,0.6,0.3,1.2,0.4,2c0,0.4,0.1,0.7-0.1,1.3c-0.1,0.2-0.1,0.3-0.2,0.4c-0.1,0.2-0.3,0.3-0.4,0.4l-0.5,0.3
					c-1.3,0.8-2.8,0.9-4.1,0.8c-1.3-0.1-2.6-0.4-3.8-0.8c-2.4-0.7-4.6-1.8-6.8-2.6c-1.1-0.4-2.2-0.7-3.4-0.8
					c-1.1-0.1-2.3-0.1-3.6-0.2c-1.2,0-2.5-0.1-3.7-0.3c-1.3-0.2-2.5-0.8-3.5-1.6C140.5,260.4,139.8,257.9,139.6,255.5z"/>
			</g>
		</g>
		<g>
			<path class="st1" d="M65.8,248.2c0,0-12.5-1.6-15.3-0.6c-2.8,1-4.3,0.2-6.3,0.2c-1.9-0.1-5-0.1-7.3,1.3s-5.3,5.1-6.6,6.3
				s-2.8,3.9,2,4.3c0,0,1.3,5,7,4.4c0,0,2,4,10.6,2.6c0,0,3.5,7.5,11.4,5c6.8-2.1,7.8-9.3,19.3-10.3c0,0-9.9,8.2,1.2,11.7
				c9.3,2.9,9.3-7.3,20.3-8c11-0.7,18.3-0.9,21.7-5.9c3.3-5-6.2-9-6.2-9L65.8,248.2z"/>
			<path d="M65.8,248.6c-3.8-0.5-7.5-0.9-11.2-1c-0.9,0-1.9,0-2.8,0.1c-0.5,0.1-0.9,0.1-1.3,0.3c-0.5,0.2-0.9,0.3-1.4,0.4
				c-1,0.2-2,0.1-2.9,0c-1-0.1-1.8-0.2-2.8-0.2c-1.8,0-3.7,0.2-5.3,0.9c-0.8,0.4-1.5,0.9-2.2,1.5c-0.7,0.6-1.3,1.3-2,1.9l-1.9,2.1
				c-0.3,0.3-0.6,0.7-1,1.1c-0.3,0.3-0.6,0.6-0.8,1c-0.2,0.3-0.3,0.7-0.3,1c0,0.3,0.1,0.5,0.4,0.7c0.5,0.4,1.5,0.5,2.3,0.6h0l0.5,0
				l0.1,0.5c0.2,0.6,0.5,1.2,0.9,1.7c0.4,0.5,0.9,1,1.4,1.3c1.1,0.7,2.5,0.9,3.9,0.7l0,0l0.5,0l0.3,0.5c0.1,0.2,0.4,0.6,0.8,0.8
				c0.3,0.3,0.7,0.5,1.1,0.7c0.8,0.4,1.6,0.6,2.5,0.8c0.9,0.1,1.8,0.2,2.7,0.1c0.5,0,0.9-0.1,1.4-0.1l1.4-0.2l0,0l0.6-0.1l0.3,0.6
				c1.3,2.4,3.5,4.4,6.2,4.9c1.3,0.2,2.7,0.1,4-0.3c1.3-0.4,2.5-1,3.7-1.9c2.2-1.7,4.3-4.1,7-5.8c2.7-1.7,5.9-2.5,8.9-2.7l0,0l3-0.3
				l-2.3,2c-1.1,0.9-2.1,2.1-2.8,3.3c-0.7,1.2-1.1,2.5-0.8,3.6c0.4,1.1,1.5,1.9,2.8,2.5c1.3,0.6,2.7,1.1,4.1,1.1
				c1.4,0.1,2.7-0.3,3.9-1c1.2-0.8,2.3-1.8,3.5-2.9c1.2-1,2.5-2,3.9-2.8c1.5-0.8,3.1-1.3,4.7-1.5c1.6-0.2,3.2-0.2,4.7-0.3
				c1.5-0.1,3.1-0.2,4.6-0.3c3.1-0.3,6.1-0.6,8.9-1.6c1.4-0.5,2.7-1.3,3.7-2.3c1-1.1,1.8-2.3,1.4-3.6c-0.3-1.3-1.4-2.4-2.5-3.4
				c-1.2-0.9-2.5-1.7-3.9-2.3l0,0l0.2,0L65.8,248.6z M65.9,247.7l51.9,2l0.1,0l0.1,0l0,0c1.5,0.6,2.8,1.4,4.1,2.4
				c1.2,1,2.5,2.2,3,3.9c0.2,0.9,0.2,1.8-0.2,2.6c-0.4,0.8-0.9,1.5-1.4,2.1c-1.1,1.2-2.6,2.1-4.1,2.7c-3,1.2-6.2,1.5-9.3,1.9
				c-1.6,0.1-3.1,0.3-4.7,0.4c-1.5,0.1-3.1,0.2-4.6,0.4c-1.5,0.2-2.8,0.7-4.1,1.4c-1.3,0.7-2.4,1.6-3.6,2.6c-1.1,1-2.2,2.1-3.7,3.1
				c-1.4,1-3.2,1.5-4.9,1.4c-1.7-0.1-3.3-0.6-4.8-1.2c-0.8-0.4-1.5-0.8-2.2-1.4c-0.7-0.6-1.3-1.4-1.6-2.3c-0.3-0.9-0.3-2-0.1-2.8
				c0.2-0.9,0.6-1.7,1-2.4c0.9-1.5,2-2.6,3.3-3.7l0.7,1.7h0c-2.9,0.2-5.7,0.9-8.1,2.4c-2.5,1.4-4.4,3.7-6.9,5.6
				c-2.5,1.9-5.8,3.1-9.1,2.5c-1.6-0.3-3.2-1.1-4.4-2.1c-1.3-1.1-2.3-2.3-3-3.8l1,0.5l0,0l-1.5,0.2c-0.5,0-1,0.1-1.5,0.1
				c-1,0-2,0-3-0.2c-1-0.2-2-0.5-3-1c-0.5-0.3-0.9-0.5-1.3-0.9c-0.4-0.4-0.8-0.7-1.1-1.3l0.8,0.4h0c-1.6,0.2-3.4-0.1-4.8-1
				c-0.7-0.5-1.3-1.1-1.8-1.7c-0.5-0.7-0.9-1.4-1.1-2.3l0.6,0.5h0c-1-0.1-2-0.2-3-1c-0.5-0.4-0.9-1.1-0.8-1.8c0-0.7,0.3-1.2,0.6-1.6
				c0.3-0.4,0.7-0.9,1-1.2c0.3-0.3,0.7-0.6,1-1l2-2c0.7-0.7,1.4-1.3,2.1-2c0.7-0.6,1.6-1.2,2.5-1.6c1.9-0.8,3.8-0.9,5.7-0.9
				c0.9,0,2,0.1,2.9,0.3c0.9,0.1,1.8,0.2,2.7,0.1c0.4-0.1,0.9-0.2,1.3-0.3c0.5-0.2,1-0.3,1.5-0.3c1-0.1,1.9-0.1,2.9-0.1
				C58.4,246.9,62.2,247.3,65.9,247.7z"/>
		</g>
		<path class="st2" d="M96.6,265.6c0,0,3.9-4.7,8.4-5.3c4.6-0.7,4.6-0.3,5.3-0.6c0.7-0.3,3.1-4.6,2.6-7c0,0,8.8,2.5,11.3,2.6
			c0,0,1.6,3.4-3.8,6.3C114.3,264.9,99.1,263.8,96.6,265.6z"/>
		<g>
			<path class="st3" d="M82.9,203c0,0-25.4,2.7-30.6,10.5c-5,7.5,6.6,5.1,6.6,5.1s-10.5,7.8-4.8,11.3c3,1.9,5-1.6,5-1.6
				s-0.7,14.8,6.3,19.5c0,0,0.3,0.6,4.6,0.9c4.3,0.3,7.8-0.3,11.7,1.9c3.8,2.3,12.3,2.8,12.5,0c0,0,3,0.3,6.3,1.9
				c3.3,1.6,11.4,2,8.8-1.2c0,0,15.3,6,19.7,3.7c0,0-3.3-3.8-9.3-7.7c-6-3.8-9.2-5.9-9.9-12.3c0,0,18.1-4.6,34.9,1.4
				c0,0-1,8.5-2.9,12.2c-1.9,3.7-3.3,3.8-5.2,8.5c0,0,8.1-0.5,10.9-3.2c2.8-2.7,2.8,1.9,10.4,1.1c7.7-0.8,11.8-28.3,11.8-28.3
				l-4.9-6.9L82.9,203z"/>
			<g>
				<path d="M82.9,203c-3.8,0.5-7.5,1.2-11.2,2c-3.7,0.8-7.4,1.8-10.9,3.2c-1.7,0.7-3.5,1.5-5,2.5c-1.6,1-3,2.2-3.8,3.9
					c-0.4,0.8-0.8,1.7-0.6,2.4c0.2,0.7,1,1.2,1.8,1.3c1.8,0.3,3.7,0.1,5.5-0.2l1.9-0.4l-1.5,1.2c-1.3,1-2.5,2.2-3.7,3.4
					c-1.1,1.2-2.1,2.6-2.5,4.1c-0.2,0.7-0.1,1.5,0.3,2c0.4,0.6,1.1,1.1,1.7,1.3c0.7,0.3,1.4,0.2,2-0.2c0.6-0.3,1.2-0.9,1.6-1.6
					l1.2-1.9l-0.1,2.2c0,1.7,0,3.5,0.2,5.2c0.2,1.7,0.5,3.5,0.9,5.1c0.4,1.7,1,3.3,1.8,4.8c0.8,1.5,1.9,2.8,3.2,3.7l0.2,0.3
					c-0.1-0.2-0.1-0.1-0.1-0.2c0,0,0,0,0,0c0,0,0,0,0,0c0,0,0.1,0,0.1,0.1c0.1,0,0.2,0.1,0.4,0.1c0.3,0.1,0.6,0.1,0.9,0.2
					c0.6,0.1,1.2,0.2,1.8,0.2c1.2,0.1,2.5,0.2,3.7,0.2c2.5,0,5.2,0,7.7,1.1c0.6,0.3,1.3,0.6,1.8,0.9c0.5,0.3,1.1,0.5,1.6,0.7
					c1.1,0.4,2.3,0.6,3.5,0.8c1.2,0.1,2.4,0.2,3.6,0.1c0.6-0.1,1.1-0.2,1.6-0.4c0.2-0.1,0.4-0.2,0.5-0.3c0.1-0.1,0.1-0.2,0.1-0.3
					l0.1-0.9l0.8,0.1c1.6,0.2,3.1,0.6,4.6,1.1c0.7,0.3,1.5,0.6,2.1,0.9c0.6,0.3,1.3,0.5,2,0.7c1.4,0.3,2.8,0.5,4.2,0.4
					c0.7,0,1.4-0.2,1.7-0.4c0.1,0,0.1-0.1,0.1-0.1c0,0,0,0.1,0,0c0-0.1-0.1-0.3-0.3-0.6l-2.2-2.6l3.2,1.2c3.1,1.2,6.3,2.2,9.6,3
					c1.6,0.4,3.3,0.7,4.9,0.9c0.8,0.1,1.6,0.1,2.4,0.1c0.8,0,1.5-0.2,2.1-0.4l-0.3,1.4c-1.5-1.7-3.3-3.3-5.1-4.7
					c-1.8-1.5-3.8-2.7-5.8-4c-2-1.3-4.1-2.7-5.7-4.7c-0.8-1-1.5-2.2-1.9-3.4c-0.4-1.2-0.7-2.5-0.8-3.7l-0.1-0.9l0.8-0.2
					c3-0.7,5.9-1.1,8.9-1.4c3-0.3,6-0.4,9-0.3c3,0.1,6,0.4,8.9,0.9c3,0.5,5.9,1.3,8.7,2.3l0.7,0.3l-0.1,0.8
					c-0.2,1.9-0.5,3.8-0.9,5.6c-0.4,1.9-0.8,3.7-1.5,5.6c-0.2,0.5-0.4,0.9-0.6,1.4c-0.2,0.4-0.5,0.9-0.7,1.3
					c-0.5,0.8-1.1,1.6-1.7,2.4c-1.1,1.4-2,3-2.7,4.7l-0.9-1.3c2.2-0.2,4.4-0.5,6.5-1.1c1-0.3,2.1-0.7,2.9-1.2
					c0.2-0.1,0.4-0.3,0.6-0.4c0.1-0.1,0.2-0.1,0.3-0.2l0.4-0.3c0.3-0.2,0.5-0.4,0.9-0.6c0.4-0.2,0.9-0.3,1.3-0.2
					c0.9,0.1,1.4,0.5,1.9,0.8c0.5,0.3,0.9,0.5,1.4,0.7c1,0.4,2,0.5,3,0.6c0.5,0,1.1,0,1.6,0c0.6,0,0.9-0.1,1.4-0.3
					c0.8-0.4,1.6-1.1,2.2-2c1.3-1.7,2.2-3.7,3-5.8c0.8-2.1,1.5-4.2,2.1-6.4c1.2-4.3,2.2-8.7,2.9-13.2l0.1,0.5l-4.9-7l0.4,0.3
					l-40.9-8.7L82.9,203z M82.9,203l41,8l41.1,8.2l0.3,0.1l0.2,0.2l4.9,6.9l0.2,0.2l0,0.3c-0.7,4.5-1.6,9-2.8,13.4
					c-0.6,2.2-1.3,4.4-2.1,6.5c-0.9,2.1-1.8,4.3-3.3,6.2c-0.7,0.9-1.6,1.9-2.8,2.5c-0.6,0.3-1.4,0.4-1.9,0.5c-0.6,0-1.2,0.1-1.8,0.1
					c-1.2,0-2.4-0.2-3.6-0.7c-0.6-0.2-1.1-0.5-1.6-0.8c-0.5-0.3-1-0.5-1.2-0.6c-0.2,0-0.5,0.1-0.9,0.4l-0.3,0.3
					c-0.1,0.1-0.3,0.2-0.4,0.3c-0.3,0.2-0.5,0.4-0.8,0.5c-1.1,0.6-2.2,1-3.3,1.4c-2.3,0.6-4.5,1-6.9,1.2l-1.5,0.1l0.6-1.4
					c0.7-1.8,1.7-3.6,2.9-5.1c0.6-0.8,1.1-1.5,1.6-2.2c0.2-0.4,0.5-0.8,0.7-1.2c0.2-0.4,0.4-0.8,0.5-1.2c0.6-1.7,1-3.5,1.4-5.3
					c0.4-1.8,0.6-3.7,0.9-5.5l0.6,1c-2.7-0.9-5.5-1.7-8.4-2.1c-2.9-0.5-5.8-0.7-8.7-0.8c-2.9-0.1-5.8,0-8.7,0.3
					c-2.9,0.3-5.8,0.7-8.6,1.3l0.7-1.1c0.2,2.3,0.9,4.4,2.3,6.1c1.4,1.7,3.3,3,5.3,4.3c2,1.3,4,2.6,5.9,4.1c1.9,1.5,3.7,3.1,5.4,5
					l0.8,0.9l-1.1,0.5c-1,0.5-2,0.6-2.9,0.6c-0.9,0-1.8,0-2.7-0.1c-1.7-0.2-3.4-0.6-5.1-1c-3.3-0.9-6.6-1.9-9.8-3.1l1-1.4
					c0.3,0.4,0.6,0.7,0.7,1.4c0.1,0.3,0,0.8-0.2,1.1c-0.2,0.3-0.4,0.6-0.7,0.7c-1,0.6-1.8,0.6-2.6,0.6c-1.6,0.1-3.2-0.1-4.7-0.5
					c-0.8-0.2-1.5-0.4-2.3-0.8c-0.7-0.3-1.3-0.6-2-0.8c-1.3-0.5-2.8-0.8-4.1-1l0.9-0.8c0,0.5-0.3,1.1-0.6,1.4
					c-0.3,0.3-0.7,0.5-1.1,0.7c-0.7,0.3-1.4,0.4-2.1,0.5c-1.4,0.1-2.7,0.1-4-0.1c-1.3-0.2-2.6-0.5-3.8-0.9c-0.6-0.2-1.3-0.5-1.9-0.8
					c-0.6-0.3-1.1-0.6-1.6-0.8c-2.2-0.9-4.6-1-7.2-1.1c-1.3,0-2.6-0.1-3.8-0.2c-0.6-0.1-1.3-0.2-1.9-0.3c-0.3-0.1-0.7-0.1-1-0.2
					c-0.2,0-0.3-0.1-0.5-0.2c-0.1,0-0.2-0.1-0.3-0.1c-0.1,0-0.1-0.1-0.2-0.1c0,0-0.1,0-0.1-0.1c-0.1-0.1-0.1,0-0.2-0.3l0.2,0.3
					c-1.6-1.1-2.8-2.6-3.6-4.3c-0.9-1.6-1.4-3.4-1.9-5.1c-0.4-1.8-0.7-3.5-0.8-5.3c-0.2-1.8-0.2-3.6-0.2-5.4l1.1,0.3
					c-0.5,0.8-1.2,1.5-2,2c-0.9,0.5-2,0.6-2.9,0.2c-0.9-0.4-1.7-0.9-2.2-1.8c-0.6-0.9-0.6-2-0.4-2.9c0.5-1.8,1.6-3.2,2.8-4.5
					c1.2-1.3,2.5-2.4,3.9-3.5l0.4,0.8c-1.9,0.3-3.8,0.5-5.8,0.1c-0.5-0.1-1-0.3-1.4-0.6c-0.5-0.3-0.8-0.8-1-1.4
					c-0.2-1.1,0.3-2.1,0.7-3c0.9-1.8,2.5-3.1,4.1-4.1c1.6-1,3.4-1.8,5.2-2.4c3.6-1.3,7.3-2.3,11-3C75.4,204,79.1,203.4,82.9,203z"/>
			</g>
		</g>
		<path class="st4" d="M117.9,233.9c0,0-16.7-4.3-22.7-3.1c-6,1.2-10.7,2.2-10.7,2.2s9.7,0.2,10.2,1s-7,2-8.6,5c0,0,3.9-0.4,4.6,0.5
			c0.6,0.8,0.8,4.3,9.7,9.5c0,0,0.2-2.5,0.5-3.4c0,0,12.1,11,27.9,9.6c0,0-6.5-6.6-11.6-9.1c-5.1-2.5-7.7-4.9-7.9-10.7L117.9,233.9z
			"/>
		<g>
			<path class="st5" d="M78.7,163.2l10.8-7.5l5.2,14.5l-12.7,31.4c0,0,3.5,2.8,6.8,5.3c3.3,2.5,9.8,12.5,29.8,18.2
				c20,5.7,39,0.5,49.7-7.7l0.2-46.5c0,0,14.5,5.2,33.3-12.8c0,0,0.2-21.8-22.5-37.6s-86.5,0-86.5,0s-27.3,0.8-32.5,9.8l14.1,37
				L78.7,163.2z"/>
			<path d="M78.2,162.6c1.8-1.3,3.6-2.5,5.4-3.8c1.8-1.2,3.7-2.5,5.5-3.7l0.8-0.5l0.3,0.8l0,0l5.5,14.4l0.1,0.4l-0.2,0.4l0,0
				L83.1,202l-0.4-1.3l0,0l4.7,3.7c0.8,0.6,1.5,1.2,2.4,1.9c0.9,0.7,1.5,1.4,2.3,2.2c2.8,2.9,5.7,5.4,9,7.6c6.5,4.4,14,7.2,21.7,9
				c7.7,1.6,15.7,1.9,23.5,0.6c7.7-1.4,15.3-4.2,21.6-8.9l-0.3,0.7v0l0-23.2l0.1-23.2l0-1.3l1.3,0.4c1.3,0.4,2.8,0.6,4.3,0.6
				c1.5,0.1,3-0.1,4.5-0.3c3-0.4,5.9-1.4,8.6-2.6l2.1-1l2-1.1l1-0.6l1-0.6l1.9-1.3c1.2-0.9,2.4-1.9,3.6-2.8l3.4-3l-0.3,0.7
				c-0.1-2.6-0.6-5.4-1.2-8c-0.7-2.7-1.7-5.2-2.8-7.7c-2.3-5-5.4-9.5-9.2-13.5l-1.4-1.5c-0.5-0.5-1-0.9-1.5-1.4
				c-1-0.9-2-1.9-3.1-2.7c-2.2-1.7-4.3-3.4-6.8-4.4c-2.5-1.1-5.1-2-7.7-2.6c-1.3-0.4-2.7-0.6-4-0.8c-1.4-0.2-2.7-0.4-4.1-0.6
				c-11-1.2-22.2-0.6-33.2,0.6c-5.5,0.6-11,1.4-16.5,2.3c-5.5,0.9-10.9,2-16.3,3.3l-0.1,0l-0.1,0c-2.9,0.1-5.8,0.3-8.6,0.7
				c-2.9,0.3-5.7,0.8-8.6,1.4c-2.8,0.6-5.6,1.4-8.3,2.5c-1.3,0.6-2.6,1.2-3.8,2c-1.2,0.8-2.2,1.8-2.9,3l0,0l0-0.3l14.2,37h0
				l-0.7-0.2c0.6-0.8,1.3-1.5,2-2.2C76.8,163.9,77.5,163.2,78.2,162.6z M79.2,163.8c-0.7,0.6-1.4,1.3-2.2,1.9
				c-0.7,0.6-1.5,1.2-2.3,1.8l-0.6,0.4l-0.1-0.6v0l-14-37l-0.1-0.2l0.1-0.1l0,0c0.8-1.3,1.9-2.4,3.1-3.2c1.2-0.9,2.5-1.5,3.9-2.1
				c2.7-1.2,5.5-2,8.4-2.6c2.9-0.6,5.7-1.1,8.6-1.5c2.9-0.4,5.8-0.6,8.7-0.7l-0.1,0c10.9-2.6,21.9-4.6,33-5.9
				c11.1-1.3,22.3-1.9,33.5-0.8c1.4,0.2,2.8,0.4,4.2,0.6c1.4,0.3,2.8,0.5,4.1,0.8c2.8,0.6,5.5,1.5,8.1,2.7l1.9,0.9l1.8,1.1
				c1.2,0.8,2.3,1.7,3.4,2.5c1.2,0.8,2.2,1.8,3.2,2.7c0.5,0.5,1.1,0.9,1.6,1.4l1.5,1.5c7.8,8.2,13.2,18.8,13.8,30.4l0,0.4l-0.3,0.3
				l-3.5,3.2c-1.2,1-2.5,2-3.7,2.9l-2,1.3l-1,0.7l-1,0.6l-2.1,1.2l-2.2,1c-2.9,1.3-6,2.3-9.1,2.7c-1.6,0.2-3.2,0.4-4.8,0.3
				c-1.6-0.1-3.2-0.2-4.9-0.7l1.3-0.9l-0.1,23.2l-0.2,23.2v0v0.4l-0.3,0.3c-6.5,4.9-14.4,7.9-22.3,9.4c-8,1.5-16.3,1.2-24.2-0.4
				c-7.9-1.8-15.6-4.6-22.5-9.2c-3.4-2.2-6.5-5-9.4-7.8c-0.7-0.7-1.4-1.4-2.1-2c-0.7-0.6-1.6-1.2-2.3-1.8l-4.8-3.7l0,0l-0.7-0.5
				l0.3-0.8l12.7-31.3l0,0l0,0.8l-4.8-14.6l0,0l1,0.3c-1.7,1.3-3.5,2.6-5.3,3.8C82.9,161.4,81,162.6,79.2,163.8z"/>
		</g>
		<path class="st2" d="M52.4,268.4c0,0,4.7,1.2,8.6-1.3s8.1-11.1,20.3-6.8c0,0-7.2,0.7-10.7,4.1c-3.6,3.5-7.9,7.3-12.5,6.8
			S52.4,268.4,52.4,268.4z"/>
		<g>
			<path class="st3" d="M60.4,130.2c0,0,21.8,9,14.1,37l-4.9,2.7l-51.1,26.3c0,0-5.2-6.3-8.7-8.7c-3.5-2.3-8.8-10.8-3.3-27
				c0,0-3,3-4.3,1.7s-3.8-10.5,21-22.2c0,0-5-3.2-4-4.3s11.8-6,36.5-4C55.6,131.7,59.2,131.5,60.4,130.2z"/>
			<g>
				<path d="M60.4,130.2c3.3,1.5,6.3,3.7,8.8,6.3c2.5,2.7,4.4,5.8,5.7,9.3c1.2,3.4,1.8,7.1,1.8,10.8c0,3.7-0.6,7.3-1.6,10.8
					l-0.1,0.2l-0.2,0.1c-4.6,2.6-9.3,5-13.9,7.5c-4.6,2.5-9.3,4.9-14,7.3l-28,14.5l-0.7,0.4l-0.5-0.6c-2.2-2.6-4.5-5.1-7-7.3
					c-0.3-0.3-0.6-0.5-1-0.8l-0.5-0.3L8.6,188c-0.8-0.6-1.4-1.3-1.9-2c-1.1-1.5-1.9-3.1-2.5-4.9c-1.1-3.4-1.3-7.1-1-10.6
					c0.3-3.5,1.2-6.9,2.3-10.2l1.5,0.9c-0.6,0.6-1.3,1.1-2.1,1.6c-0.4,0.2-0.8,0.4-1.3,0.6c-0.5,0.1-1.2,0.2-1.8-0.2
					c-0.6-0.4-0.8-0.9-1-1.4c-0.2-0.5-0.3-0.9-0.3-1.4c-0.1-0.9,0-1.8,0.2-2.7c1-3.4,3.2-6,5.6-8.2c2.4-2.2,5.1-4,7.9-5.6
					c1.4-0.8,2.8-1.6,4.2-2.3l4.3-2.1l-0.1,1.2c-0.8-0.5-1.5-1.1-2.2-1.7c-0.4-0.3-0.7-0.6-1.1-1c-0.3-0.4-0.7-0.7-0.9-1.3
					c-0.1-0.3-0.3-0.7,0-1.2c0.1-0.1,0.1-0.2,0.2-0.3l0.2-0.2c0.1-0.1,0.2-0.2,0.3-0.3c0.4-0.3,0.9-0.5,1.3-0.7
					c0.9-0.4,1.7-0.7,2.6-0.9c3.5-1,7.1-1.6,10.8-2c3.6-0.3,7.3-0.4,10.9-0.3c3.6,0,7.2,0.3,10.9,0.6h0c0.8,0,1.7-0.1,2.5-0.3
					c0.4-0.1,0.8-0.2,1.2-0.4C59.7,130.7,60.1,130.5,60.4,130.2z M60.4,130.2c-0.3,0.3-0.7,0.6-1.1,0.7c-0.4,0.2-0.8,0.3-1.2,0.4
					c-0.8,0.2-1.7,0.4-2.6,0.4l0,0l0,0c-3.6-0.2-7.2-0.4-10.8-0.3c-3.6,0-7.2,0.2-10.8,0.7c-3.6,0.4-7.1,1.1-10.5,2.1
					c-0.8,0.3-1.7,0.6-2.5,0.9c-0.4,0.2-0.8,0.4-1.1,0.6c-0.1,0.1-0.1,0.1-0.2,0.1l-0.1,0.1c0,0,0,0,0,0c0-0.1,0,0,0.1,0.1
					c0.3,0.6,1,1.2,1.7,1.7c0.7,0.5,1.4,1.1,2.2,1.5l1,0.6l-1.1,0.5l-4.2,2.2c-1.4,0.8-2.8,1.5-4.1,2.4c-2.7,1.7-5.2,3.5-7.6,5.6
					c-2.3,2.1-4.3,4.6-5.1,7.3c-0.2,0.7-0.3,1.4-0.2,2.1c0,0.3,0.1,0.6,0.2,0.9c0.1,0.3,0.3,0.5,0.3,0.5c0.1,0.1,0.7,0,1.3-0.4
					c0.6-0.3,1.2-0.8,1.7-1.3l2.6-2.6l-1.1,3.5c-1.1,3.2-1.8,6.5-2.1,9.8C4.8,174,5,177.3,6,180.5c0.5,1.5,1.3,3,2.2,4.3
					c0.5,0.6,1,1.2,1.6,1.7l0.5,0.3l0.6,0.4c0.4,0.3,0.7,0.6,1.1,0.8c2.7,2.3,5,4.9,7.2,7.6l-1.2-0.2L46,181
					c4.7-2.4,9.4-4.8,14.1-7.1c4.7-2.4,9.4-4.7,14-7.2l-0.3,0.4c1-3.4,1.6-7,1.7-10.5c0.1-3.6-0.3-7.1-1.4-10.5
					c-1.1-3.4-2.9-6.5-5.3-9.2C66.5,134.1,63.6,131.8,60.4,130.2z"/>
			</g>
		</g>
		<path class="st6" d="M62.3,182.2c0,0,4.5,6.3,9,3.9c4.5-2.4,7.4-11.2-7-19.9S62.3,182.2,62.3,182.2z"/>
		<g>
			<path class="st1" d="M166.6,233.7c0,0-1.7,6-5.7,8.3c-4,2.3-7.7,5.2-6.7,10.5c1,5.3,8,15.2,12.3,14.2c0,0,2.8,9.3,10.8,9.8
				s4.5-3.5,11.7-3.5s23.3,0.8,32.3-10.2c0,0,3.8-3.8,1.5-9.2c-1.5-3.5,3-17.5-6.7-28C206.6,215.2,166.6,233.7,166.6,233.7z"/>
			<path d="M167.1,234.2c0.1,0,0.1-0.2,0.1-0.2L167.1,234.2L167.1,234.2l-0.1,0.4l-0.2,0.7c-0.2,0.4-0.4,0.9-0.5,1.3
				c-0.4,0.9-0.8,1.7-1.4,2.5c-0.5,0.8-1.1,1.6-1.8,2.2c-0.3,0.4-0.7,0.7-1.1,0.9c-0.4,0.3-0.8,0.5-1.2,0.8c-1.5,0.9-3,1.9-4.1,3.2
				c-1.1,1.3-1.8,2.8-1.8,4.5c0,1.7,0.5,3.3,1.2,4.9c0.7,1.6,1.6,3.1,2.7,4.6c1,1.4,2.2,2.8,3.5,4c0.7,0.6,1.3,1.1,2.1,1.5
				c0.7,0.4,1.5,0.6,2.2,0.4l0,0l0.6-0.1l0.2,0.6c0.8,2.3,2.2,4.6,4,6.3c1.8,1.7,4.1,2.8,6.5,2.9c1.3,0.1,2.5,0,3.6-0.3
				c0.5-0.2,1-0.4,1.4-0.8c0.4-0.4,1-0.9,1.6-1.3c1.4-0.8,2.9-1,4.2-1c1.4,0,2.7,0,4,0c5.2,0,10.5-0.4,15.4-1.9
				c2.4-0.7,4.8-1.7,7-3.1c2.1-1.3,4.1-3,5.7-4.9l0,0l0-0.1c0.5-0.5,1-1.3,1.3-2.1c0.3-0.8,0.5-1.6,0.6-2.4c0-0.8,0-1.7-0.3-2.5
				c0-0.2-0.1-0.4-0.2-0.6c-0.1-0.2-0.1-0.3-0.2-0.7c-0.1-0.3-0.2-0.6-0.2-0.9l-0.1-0.8c-0.1-2.1,0.1-3.9,0.1-5.8
				c0-1.9,0-3.8-0.2-5.6c-0.3-3.7-1.3-7.3-3.1-10.5c-0.5-0.8-1-1.6-1.5-2.3l-0.9-1.1l-0.4-0.5l-0.5-0.4c-1.2-1.1-2.9-1.8-4.7-2.1
				c-1.8-0.3-3.6-0.5-5.5-0.4c-1.9,0.1-3.7,0.3-5.6,0.6c-3.7,0.6-7.4,1.5-11.1,2.5c-3.6,1.1-7.3,2.3-10.8,3.6
				c-1.8,0.7-3.6,1.3-5.3,2.1l-2.6,1.1l-1.3,0.6l-0.7,0.3L167.1,234.2l-0.1,0.1C166.9,234.3,167.1,234.2,167.1,234.2z M166,233.2
				c0.1-0.1,0.4-0.3,0.4-0.3l0.2-0.1l0.3-0.1l0.7-0.3l1.3-0.6l2.6-1.1c1.8-0.7,3.6-1.4,5.3-2.1c3.6-1.4,7.2-2.6,10.9-3.7
				c3.7-1.1,7.4-2,11.3-2.6c1.9-0.3,3.8-0.5,5.8-0.6c2-0.1,3.9,0,5.9,0.4c2,0.4,4,1.1,5.6,2.6l0.6,0.5l0.5,0.6l0.9,1.1
				c0.6,0.8,1.1,1.6,1.7,2.5c2,3.5,3,7.4,3.4,11.3c0.2,2,0.2,3.9,0.2,5.8c0,1.9-0.2,3.9-0.1,5.6l0.1,0.6c0,0.2,0.1,0.3,0.1,0.5
				c0,0.1,0.2,0.4,0.2,0.7c0.1,0.3,0.2,0.5,0.3,0.7c0.3,1,0.4,2.1,0.3,3.2c-0.1,1.1-0.3,2.1-0.7,3.1c-0.4,1-0.9,1.8-1.7,2.7l0.1-0.1
				c-1.8,2.1-3.9,3.9-6.2,5.4c-2.3,1.4-4.9,2.5-7.5,3.2c-5.2,1.5-10.6,1.9-15.9,1.9c-1.3,0-2.7,0-3.9,0c-1.2,0-2.5,0.2-3.4,0.7
				c-0.5,0.3-0.9,0.7-1.4,1.2c-0.5,0.5-1.3,0.9-2,1.2c-1.5,0.4-2.9,0.5-4.2,0.4c-2.8-0.1-5.6-1.5-7.5-3.5c-2-2-3.3-4.4-4.2-7
				l0.8,0.5l0,0c-1.1,0.2-2.2-0.1-3.1-0.5c-0.9-0.5-1.7-1-2.4-1.7c-1.4-1.3-2.6-2.7-3.7-4.2c-1.1-1.5-2-3.1-2.8-4.8
				c-0.8-1.7-1.4-3.6-1.4-5.6c0-2,0.9-4,2.2-5.4c1.3-1.5,2.9-2.5,4.5-3.5c0.4-0.2,0.8-0.5,1.1-0.7c0.3-0.3,0.7-0.5,1-0.8
				c0.6-0.6,1.1-1.3,1.6-2c0.5-0.7,0.9-1.5,1.3-2.3c0.2-0.4,0.4-0.8,0.5-1.2l0.2-0.6l0.1-0.3l0-0.2l0-0.1
				C165.8,233.5,165.9,233.3,166,233.2z"/>
		</g>
		<g>
			<path d="M166.2,254.5c0.3,2.7,0.4,5.3,0.6,7.9c0.1,1.3,0.3,2.6,0.5,3.9c0.2,1.3,0.5,2.5,0.8,3.9c-0.9-1-1.5-2.3-1.9-3.6
				c-0.4-1.3-0.7-2.6-0.8-4c-0.1-1.4-0.1-2.7,0-4.1C165.5,257.2,165.8,255.8,166.2,254.5z"/>
		</g>
		<g>
			<path class="st3" d="M168.6,170.9c0,0-6.7,24-4.5,24.7c2.2,0.7,4.2-1.2,7-7c0,0-10.3,31.3-4.5,45.2c0,0,16.3,8.3,30.8-3.8
				c0,0-2.5,9.7-10.8,13.5c0,0,22.8,3.2,32.2-21.3c5.2-13.5-2.5-27.2-2.5-27.2s0.5-22.8-14.3-36.8
				C201.9,158,186.9,174.4,168.6,170.9z"/>
			<path d="M168.8,171.3c0.1-0.1,0.2-0.2,0.2-0.3c0,0,0,0,0,0l0,0l0,0.1l0,0.1l-0.1,0.3l-0.1,0.5l-0.3,1.1l-0.6,2.2l-1.1,4.4
				c-0.7,2.9-1.4,5.8-1.9,8.8c-0.3,1.5-0.5,2.9-0.7,4.4c-0.1,0.7-0.1,1.5,0,2c0,0.1,0.1,0.2,0,0.1c0,0,0.3,0.1,0.4,0.1
				c0.3,0.1,0.6,0,0.9-0.1c1.2-0.4,2.1-1.6,3-2.8c0.8-1.2,1.5-2.5,2.2-3.8l0,0l0.7,0.3c-1.1,3.7-2,7.4-2.9,11.1
				c-0.8,3.7-1.5,7.5-2.1,11.3c-0.5,3.8-0.9,7.6-0.9,11.4c0,1.9,0.1,3.8,0.4,5.6c0.3,1.8,0.7,3.7,1.4,5.3l0,0l-0.4-0.4
				c2.3,1.1,5,1.8,7.6,2.2c2.6,0.4,5.3,0.5,7.9,0.2c1.3-0.1,2.6-0.4,3.9-0.7c1.2-0.4,2.5-0.7,3.7-1.3c2.5-1,4.6-2.5,6.7-4.2l2.4-1.9
				l-0.8,2.8c-0.4,1.6-1,2.9-1.7,4.3c-0.7,1.4-1.5,2.7-2.5,3.9c-0.9,1.2-2,2.4-3.2,3.4c-1.2,1-2.6,1.8-4,2.5l-0.3-1.9
				c1.3,0.2,2.8,0.2,4.2,0.1c0.7,0,1.4-0.1,2.1-0.2c0.7-0.1,1.4-0.2,2.1-0.3c2.8-0.5,5.5-1.4,8-2.7l0.9-0.5l0.9-0.6l1.8-1.1l1.6-1.3
				l0.8-0.7c0.3-0.2,0.5-0.5,0.7-0.7l1.5-1.5c0.5-0.5,0.9-1.1,1.3-1.6l1.3-1.7l1.1-1.8c0.4-0.6,0.7-1.2,1.1-1.8l0.9-1.9l0.9-1.9
				c0.3-0.7,0.5-1.3,0.7-2c0.8-2.7,1.2-5.5,1.2-8.4c0-2.8-0.4-5.7-1.1-8.4c-0.7-2.7-1.7-5.5-3-8l-0.1-0.2l0-0.2
				c0-3.3-0.3-6.7-0.9-9.9c-0.6-3.3-1.4-6.5-2.5-9.7c-1.1-3.2-2.5-6.2-4.3-9.1l-1.4-2.1c-0.5-0.7-1-1.3-1.5-2l-0.8-1l-0.9-0.9
				l-1.7-1.8l0,0l0.5,0c-2.2,2.3-4.6,4.3-7.1,6.1c-2.6,1.8-5.3,3.3-8.1,4.6c-2.9,1.3-5.9,2.1-9,2.6l-2.3,0.3c-0.8,0.1-1.6,0-2.4,0
				l-1.2,0c-0.4,0-0.7-0.1-1-0.1C170.2,171.6,169.5,171.5,168.8,171.3z M168.3,170.4c0.8,0.1,1.7,0.1,2.5,0.2l1.3,0.1l1.1,0
				c0.8,0,1.5,0,2.3,0l2.3-0.2c3-0.4,6-1.2,8.8-2.4c2.8-1.2,5.5-2.7,8-4.4c2.5-1.7,4.9-3.7,7.1-5.9l0.3-0.3l0.2,0.3l0,0l1.8,1.8
				l0.9,0.9l0.8,1c0.5,0.7,1.1,1.3,1.6,2l1.4,2.1c1.8,2.9,3.4,6,4.5,9.2c1.2,3.2,2.1,6.5,2.7,9.9c0.6,3.4,1,6.7,1,10.2l-0.1-0.3
				c1.4,2.7,2.4,5.4,3.2,8.3c0.8,2.9,1.2,5.8,1.3,8.8c0,3-0.3,6-1.2,8.8c-0.2,0.7-0.4,1.4-0.7,2.1l-0.9,2l-0.9,2
				c-0.4,0.7-0.7,1.3-1.1,1.9l-1.1,1.9l-1.3,1.8c-0.5,0.6-0.9,1.2-1.4,1.8l-1.6,1.6c-0.3,0.3-0.5,0.5-0.8,0.8l-0.9,0.7l-1.7,1.4
				c-0.6,0.4-1.3,0.8-1.9,1.2l-0.9,0.6l-1,0.5c-2.6,1.4-5.5,2.4-8.4,3c-0.7,0.2-1.5,0.3-2.2,0.4c-0.7,0.1-1.5,0.2-2.2,0.2
				c-1.5,0.1-3,0.1-4.5-0.1l-3.2-0.4l3-1.5c1.2-0.6,2.5-1.3,3.5-2.2c1.1-0.9,2.1-1.9,2.9-3.1c0.9-1.1,1.6-2.3,2.3-3.6
				c0.6-1.3,1.2-2.6,1.6-3.9l1.6,1c-2.2,1.7-4.6,3.4-7.2,4.4c-1.3,0.6-2.6,1-4,1.4c-1.4,0.3-2.8,0.7-4.2,0.8
				c-2.8,0.3-5.7,0.2-8.4-0.3c-2.8-0.5-5.4-1.3-8.1-2.5l-0.3-0.1l-0.1-0.3l0,0c-1.5-3.8-1.8-7.8-1.8-11.6c0-3.9,0.5-7.8,1.1-11.6
				c0.6-3.8,1.4-7.6,2.4-11.3c0.9-3.7,2-7.4,3.3-11.1l0.7,0.3l0,0c-0.6,1.4-1.3,2.7-2.1,4c-0.4,0.7-0.9,1.3-1.4,1.9
				c-0.5,0.6-1.2,1.1-2,1.4c-0.4,0.1-0.9,0.2-1.3,0.1c-0.1,0-0.2,0-0.3-0.1c-0.1,0-0.2,0-0.4-0.1c-0.5-0.3-0.5-0.6-0.6-0.8
				c-0.2-0.9-0.1-1.7-0.1-2.4c0.1-1.5,0.4-3,0.7-4.5c0.6-3,1.2-5.9,1.9-8.8c0.4-1.5,0.7-2.9,1.1-4.4l0.6-2.2l0.3-1.1l0.2-0.5
				l0.1-0.3l0-0.1l0-0.1l0,0l0,0C168.1,170.6,168.2,170.5,168.3,170.4z"/>
		</g>
		<g>
			<path d="M209.4,185.2c0.9,0.4,1.7,1.1,2.5,1.8c0.7,0.7,1.4,1.5,2,2.3c1.1,1.7,2,3.6,2.4,5.6c-0.6-0.9-1-1.7-1.6-2.6
				c-0.5-0.8-1-1.7-1.6-2.5C211.9,188.2,210.8,186.7,209.4,185.2z"/>
		</g>
		<path class="st6" d="M65.3,167.9c0,0,6.3-8,6.6-12.3c0.3-4.3-1.7-5.8-7.8-9.3s-13-10-19.7-7.2c-5.2,2.2-3.7,8.3-7.7,12.6
			c-5.8,6.1-19.1,12.8-18.9,23.5c0,0,5-6.6,7.3-6.4c0,0-8.3,11.8-6.8,24.4s8.4,11.4,11.3,10c0,0,11.3,4.8,19.1,1.3
			c5.6-2.5,6.5-8.8,6.5-8.8s5.2-2.5,5.8-9.7C61,185.9,72.3,175.6,65.3,167.9z"/>
		<g>
			<path d="M41.2,182.2c1.5,0.8,3.1,1.3,4.7,1.7c1.6,0.4,3.3,0.7,4.9,1c1.6,0.3,3.3,0.4,5,0.6c0.8,0.1,1.7,0.1,2.5,0.2
				c0.9,0.1,1.7,0.1,2.6,0.2c-0.8,0.2-1.7,0.4-2.5,0.5c-0.9,0.1-1.7,0.2-2.6,0.2c-1.7,0.1-3.5,0-5.2-0.2c-1.7-0.3-3.4-0.7-5.1-1.3
				c-0.8-0.3-1.6-0.7-2.3-1.2C42.5,183.4,41.8,182.9,41.2,182.2z"/>
		</g>
		<g>
			<path d="M32.7,192c1.6,1.3,3.3,2.4,5.1,3.2c1.8,0.8,3.7,1.4,5.6,1.6c0.5,0.1,1,0.1,1.5,0.1c0.5,0.1,1,0,1.5,0c0.5,0,1,0,1.5,0
				c0.5-0.1,1-0.1,1.5-0.1c0.5,0,1-0.1,1.5-0.2l1.5-0.3c1-0.2,1.9-0.5,3-0.7c-0.9,0.5-1.8,1-2.8,1.4c-1,0.3-1.9,0.7-3,0.9
				c-2,0.5-4.2,0.5-6.3,0.3c-2.1-0.3-4.1-1-5.9-2.1C35.4,195.1,33.8,193.7,32.7,192z"/>
		</g>
		<g>
			<path d="M23.8,199.5c0.7,0.4,1.3,0.6,1.9,0.9c0.6,0.3,1.2,0.6,1.8,0.9c0.6,0.3,1.2,0.6,1.8,1c0.6,0.4,1.2,0.8,1.7,1.3
				c-0.8,0-1.5-0.1-2.2-0.2c-0.7-0.2-1.4-0.4-2-0.8c-0.6-0.3-1.2-0.7-1.8-1.3C24.5,200.9,24,200.2,23.8,199.5z"/>
		</g>
		<g>
			<path d="M56.6,256.3c-1.1,0.7-2,1.5-2.9,2.3c-0.9,0.8-1.7,1.7-2.3,2.7c-0.6,1-1,2-1,3.1c0,1.1,0.4,2.1,0.9,3.2l-1.1,0.7
				c-0.7-1.1-1.4-2.4-1.4-3.9c0-1.5,0.6-2.8,1.4-3.9c0.8-1.1,1.9-1.9,3-2.6C54.2,257.1,55.4,256.6,56.6,256.3z"/>
		</g>
		<g>
			<path d="M82.1,265.4c-0.3-0.1-0.7-0.1-1-0.1c-0.3,0-0.7,0.1-0.8,0.3c0,0.2,0.3,0.4,0.6,0.5c0.3,0.1,0.6,0.2,0.9,0.3
				c0.6,0.1,1.3,0.2,1.9,0.3c0.7,0.1,1.3,0.2,1.9,0.3c0.3,0,0.6,0.1,0.8,0.1c0.1,0,0.2,0,0.2,0c0,0-0.1,0.1,0,0.2c0,0,0-0.3-0.2-0.5
				c-0.2-0.2-0.4-0.4-0.6-0.6c-0.1-0.1-0.2-0.1-0.4-0.2l-0.5-0.1c-0.3-0.1-0.7-0.1-1-0.2C83.5,265.6,82.8,265.5,82.1,265.4z
				 M82.1,265.4c0.7,0.1,1.3,0,2,0c0.3,0,0.7,0,1-0.1l0.5,0c0.2,0,0.4,0,0.6,0.1c0.4,0.1,0.7,0.3,1,0.6c0.3,0.3,0.6,0.5,0.7,1.2
				c0,0.2,0,0.4-0.2,0.6c-0.1,0.2-0.3,0.3-0.4,0.4c-0.3,0.2-0.5,0.2-0.7,0.3c-0.4,0.1-0.8,0-1.2,0c-0.4-0.1-0.7-0.1-1.1-0.2
				c-0.3-0.1-0.7-0.2-1-0.3c-0.6-0.2-1.3-0.5-1.9-0.9c-0.3-0.2-0.6-0.4-0.9-0.6c-0.1-0.1-0.3-0.2-0.4-0.4c-0.1-0.1-0.2-0.4-0.2-0.6
				c0.1-0.2,0.3-0.3,0.5-0.3c0.2,0,0.3,0,0.5,0C81.5,265.3,81.8,265.4,82.1,265.4z"/>
		</g>
		<g>
			<path d="M54.6,261c1.1-0.2,2.3-0.2,3.4-0.1c0.6,0.1,1.2,0.2,1.7,0.3c0.6,0.2,1.2,0.3,1.8,0.9c0.2,0.1,0.3,0.4,0.4,0.7
				c0,0.1,0.1,0.3,0.1,0.5c0,0.1,0,0.2,0,0.2l0,0.1c-0.1,0.3-0.2,0.7-0.4,1c-0.2,0.3-0.5,0.6-0.8,0.8c-0.3,0.2-0.7,0.3-1.1,0.3
				c-0.8,0-1.3-0.3-1.8-0.7c-0.5-0.4-0.8-0.8-1.2-1.3c0.5,0.2,1,0.5,1.5,0.7c0.5,0.2,1,0.3,1.4,0.2c0.4-0.1,0.6-0.3,0.8-0.7
				c0.1-0.2,0.2-0.4,0.2-0.6l0-0.1c0,0,0,0,0,0c0,0,0,0,0,0c0,0,0,0-0.1,0c-0.2-0.2-0.7-0.4-1.2-0.6c-0.5-0.2-1-0.4-1.5-0.5
				C56.7,261.8,55.6,261.4,54.6,261z"/>
		</g>
		<g>
			<path d="M39.9,261c0.4,0.9,0.5,1.6,0.6,2.3c0.1,0.3,0.1,0.7,0.1,1l0.2,1.2c-1-0.1-1.7-1.1-1.8-2c-0.1-0.5,0-0.9,0.1-1.4
				C39.3,261.8,39.5,261.4,39.9,261z"/>
		</g>
		<g>
			<path d="M37.6,252.8c-1,1.4-2,2.6-2.9,3.8c-0.4,0.6-0.9,1.2-1.2,1.9c-0.3,0.7-0.5,1.4-0.6,2.2c-0.5-0.7-0.6-1.7-0.5-2.6
				c0.1-0.9,0.6-1.7,1.1-2.4c0.5-0.7,1.1-1.3,1.8-1.8C36,253.4,36.8,253,37.6,252.8z"/>
		</g>
		<g>
			<path d="M41.8,259.8c1.1-0.4,2.3-0.6,3.5-0.7c0.6,0,1.2,0,1.9,0.1c0.3,0.1,0.7,0.1,1.2,0.6c0.1,0.1,0.1,0.1,0.2,0.2
				c0,0.1,0.1,0.2,0.1,0.3l0,0.3c0,0.2,0,0.4,0,0.6c0,0.2-0.1,0.6-0.4,0.8c-0.2,0.2-0.5,0.3-0.7,0.4c-0.4,0.1-0.7,0.1-1.1,0.1
				l-0.5,0c-0.2,0-0.4,0-0.5-0.1c-0.3-0.1-0.6-0.2-0.9-0.3C43.5,261.5,42.6,260.7,41.8,259.8z M41.8,259.8c1.1,0.4,2.2,0.9,3.2,1.2
				c0.3,0.1,0.5,0.1,0.7,0.1c0.1,0,0.2,0,0.3,0l0.4,0c0.3,0,0.5-0.1,0.7-0.1c0.1,0,0.1,0,0.1,0c0,0,0,0.1,0,0c0,0,0-0.1,0-0.2l0-0.2
				c0-0.1,0,0,0,0c0,0,0,0,0,0.1c0.1,0.1-0.1-0.1-0.3-0.1c-0.5-0.1-1-0.2-1.6-0.3C44.1,260.1,43,260,41.8,259.8z"/>
		</g>
		<g>
			<path d="M35.7,256.3c0.8-0.4,1.7-0.6,2.7-0.6c0.5,0,0.9,0,1.5,0.2c0.3,0.1,0.6,0.2,0.9,0.6c0.2,0.2,0.2,0.4,0.3,0.7
				c0,0.3,0,0.4-0.1,0.7c-0.2,0.4-0.6,0.7-0.9,0.8c-0.3,0.1-0.6,0.1-0.9,0.1c-0.6,0-1-0.2-1.5-0.4C36.8,257.9,36,257.2,35.7,256.3z
				 M35.7,256.3c0.8,0.5,1.5,0.8,2.3,0.9c0.4,0.1,0.8,0.1,1.1,0.1c0.2,0,0.3,0,0.4-0.1c0.1,0,0.1-0.1,0.1,0c0,0,0,0,0,0
				c0,0,0,0.1,0,0.1c0,0-0.1-0.1-0.2-0.1c-0.3-0.1-0.7-0.2-1.1-0.3C37.5,256.6,36.6,256.5,35.7,256.3z"/>
		</g>
		<g>
			<path d="M168.6,170.9c-0.4-2.7-0.8-5.4-1.2-8.1c-0.4-2.7-0.8-5.4-1.2-8.1c-0.4-2.7-0.7-5.4-1-8.1c-0.3-2.7-0.6-5.4-0.7-8.2
				c0.8,2.6,1.3,5.3,1.9,8c0.5,2.7,1,5.4,1.4,8.1c0.4,2.7,0.7,5.4,0.9,8.2C168.7,165.4,168.8,168.1,168.6,170.9z"/>
		</g>
		<g>
			<path class="st7" d="M111.4,132.7c0,0,9.3,26.3,19.9,31.5c0,0,15.4-10,23.6-28.7S111.4,132.7,111.4,132.7z"/>
			<g>
				<path d="M111.4,132.7c2.4,5.8,5.1,11.6,8.3,17c1.6,2.7,3.3,5.3,5.2,7.8c1.9,2.4,4.1,4.7,6.8,6l-0.9,0c2.9-2.1,5.7-4.5,8.3-7.1
					c2.6-2.6,5-5.4,7.2-8.3c2.2-2.9,4.2-6,5.9-9.3c0.4-0.8,0.8-1.6,1.2-2.5l0.6-1.2c0.2-0.4,0.3-0.8,0.5-1.2
					c0.5-1.6,0.6-3.3-0.5-4.3c-1-1.1-2.7-1.7-4.5-2c-1.7-0.3-3.6-0.4-5.4-0.4c-3.7,0-7.3,0.5-11,1
					C125.8,129.3,118.6,130.9,111.4,132.7z M111.4,132.7c3.5-1.2,7.1-2.3,10.7-3.2c3.6-1,7.2-1.8,10.9-2.5c3.7-0.7,7.4-1.2,11.1-1.3
					c1.9-0.1,3.8,0,5.7,0.3c1,0.2,1.9,0.4,2.9,0.7c0.9,0.4,1.9,0.9,2.7,1.7c0.8,0.8,1.2,2,1.3,3c0.1,1.1-0.1,2.1-0.4,3.1
					c-0.1,0.5-0.3,0.9-0.5,1.4l-0.6,1.3c-0.4,0.8-0.8,1.7-1.2,2.5c-1.7,3.3-3.8,6.5-6,9.5c-4.5,6-9.9,11.3-16.1,15.7l-0.4,0.3
					l-0.4-0.2c-3-1.6-5.2-4.1-7.1-6.7c-1.9-2.6-3.6-5.3-5-8.1c-1.5-2.8-2.8-5.7-4-8.6C113.5,138.7,112.3,135.7,111.4,132.7z"/>
			</g>
		</g>
		<g>
			<path class="st8" d="M117.6,126.6c0,0,4.4,23.3,13.4,27.8c0,0,13.1-8.5,20-24.4C157.9,114.1,117.6,126.6,117.6,126.6z"/>
			<g>
				<path d="M117.6,126.6c1.3,5.1,2.9,10.1,4.9,15c1,2.4,2.2,4.7,3.6,6.9c1.4,2.1,3.1,4.1,5.2,5.2l-0.9,0c2.4-1.7,4.6-3.7,6.7-5.8
					c2.1-2.1,4.1-4.3,5.9-6.7c0.9-1.2,1.7-2.4,2.6-3.6c0.8-1.3,1.6-2.5,2.3-3.8c0.8-1.3,1.4-2.6,2-4c0.6-1.3,1-2.6,0.8-3.8
					c-0.2-1.1-1.2-2-2.4-2.5c-1.3-0.5-2.7-0.7-4.2-0.8c-2.9-0.2-5.9,0.1-8.9,0.4C129.4,123.9,123.5,125.1,117.6,126.6z M117.6,126.6
					c2.8-1,5.7-1.9,8.7-2.7c2.9-0.8,5.9-1.5,8.9-2c3-0.5,6-0.9,9.1-0.8c1.6,0.1,3.1,0.2,4.7,0.8c0.8,0.3,1.6,0.7,2.2,1.3
					c0.7,0.6,1.2,1.5,1.4,2.4c0.4,1.8-0.2,3.5-0.8,4.9c-0.7,1.4-1.3,2.8-2,4.1c-1.5,2.7-3.1,5.3-5,7.7c-3.8,4.8-8.1,9.2-13.3,12.7
					l-0.4,0.3l-0.4-0.2c-1.3-0.7-2.4-1.6-3.3-2.6c-0.9-1-1.7-2.2-2.4-3.3c-1.4-2.3-2.5-4.8-3.4-7.3c-0.9-2.5-1.7-5-2.3-7.6
					C118.5,131.8,118,129.2,117.6,126.6z"/>
			</g>
		</g>
		<g>
			<path class="st7" d="M135.7,186.6h12.1c0,0-1.3-16-17.4-16.7s-23.2,15.8-22.4,25c0.6,7.3,1.5,16.8,15.5,20.5s25-13.7,23.7-22.7
				c0,0-6.9,1.1-12.5,0.8c-5.6-0.3-8.9-0.6-8.9-0.6l-0.1,7.9c0,0,4.2,2.8,9,2.3c0,0-5.2,4.9-10.7,1.3c-5.5-3.6-5.5-17-0.1-20.9
				C129.3,179.5,133.6,182.2,135.7,186.6z"/>
			<g>
				<path d="M135.7,186.6l12.1-0.1l-0.1,0.1c-0.3-2.7-1.2-5.3-2.5-7.6c-1.3-2.3-3.1-4.4-5.3-5.9c-4.5-2.9-10.2-3.5-15.4-2.3
					c-5.2,1.3-9.6,4.9-12.3,9.5c-1.4,2.3-2.4,4.8-3.1,7.3c-0.7,2.6-1,5.2-0.7,7.9c0.2,2.7,0.6,5.3,1.4,7.9c0.8,2.5,2.2,4.8,4.1,6.6
					c1.9,1.8,4.3,3.1,6.8,4c0.6,0.3,1.3,0.4,1.9,0.6l1,0.3l1,0.2c1.3,0.2,2.6,0.3,3.9,0.2c2.6-0.2,5.1-1.2,7.3-2.6
					c2.2-1.4,4.2-3.3,5.8-5.4c1.6-2.1,2.9-4.4,3.9-6.9c0.9-2.5,1.5-5.1,1.2-7.7l0.5,0.4c-3.6,0.5-7.1,0.8-10.7,0.8
					c-1.8,0-3.6-0.2-5.4-0.3l-5.4-0.4l0.5-0.4l-0.2,7.9l-0.2-0.3c1.3,0.8,2.7,1.4,4.2,1.8c0.7,0.2,1.5,0.3,2.3,0.4
					c0.8,0.1,1.5,0.1,2.3,0l1.1-0.1l-0.8,0.7c-1.6,1.4-3.6,2.4-5.7,2.6c-1.1,0.1-2.1,0-3.2-0.3c-1-0.4-2-0.8-2.8-1.5
					c-1.6-1.4-2.6-3.4-3.1-5.4c-0.5-2-0.6-4.1-0.5-6.2c0.2-2.1,0.6-4.1,1.5-6c0.2-0.5,0.5-0.9,0.8-1.3c0.3-0.4,0.6-0.8,1-1.2
					c0.8-0.7,1.6-1.3,2.6-1.7c0.9-0.4,2-0.7,3-0.8c1,0,2.1,0.2,3,0.7C133.5,183,134.8,184.8,135.7,186.6z M135.7,186.6
					c-0.9-1.8-2.3-3.5-4.1-4.4c-0.9-0.4-1.9-0.7-3-0.6c-1,0.1-2,0.4-2.9,0.8c-0.9,0.5-1.8,1-2.5,1.7c-0.4,0.3-0.6,0.8-1,1.2
					c-0.3,0.4-0.5,0.9-0.7,1.3c-0.9,1.8-1.3,3.9-1.4,5.9c-0.1,2,0,4.1,0.6,6c0.5,1.9,1.4,3.8,2.9,5.1c0.7,0.7,1.7,1.1,2.6,1.4
					c0.9,0.3,1.9,0.3,2.9,0.2c2-0.2,3.8-1.2,5.3-2.5l0.3,0.6c-0.8,0.1-1.6,0.1-2.4,0c-0.8-0.1-1.6-0.2-2.4-0.4
					c-0.8-0.2-1.5-0.5-2.3-0.8c-0.7-0.3-1.4-0.7-2.2-1.1l-0.2-0.1l0-0.2l0.1-7.9l0-0.4l0.5,0l5.3,0.3c1.8,0.1,3.6,0.3,5.3,0.3
					c3.5,0,7.1-0.4,10.6-0.9l0.5-0.1l0.1,0.5c0.4,2.8-0.3,5.6-1.2,8.2c-1,2.6-2.3,5-4,7.2c-1.7,2.2-3.7,4.1-6,5.6
					c-2.3,1.5-5,2.5-7.8,2.8c-1.4,0.1-2.8,0-4.2-0.3l-1-0.2l-1-0.3c-0.7-0.2-1.3-0.4-2-0.6c-2.6-0.9-5.1-2.3-7.1-4.2
					c-2-1.9-3.5-4.4-4.4-7c-0.8-2.6-1.2-5.4-1.4-8.1c-0.3-2.7,0-5.5,0.7-8.2c0.7-2.7,1.8-5.2,3.2-7.5c2.8-4.7,7.4-8.4,12.8-9.7
					c0.7-0.2,1.4-0.2,2-0.4l1-0.2l1,0c0.7,0,1.4,0,2.1,0l2,0.2c2.7,0.4,5.4,1.3,7.6,2.9c2.3,1.6,4.1,3.7,5.3,6.1
					c1.3,2.4,2.1,5,2.4,7.8l0,0.1l-0.1,0L135.7,186.6z"/>
			</g>
		</g>
		<path class="st2" d="M154.8,251.7c0,0,0-3,4.2-4.7c4.3-1.7,8.4-2.7,11.1-6.9c0,0,11.4-2.7,15.6-1c0,0,0.3,1.7,0.3,3.4
			c0,0,7.5-3.4,11.2-12.3c0,0-12.6,12.8-31,4.4c0,0-0.6,4.4-4.9,7.5S154.5,247.4,154.8,251.7z"/>
		<path class="st2" d="M205,240.2c0,0,11.4-1,14.6-7.7c0,0-1.6-5.3-2.7-5.7C216.9,226.8,212.3,236.7,205,240.2z"/>
		<path class="st9" d="M167.5,176.2c0,0,6.4,1.2,9.4,0.3c0,0-2.6,1.1-6.5,12.1c0,0-3,7.2-6.1,6.5
			C162.7,194.7,167.5,176.2,167.5,176.2z"/>
		<path class="st9" d="M168.6,200.2c0,0,5.1-11.1,9.1-14.7c0,0-5.3,18-2.8,34c0,0,0.9-6.4,4.7-10.6c0,0-3.1,14.9-2.1,26.5
			c0,0-6.7-0.7-10.1-2.5C167.2,232.9,162.8,222.8,168.6,200.2z"/>
		<path class="st4" d="M146.5,237.2c0,0-0.3,2.9-0.8,4.1c-0.6,1.2,2-2.5,2.4-2.2c0.3,0.3-2.5,5.9-2,5.7c0.5-0.1,4-1.7,4.5-1
			c0.4,0.7-4.8,4.7-4.9,6c-0.1,1.3,3.7-0.4,4.3,0c0.5,0.4-0.8,2.1-2.3,3.4c-1.5,1.3-7,3.9-11,4.1c0,0,2.4-4.4,3.9-6.4
			c1.5-2,3.6-8.5,4.2-14L146.5,237.2z"/>
		<path class="st2" d="M53.9,162.9c0,0,13.9-2,18-8.5c0,0,0.5,2.3-1.8,6.1c-2.3,3.9-4.8,7.4-4.8,7.4L53.9,162.9z"/>
		<path class="st10" d="M81.9,150l10.9-7.5c0,0,0.3,23.6,16.1,39.7c0,0-4.6-0.4-8.1-2.8l1.8,7.2c0,0-15.7,10.8-13.7,19l-6.2-4.9
			l11.8-30.5l-5.2-14.5l-10.8,7.5c0,0,2.1-5.7,2.6-7.7C81.6,154.2,81.9,150,81.9,150z"/>
		<path class="st10" d="M168.1,166c0,0-4,13.5-9.7,19.6c0,0,4.5-1.7,9.1-10.1l1.1-4.6L168.1,166z"/>
		<path class="st9" d="M7.5,160.1c0,0,2.3-3.9,7.4-5.7c0,0-8.2,10.5-6.7,17.6c0,0,2.3-0.8,4-3.3c0,0,1.3,7.9,6.4,11.6
			c0,0-1.8,5-1.3,13.3c0,0-2.8-4-8-7.8C4,181.9,4,169.6,7.5,160.1z"/>
		<g>
			<path class="st1" d="M80.3,85.6c0,0-5.4-8.9-10.8-3.5S64.2,96,66.2,99.8s7,12.3,13.1,11.9C85.4,111.3,84.2,91.4,80.3,85.6z"/>
			<g>
				<path d="M80.3,85.6c-0.9-1.4-2-2.7-3.3-3.7c-1.3-1-2.9-1.7-4.5-1.4c-1.6,0.3-2.9,1.5-3.9,2.8c-1,1.3-1.8,2.7-2.3,4.3
					c-1.1,3.1-1.3,6.4-0.6,9.6c0.2,0.8,0.4,1.5,0.8,2.2c0.4,0.7,0.8,1.4,1.2,2.1c0.8,1.4,1.7,2.8,2.7,4.1c1,1.3,2.1,2.5,3.3,3.5
					c1.2,1,2.6,1.8,4.2,2.1c0.8,0.1,1.6,0.2,2.2-0.1c0.7-0.3,1.2-0.9,1.6-1.6c0.8-1.4,1.2-3,1.4-4.6c0.5-3.2,0.4-6.6,0-9.9
					c-0.2-1.6-0.5-3.3-0.9-4.9C81.7,88.6,81.2,87,80.3,85.6z M80.3,85.6c0.9,1.4,1.4,3,1.9,4.6c0.4,1.6,0.8,3.2,1,4.9
					c0.5,3.3,0.7,6.6,0.3,9.9c-0.2,1.7-0.5,3.3-1.3,4.9c-0.4,0.8-1,1.5-1.8,1.9c-0.4,0.2-0.9,0.3-1.4,0.3c-0.4,0-0.9,0-1.3-0.1
					c-1.7-0.3-3.3-1.1-4.6-2.2c-1.3-1.1-2.5-2.3-3.5-3.6c-1-1.3-1.9-2.8-2.7-4.2c-0.4-0.7-0.8-1.4-1.2-2.2c-0.4-0.8-0.6-1.6-0.8-2.4
					c-0.7-3.3-0.3-6.8,0.9-9.9c0.6-1.6,1.5-3,2.6-4.3c1.1-1.2,2.4-2.4,4.1-2.7c1.7-0.3,3.3,0.5,4.6,1.5
					C78.4,82.9,79.5,84.2,80.3,85.6z"/>
			</g>
		</g>
		<g>
			<path class="st1" d="M185.9,92c0,0,5.5-6.2,10-5c4.5,1.2,6.6,12,3.1,18.5c-4.2,7.8-12.6,11.7-17.4,10.8S185.9,92,185.9,92z"/>
			<g>
				<path d="M185.9,92c1.1-1.3,2.3-2.4,3.7-3.4c1.3-1,2.9-1.8,4.6-2c0.9-0.1,1.7,0,2.6,0.4c0.8,0.4,1.4,1,1.9,1.7c1,1.4,1.6,3,2,4.6
					c0.8,3.3,0.7,6.8-0.3,10c-0.5,1.6-1.4,3.1-2.3,4.5c-1,1.4-2.1,2.7-3.3,3.8c-2.5,2.2-5.5,4-8.9,4.8c-0.8,0.2-1.7,0.3-2.5,0.3
					c-0.4,0-0.9,0-1.3-0.1c-0.4,0-1-0.2-1.4-0.6c-0.7-0.8-0.7-1.8-0.7-2.6c0-0.9,0.1-1.7,0.2-2.5c0.5-3.3,1.4-6.5,2.4-9.7
					C183.5,98.2,184.7,95.1,185.9,92z M185.9,92c-1.1,3.1-2.1,6.3-3,9.4c-0.9,3.2-1.7,6.4-2.1,9.6c-0.1,0.8-0.2,1.6-0.1,2.4
					c0,0.8,0.2,1.6,0.6,2.1c0.2,0.2,0.4,0.3,0.9,0.3c0.4,0.1,0.8,0.1,1.2,0.1c0.8,0,1.6-0.1,2.4-0.3c3.1-0.8,6-2.5,8.4-4.6
					c1.2-1.1,2.3-2.3,3.2-3.6c0.9-1.3,1.8-2.7,2.2-4.2c1-3.1,1-6.4,0.4-9.6c-0.3-1.6-0.9-3.1-1.8-4.4c-0.4-0.7-1-1.2-1.7-1.6
					c-0.7-0.4-1.5-0.5-2.3-0.4c-1.6,0.1-3.1,0.9-4.5,1.8C188.4,89.8,187.1,90.9,185.9,92z"/>
			</g>
		</g>
		<g>
			<path class="st3" d="M130,18.3c0,0-17.5-1.2-36.9,12.2s-20.9,37.7-11,62.9c0,0-8.1,6.2-7.6,11.1c0,0-0.1,2.5,4,0c0,0-3.5,7-1,8.4
				s3.8-2.9,3.8-2.9s-0.5,5.6,6.6,6.1s85.8,7,85.8,7s-0.3,3.5,2.3,2.8s3.4-5.7,3.4-5.7s3.5,1.4,4.3-0.8c0.8-2.2-1.3-7.6-1.3-7.6
				s1.9,1.5,3.4,0.7c1.5-0.8-2.8-7.9-2.8-7.9s9.6-23,8.3-49c-1.3-26-31.1-34.5-37.3-35.3c0,0,5-0.1,5.5-3.1s-6.6-1.7-9.7,0
				c0,0,4.3-6.4,1.2-7.1s-6,6.1-6,6.1s-5.3-17-11.8-14.7c-4.4,1.6,3.8,11.1,3.8,11.1s-14.3-5.9-17.4-1.1
				C117.5,14.6,130,18.3,130,18.3z"/>
			<path d="M130.4,18.4c0,0.1-0.1,0.2-0.3,0.3c-0.1,0.1-0.4,0.1-0.4,0.1l-0.2,0l-0.4,0l-0.8,0c-0.6,0-1.1,0-1.7,0.1
				c-1.1,0.1-2.2,0.2-3.4,0.3c-2.2,0.3-4.4,0.7-6.6,1.2c-4.4,1.1-8.6,2.6-12.7,4.5c-4.1,1.9-8,4.2-11.6,6.9
				c-3.6,2.6-6.7,5.9-9.2,9.7c-2.4,3.7-4.2,7.9-5.2,12.2c-1,4.4-1.3,8.9-1.2,13.3c0.3,9,2.7,17.8,5.9,26.2l0.2,0.5l-0.4,0.3l0,0
				c-1.7,1.4-3.4,3-4.8,4.8c-0.7,0.9-1.3,1.8-1.8,2.8c-0.5,1-0.8,2-0.7,2.9l0,0.1c0,0,0,0.2,0.1,0.2c0,0,0,0,0.1,0.1
				c0.1,0,0.4,0,0.7,0c0.3-0.1,0.7-0.2,1-0.4c0.3-0.2,0.7-0.4,1-0.5l2.3-1.3l-1.1,2.3c-0.5,1-0.9,2.1-1.3,3.2
				c-0.3,1.1-0.6,2.3-0.5,3.2c0.1,0.5,0.2,0.7,0.5,0.8c0.4,0.2,0.6,0.2,0.9,0c0.6-0.3,1.2-1.5,1.5-2.4l2-6.3l-0.2,6.7
				c0,0.7,0.2,1.7,0.6,2.4c0.4,0.7,1,1.3,1.7,1.8c0.7,0.5,1.6,0.7,2.5,0.8c0.9,0.1,1.9,0.2,2.9,0.3l12,1l24,1.9l47.9,3.9l1,0.1
				l-0.1,1c0,0.3,0,0.8,0.1,1.1c0.1,0.3,0.2,0.6,0.3,0.6c0.1,0.1,0.3,0.1,0.6,0.1c0.3-0.1,0.5-0.2,0.8-0.4c0.5-0.4,0.9-1.2,1.3-2
				c0.3-0.8,0.6-1.7,0.7-2.5l0.2-1.2l1.1,0.4c0.8,0.3,1.9,0.5,2.5,0.3c0.3-0.1,0.4-0.2,0.5-0.5c0.1-0.3,0.2-0.7,0.1-1.2
				c0-0.9-0.2-1.9-0.5-2.9c-0.3-1-0.6-2-0.9-2.9l-1.1-3l2.6,1.9c0.6,0.5,1.6,0.8,2.1,0.7c0.1,0,0.1,0,0.2-0.1l0.1,0
				c-0.1,0-0.1,0.1-0.1,0.1c-0.1,0.2,0,0.1,0-0.1c0-0.3-0.1-0.8-0.3-1.3c-0.6-1.8-1.6-3.6-2.6-5.4l-0.2-0.4l0.2-0.4
				c1.6-4,2.9-8.2,4-12.4c1.1-4.2,2.1-8.5,2.8-12.8c1.4-8.6,2.1-17.4,1.3-26c-0.3-2.1-0.8-4.2-1.5-6.3c-0.7-2-1.7-4-2.8-5.8
				c-2.3-3.7-5.3-6.9-8.6-9.5c-3.4-2.7-7.2-4.9-11.2-6.7c-2-0.9-4-1.7-6.1-2.3c-2.1-0.7-4.2-1.3-6.3-1.6l-5.3-0.8l5.3-0.3
				c1.4-0.1,2.9-0.4,3.9-1.1c0.5-0.4,0.9-0.9,1-1.4c0.1-0.6-0.1-0.8-0.7-1.1c-1.2-0.4-2.7-0.2-4.1,0.1c-1.4,0.3-2.8,0.7-4.1,1.4
				l-1.8,0.9l1.1-1.7c0.8-1.2,1.5-2.4,1.9-3.7c0.2-0.6,0.4-1.3,0.3-1.9c0-0.3-0.2-0.5-0.3-0.6c-0.2-0.1-0.5-0.2-0.8-0.2
				c-0.6,0-1.2,0.3-1.7,0.7c-0.5,0.4-1,0.9-1.4,1.5c-0.8,1.1-1.5,2.4-2.1,3.6l-0.4,1l-0.3-1c-0.8-2.6-1.9-5.2-3.1-7.7
				c-0.6-1.2-1.3-2.4-2.1-3.5c-0.8-1.1-1.7-2.2-2.8-2.9c-0.6-0.4-1.2-0.6-1.8-0.6c-0.6,0-1.3,0.1-1.8,0.4c-0.5,0.3-0.7,1-0.7,1.6
				c0,0.6,0.2,1.3,0.5,1.9c1.1,2.5,2.7,4.8,4.5,7l0.5,0.6l-0.7-0.3l0,0c-2.5-0.9-5-1.7-7.6-2.2c-1.3-0.3-2.6-0.5-3.9-0.5
				c-1.3-0.1-2.6,0-3.8,0.4c-0.6,0.2-1.1,0.5-1.5,1c-0.4,0.5-0.5,0.8-0.2,1.3c0.6,0.9,1.8,1.6,2.9,2.3c1.1,0.6,2.3,1.1,3.6,1.6
				c0.6,0.2,1.2,0.5,1.8,0.7l0.9,0.3l0.5,0.2l0.2,0.1l0.1,0l0.1,0l0,0c0,0,0,0,0.1,0C130.3,18,130.5,18.3,130.4,18.4z M129.5,18.3
				c-0.1,0.1,0,0.4,0.2,0.5c0.1,0,0.1,0,0.1,0l0,0l-0.1,0l-0.1,0l-0.2-0.1l-0.5-0.2l-0.9-0.3c-0.6-0.2-1.3-0.5-1.9-0.7
				c-1.2-0.5-2.5-1-3.7-1.7c-0.6-0.3-1.2-0.7-1.7-1.1c-0.6-0.4-1.1-0.9-1.5-1.6c-0.2-0.3-0.3-0.8-0.2-1.3c0-0.2,0.1-0.4,0.2-0.6
				c0.1-0.2,0.2-0.3,0.3-0.4c0.5-0.6,1.2-0.9,1.8-1.1c1.4-0.5,2.7-0.5,4.1-0.4c1.3,0.1,2.7,0.3,4,0.6c2.6,0.6,5.1,1.5,7.6,2.5l0,0
				l-0.2,0.3c-1.8-2.2-3.5-4.4-4.6-7c-0.3-0.7-0.5-1.4-0.5-2.1c-0.1-0.7,0.2-1.6,0.9-2.1c1.3-0.9,3-0.6,4.3,0.1
				c1.3,0.8,2.2,1.9,3.1,3c0.8,1.1,1.6,2.4,2.2,3.6c1.3,2.5,2.4,5.1,3.3,7.8l-0.8,0c0.6-1.4,1.3-2.6,2.2-3.8
				c0.5-0.6,0.9-1.2,1.5-1.7c0.6-0.5,1.4-0.9,2.2-0.9c0.4,0,0.9,0.1,1.3,0.4c0.4,0.3,0.6,0.8,0.7,1.2c0.1,0.9-0.1,1.6-0.3,2.3
				c-0.5,1.4-1.2,2.7-2,4l-0.7-0.7c1.4-0.8,2.8-1.2,4.3-1.5c0.7-0.2,1.5-0.3,2.3-0.3c0.8,0,1.6,0,2.4,0.2c0.4,0.1,0.9,0.4,1.2,0.8
				c0.3,0.5,0.3,1.1,0.2,1.5c-0.2,0.9-0.8,1.6-1.5,2.1c-1.4,0.9-3,1.2-4.5,1.3l0.1-1.1c2.2,0.3,4.4,0.9,6.5,1.6
				c2.1,0.7,4.2,1.5,6.2,2.4c4.1,1.8,7.9,4,11.5,6.8c3.5,2.7,6.6,6,9,9.8c1.2,1.9,2.2,3.9,2.9,6c0.7,2.1,1.3,4.3,1.6,6.5
				c0.9,8.9,0.2,17.7-1.1,26.5c-0.7,4.4-1.6,8.7-2.7,13c-1.1,4.3-2.4,8.5-4,12.7l-0.1-0.8c0.5,0.9,1,1.8,1.5,2.8
				c0.5,0.9,0.9,1.9,1.3,2.9c0.2,0.5,0.4,1.1,0.4,1.8c0,0.3,0,0.8-0.4,1.4c-0.1,0.1-0.3,0.2-0.4,0.3l-0.3,0.1
				c-0.2,0.1-0.4,0.1-0.5,0.2c-0.7,0.2-1.4,0-2-0.2c-0.6-0.2-1.1-0.5-1.6-0.9l1.4-1.1c0.4,1,0.7,2.1,1,3.1c0.3,1.1,0.5,2.1,0.6,3.3
				c0,0.6,0,1.2-0.3,2c-0.3,0.7-1,1.4-1.7,1.6c-0.7,0.2-1.4,0.2-2,0.1c-0.6-0.1-1.2-0.2-1.8-0.4l1.3-0.8c-0.2,1-0.4,2-0.8,2.9
				c-0.4,0.9-0.9,1.9-1.8,2.7c-0.4,0.4-1.1,0.7-1.7,0.8c-0.6,0.1-1.5,0.1-2.1-0.4c-0.7-0.5-0.9-1.2-1.1-1.8
				c-0.1-0.6-0.2-1.1-0.1-1.7l0.9,1.1l-47.9-4l-24-2l-12-1c-1-0.1-2-0.1-3.1-0.3c-1.1-0.2-2.2-0.5-3.1-1.1c-1-0.6-1.9-1.5-2.4-2.5
				c-0.5-1.1-0.8-2.1-0.7-3.4l1.8,0.3c-0.2,0.7-0.5,1.3-0.8,1.9c-0.4,0.6-0.8,1.2-1.6,1.6c-0.4,0.2-0.9,0.3-1.3,0.3
				c-0.2,0-0.4-0.1-0.7-0.1c-0.2-0.1-0.4-0.2-0.6-0.2c-0.4-0.2-0.8-0.6-1-1c-0.2-0.4-0.3-0.8-0.4-1.2c-0.2-1.5,0.2-2.7,0.6-3.9
				c0.4-1.2,0.9-2.3,1.4-3.5l1.2,1.1c-0.4,0.2-0.7,0.4-1.2,0.6c-0.4,0.2-0.8,0.4-1.3,0.5c-0.5,0.1-1,0.2-1.7-0.1
				c-0.3-0.1-0.6-0.4-0.8-0.8c-0.2-0.3-0.2-0.6-0.2-1l0,0.1c-0.1-1.4,0.3-2.7,0.9-3.8c0.5-1.1,1.2-2.1,2-3c0.8-0.9,1.6-1.8,2.4-2.6
				c0.9-0.8,1.7-1.6,2.7-2.3l0,0l-0.2,0.8c-3.2-8.5-5.6-17.5-5.9-26.6c-0.1-4.6,0.2-9.2,1.2-13.7c1.1-4.5,2.9-8.8,5.5-12.6
				c2.5-3.8,5.7-7.3,9.5-9.9c3.7-2.7,7.6-5,11.8-7c4.1-1.9,8.5-3.5,12.9-4.5c2.2-0.5,4.5-0.9,6.7-1.2c1.1-0.1,2.3-0.2,3.4-0.3
				c0.6,0,1.1,0,1.7-0.1l0.9,0l0.4,0l0.2,0c0,0-0.1,0-0.2,0.1C129.5,18,129.4,18.2,129.5,18.3z"/>
		</g>
		<g>
			<path class="st1" d="M91.5,92.6c0,0-10,4.1-7,14.9s23.4,31.3,49.9,32.5s44.4-18.3,46.1-31.6c0.9-7.3-3.9-10.6-3.9-10.6
				S189.3,71,179,59.1s-23.8-8.1-31.1-0.6c0,0,0.9,3.1-1.2,2.8c-2.1-0.3-4.7-2-4.7-2s2.8,12.8-2.9,14s-4.1-9.6-4.1-9.6
				s-1.4,5-4.8,3.7c-3.4-1.3-0.5-7.9-0.5-7.9s-11.7-12.2-27.5-8S85,79.4,91.5,92.6z"/>
			<path d="M91.5,92.6c-2.9,1.4-5.4,3.6-6.6,6.6c-0.6,1.5-0.9,3.1-0.9,4.6c0.1,0.8,0.1,1.6,0.3,2.4l0.3,1.2c0.1,0.4,0.3,0.7,0.4,1.1
				c1.1,3,2.9,5.7,4.8,8.2c2,2.5,4.2,4.8,6.6,6.9c9.5,8.5,21.4,14.3,34.1,15.8c6.3,0.8,12.7,0.4,18.9-1.3c6.1-1.7,11.9-4.5,16.9-8.4
				c0.6-0.5,1.2-1,1.8-1.5c0.6-0.5,1.2-1,1.8-1.6c1.1-1.1,2.2-2.2,3.2-3.5c2.1-2.4,3.8-5.1,5.1-7.9c1.3-2.8,2.3-5.9,2.2-9
				c-0.1-3.1-1.5-6.2-3.8-8l-0.3-0.2l0.1-0.3c2.6-5.7,4.5-11.8,5.6-17.9c0.5-3.1,0.8-6.2,0.6-9.3c-0.1-1.6-0.3-3.1-0.7-4.6
				c-0.4-1.5-1-2.9-1.7-4.2c-3.4-5.1-9-9-15.2-9.4c-3.1-0.2-6.2,0.4-9,1.6c-2.8,1.2-5.5,3-7.7,5.2l0.1-0.4c0.2,0.8,0.3,1.6,0,2.5
				c-0.1,0.5-0.7,0.9-1.2,0.9c-0.5,0-0.9-0.1-1.2-0.2c-1.5-0.4-2.8-1.1-4.1-1.9l0.6-0.4l0,0c0.6,2.3,1,4.6,1,7c0,1.2,0,2.4-0.3,3.6
				c-0.3,1.2-0.8,2.5-1.9,3.5c-0.6,0.5-1.3,0.8-2,0.9c-0.7,0.1-1.4,0.1-2.2-0.1c-0.7-0.3-1.4-0.8-1.7-1.4c-0.4-0.6-0.6-1.2-0.8-1.8
				c-0.6-2.5-0.3-4.9,0.2-7.2l0.7,0.1l0,0c-0.3,1.3-0.9,2.6-2,3.6c-0.6,0.5-1.4,0.8-2.2,0.7c-0.4,0-0.8-0.1-1.1-0.2
				c-0.3-0.2-0.7-0.3-1-0.6c-0.6-0.6-0.9-1.3-1-2c-0.1-0.7-0.1-1.4,0.1-2.1c0.2-1.3,0.7-2.6,1.3-3.8l0.1,0.3l0,0
				c-4.7-4.3-10.7-7.4-16.9-8.2c-3.1-0.4-6.4-0.3-9.4,0.5c-3.1,0.6-5.9,2.2-8.2,4.4c-2.2,2.2-3.8,5.1-4.9,8.1c-1,3-1.6,6.2-1.8,9.4
				c-0.2,3.2,0,6.4,0.5,9.6C89.2,86.5,90.1,89.7,91.5,92.6z M91.5,92.6c-2.9-5.8-4.1-12.4-3.9-18.9c0.1-3.3,0.6-6.5,1.7-9.6
				c1.1-3.1,2.7-6.1,5-8.5c2.3-2.4,5.4-4.1,8.6-4.8c3.2-0.8,6.6-0.9,9.8-0.5c6.6,1,12.6,4.3,17.2,8.9l0,0l0.1,0.1l-0.1,0.2
				c-0.4,1.2-0.7,2.5-0.9,3.7c-0.1,0.6-0.1,1.2,0,1.8c0.1,0.6,0.3,1.1,0.7,1.4c0.2,0.2,0.4,0.3,0.6,0.4c0.3,0.1,0.5,0.2,0.8,0.2
				c0.5,0,1-0.1,1.5-0.5c0.9-0.7,1.6-1.8,2-2.9l0,0l0.7,0.1c0,1.1,0,2.3,0.1,3.4c0.1,1.1,0.3,2.2,0.6,3.2c0.3,1,0.9,1.8,1.6,2
				c0.4,0.1,0.8,0.1,1.2,0c0.4-0.1,0.8-0.3,1.2-0.5c0.7-0.5,1.1-1.5,1.4-2.5c0.3-1,0.4-2.1,0.5-3.2c0.1-2.2,0-4.5-0.3-6.8l0,0
				l-0.2-0.9l0.8,0.5c1.2,0.7,2.5,1.4,3.9,1.8c0.3,0.1,0.7,0.2,0.9,0.1c0.3,0,0.4-0.1,0.5-0.4c0.2-0.5,0.1-1.3-0.1-1.9l-0.1-0.2
				l0.2-0.2c2.3-2.3,5-4.2,7.9-5.4c3-1.3,6.2-1.9,9.5-1.7c3.2,0.2,6.4,1.3,9.1,3.1c0.7,0.4,1.4,0.9,2,1.4c0.6,0.5,1.3,1,1.8,1.6
				c0.6,0.6,1.1,1.1,1.7,1.8l0.8,1c0.2,0.3,0.4,0.7,0.7,1c0.8,1.4,1.4,2.9,1.9,4.5c0.4,1.6,0.6,3.2,0.7,4.8c0.2,3.2-0.1,6.4-0.7,9.6
				c-1.2,6.3-3.2,12.3-5.8,18.1l-0.1-0.5c2.6,2.1,4.1,5.4,4.1,8.7c0.1,3.3-0.9,6.5-2.3,9.4c-1.4,2.9-3.1,5.6-5.2,8.1
				c-1,1.3-2.2,2.4-3.3,3.5c-0.6,0.6-1.2,1.1-1.8,1.6c-0.6,0.5-1.2,1.1-1.8,1.5c-5.1,3.9-10.9,6.8-17.1,8.4
				c-6.2,1.7-12.7,2-19.1,1.2c-12.7-1.6-24.7-7.5-34.2-16.1c-2.4-2.1-4.5-4.5-6.6-7c-1.9-2.5-3.7-5.2-4.8-8.2
				c-0.1-0.4-0.3-0.7-0.4-1.1l-0.2-1.2c-0.2-0.8-0.2-1.6-0.3-2.4c0-1.6,0.3-3.2,0.9-4.7C86.1,96.2,88.6,94,91.5,92.6z"/>
		</g>
		<path class="st11" d="M149.8,98.2c0,0,13.2-2.1,19.5-1.4c0,0,7.8-11.3,0.8-22.3c-7.1-11-17.4-6.9-17.4-6.9S144.1,81.2,149.8,98.2z
			"/>
		<path d="M153.3,65.8c0,0-2.8,1.3-3.3,2.8c0,0,13.6-4.3,19.8,7.4c5.6,10.6-1,20.5-1,20.5h1.4c0,0,5.7-7.6,2.8-17.3
			C170.1,69.4,163.4,64.8,153.3,65.8z"/>
		<path class="st12" d="M149.2,98.5c0,0,13.8-3.5,23.8-0.8"/>
		<circle class="st13" cx="156.1" cy="87.7" r="5.9"/>
		<circle class="st14" cx="154.9" cy="86.3" r="2.4"/>
		<path class="st11" d="M99.3,91.1c0,0,4.5,0.1,8.7,1.4c5.4,1.6,9.2,3.3,12.8,1.8c0,0,2.3-4.2,2-9.1c-0.3-4.9-1.7-14.6-5.7-17.6
			c-3.4-2.6-16.1-0.3-18.9,9.3C96.2,83.5,99.3,91.1,99.3,91.1z"/>
		<path d="M99.9,90.9c0,0-3.5-10.9,0.9-17.7s14.4-7.8,19.2-4.1c0,0-0.2-1.9-0.5-2.1s-4.1-2.7-10.3-1.7c-6.7,1.1-11.7,5.5-12.4,12.8
			c-0.6,6.6,1.9,12.8,1.9,12.8H99.9z"/>
		<path class="st12" d="M95.7,91.5c0,0,4.6-1.3,13.7,1.4s8.4,2.4,12.2,1"/>
		<g>
			<path d="M124.3,101.3c-1.1,0.1-2.2,0-3.2-0.4c-0.5-0.2-1-0.4-1.5-0.7c-0.4-0.3-0.8-0.8-1.1-1.3c-0.4-1.2,0.1-2.4,0.7-3.3
				c0.6-0.9,1.4-1.8,2.2-2.5c1.7-1.4,3.6-2.5,5.7-3.2c2.1-0.7,4.3-0.9,6.5-0.9c2.2,0,4.4,0.3,6.5,0.9c2.1,0.6,4.2,1.5,5.9,2.9
				c0.9,0.7,1.6,1.5,2.2,2.4c0.6,0.9,1.1,1.9,1.4,3c0.2,1.1,0.1,2.3-0.6,3.2c-0.6,0.9-1.6,1.6-2.6,1.8c1-0.3,1.9-1.1,2.4-2
				c0.5-0.9,0.6-2,0.3-3c-0.6-2-2-3.7-3.6-4.9c-3.3-2.5-7.7-3.4-11.8-3.4c-2.1,0-4.2,0.2-6.2,0.8c-2,0.6-3.9,1.6-5.5,2.9
				c-0.8,0.6-1.6,1.4-2.2,2.2c-0.6,0.8-1,1.8-0.7,2.8c0.2,0.5,0.5,0.9,0.8,1.2c0.4,0.3,0.8,0.6,1.3,0.8
				C122.2,101.1,123.3,101.3,124.3,101.3z"/>
		</g>
		<g>
			<polygon points="135.7,85.6 136.2,89.3 135.2,89.3 			"/>
		</g>
		<g>
			<path d="M131.3,55.7c-1.1,2.3-1.8,4.8-2.2,7.2l-1-0.2C128.9,60.3,129.9,57.9,131.3,55.7z"/>
		</g>
		<g>
			<path d="M105.5,108.7c2.6,0.7,5.2,1.6,7.7,2.7c0.6,0.3,1.2,0.6,1.8,1.2c0.3,0.4,0.4,0.5,0.7,0.8c0.2,0.2,0.5,0.4,0.7,0.7
				c1,0.8,2.1,1.6,3.2,2.3c2.3,1.3,4.7,2.4,7.2,3.1c2.5,0.7,5.2,1,7.8,0.9c2.7-0.2,5.4-0.4,8-0.8c2.6-0.4,5.2-1.1,7.4-2.4
				c1.1-0.7,2.1-1.5,3.1-2.4l3-2.7c1-0.9,2.1-1.8,3.1-2.6c1.1-0.8,2.2-1.7,3.5-2c-0.6,0.2-1.2,0.6-1.7,1c-0.5,0.4-1,0.9-1.5,1.3
				c-1,0.9-1.9,1.9-2.9,2.8l-2.9,2.9c-1,0.9-2,1.9-3.1,2.7c-2.3,1.6-5.1,2.3-7.8,2.9c-2.7,0.5-5.4,0.7-8.1,0.9
				c-5.6,0.3-11.1-1.5-15.7-4.5c-1.1-0.8-2.3-1.6-3.3-2.5c-0.2-0.2-0.5-0.5-0.7-0.8c-0.2-0.2-0.5-0.7-0.6-0.8
				c-0.4-0.4-1-0.8-1.5-1.1C110.5,110.8,108,109.8,105.5,108.7z"/>
		</g>
		<g>
			<path d="M103.6,111.7c0.1-1.1,0.7-2.2,1.4-3c0.7-0.9,1.7-1.6,2.7-2.1c1-0.5,2.1-0.8,3.3-0.9c0.6-0.1,1.1-0.1,1.7-0.1
				c0.6,0.1,1.1,0.1,1.7,0.2c-0.5,0.1-1.1,0.2-1.6,0.3c-0.5,0.1-1.1,0.2-1.6,0.3c-1,0.3-2,0.6-3,1.1
				C106.3,108.4,104.7,109.8,103.6,111.7z"/>
		</g>
		<g>
			<path d="M156.6,104.5c1.1-0.1,2.2,0.1,3.3,0.5c1.1,0.4,2.1,0.9,2.9,1.7c0.4,0.4,0.8,0.8,1.2,1.3c0.3,0.5,0.6,1,0.8,1.5
				c0.5,1,0.5,2.2,0.5,3.3c-0.3-1-0.6-2.1-1.2-2.9c-0.5-0.9-1.1-1.7-1.9-2.3C160.6,106.1,158.7,105.2,156.6,104.5z"/>
		</g>
		<g>
			<polygon points="128.6,17.8 136.6,18.8 128.6,18.8 			"/>
		</g>
		<g>
			<path class="st15" d="M92,42.5c1.6-3.3,4.2-6.3,7.6-8.1c3.4-1.9,7.6-2.4,11.4-1.7c3.7,0.5,7.4,1.7,10.8,2.9
				c3.4,1.3,6.7,2.3,10.1,2.5c3.4,0.3,6.9,0,10.5-0.5c3.6-0.4,7.1-1.2,10.9-1.4c3.8-0.4,7.7,0,11.3,1.2c3.6,1.3,6.8,3.3,9.6,5.7
				c-3.3-1.6-6.6-3.1-10.1-3.8c-3.5-0.7-6.9-0.6-10.4,0c-3.5,0.6-7,1.4-10.7,2.1c-3.7,0.6-7.5,1-11.4,0.7c-3.9-0.3-7.7-1.6-11.1-2.9
				c-1.7-0.7-3.4-1.3-5-1.9c-1.7-0.5-3.4-1.1-5.1-1.5c-0.4-0.1-0.9-0.2-1.3-0.3l-1.2-0.2c-0.4,0-0.8,0-1.3-0.1c-0.4,0-0.8-0.1-1.3,0
				c-1.7,0-3.4,0.4-5,1C97.2,37.4,94.3,39.7,92,42.5z"/>
		</g>
		<path class="st16" d="M121,100.8c0,0,2.2-0.5,4-1.7c1.8-1.2,4.4-2.5,8.5-2.1s6.2,2.1,7.9,3.9c1.7,1.8,5.7,1.6,7.9,0.1
			c0,0-2,3.8-6.1,3.1c-4.2-0.7-5.3-1.7-7-0.6c-1.7,1.1-1.7,3.9-1.7,3.9s-0.2-4.9-2.4-5.5C128.9,100.9,124.3,102,121,100.8z"/>
		<path class="st17" d="M149.8,75.6c0,0,4.7-3.9,11.8-2s10.2,8.9,10.2,8.9s-0.6-5-3.3-8.5c-2.5-3.1-5.6-7.4-16.1-6
			C152.4,68.1,150.3,74.5,149.8,75.6z"/>
		<path class="st17" d="M117,67.6c0,0,1.3,1.1,3.3,6.9c0,0-6.4-5.2-13.1-1.9s-8.6,9.6-8.6,9.6s-0.3-7.7,4.6-11.7
			C108.2,66.4,114,66.1,117,67.6z"/>
		<path class="st2" d="M190.5,100c0,0,2.6-1.4,5.4-0.6c0,0,0.7-2.7-1.3-2.7C192.5,96.6,190.5,100,190.5,100z"/>
		<path class="st18" d="M195.9,96.7c0,0-2.2-2.3-7.3,5.8c0,0,5.9,1.4,0.4,5.8"/>
		<path class="st2" d="M69.2,93.5c0,0,1.3-1.2,3.2-0.7c1.8,0.5,2.9,2.5,2.9,2.5s-1-4.8-2.9-5.4C70.4,89.2,69,90.8,69.2,93.5z"/>
		<path class="st18" d="M70.3,89.6c0,0,3.6-2.1,5.7,6.9c0,0-3.3,0.3-3.4,2.8c-0.1,2.5,3.4,4.3,3.4,4.3"/>
		<circle class="st13" cx="113.6" cy="87" r="5.9"/>
		<circle class="st14" cx="112.4" cy="85.6" r="2.4"/>
		<g>
			<path d="M128.1,126.1c1.5,0.6,3,1,4.6,1.2c1.5,0.2,3.1,0.3,4.6,0.1c1.5-0.2,3.1-0.5,4.5-1.1c1.5-0.5,2.9-1.3,4.3-2.1
				c-0.6,0.5-1.2,1.1-1.8,1.6c-0.7,0.4-1.3,0.9-2.1,1.2c-1.5,0.8-3.1,1.2-4.7,1.4c-1.6,0.2-3.3,0.1-4.9-0.3
				C131,127.7,129.5,127.1,128.1,126.1z"/>
		</g>
		<g>
			<path d="M42.2,159.5c2.1,0.2,4.2,0.6,6.2,1.1c2.1,0.5,4.1,1.1,6.1,1.7c2,0.7,4,1.5,5.9,2.4c1.9,0.9,3.8,2.1,5.2,3.6
				c-1.8-1.1-3.7-1.8-5.7-2.6c-1.9-0.7-3.9-1.4-5.9-2.1C50.1,162.3,46.2,161.1,42.2,159.5z"/>
		</g>
		<g>
			<path class="st7" d="M168.1,164.2c0,0,15.2,2.5,31.1-18.9c0,0,2.3,5.8,2.7,12.7c0,0-6.1,7.2-16.9,11.3c0,0-8.8,3.6-16.4,1.6
				L168.1,164.2z"/>
			<g>
				<path d="M168.1,164.2c1.6,0.1,3.1-0.1,4.7-0.4c1.5-0.3,3-0.8,4.5-1.3c2.9-1.1,5.6-2.7,8.1-4.5c2.6-1.7,4.8-3.9,7-6.1
					c1.1-1.1,2.1-2.3,3.1-3.5l2.9-3.7l1.1-1.4l0.6,1.6c0.4,1.1,0.7,2.1,1,3.2c0.3,1.1,0.6,2.1,0.8,3.2c0.5,2.2,0.8,4.4,0.9,6.6
					l0,0.4l-0.3,0.3c-2.2,2.4-4.6,4.4-7.3,6.2c-2.6,1.8-5.4,3.3-8.3,4.5c-2.9,1.2-6,2.1-9.2,2.4c-3.1,0.4-6.4,0.3-9.4-0.6l-0.2-0.1
					l0-0.2L168.1,164.2z M168.1,164.2l0.8,6.6l-0.2-0.3c3,0.6,6.1,0.5,9.1,0c3-0.5,5.9-1.4,8.7-2.7c2.8-1.2,5.4-2.8,7.9-4.5
					c2.5-1.8,4.9-3.7,6.8-5.9l-0.2,0.7c-0.2-2.1-0.4-4.2-0.9-6.3c-0.2-1-0.5-2.1-0.8-3.1c-0.3-1-0.6-2.1-1-3l1.7,0.2l-3,3.7
					c-1.1,1.2-2.2,2.4-3.3,3.5l-1.8,1.6l-0.9,0.8l-0.9,0.7l-1.9,1.5c-0.7,0.5-1.3,0.9-2,1.4c-2.7,1.7-5.6,3.2-8.7,4.1
					c-1.5,0.4-3.1,0.8-4.7,1C171.3,164.5,169.7,164.5,168.1,164.2z"/>
			</g>
		</g>
		<g>
			<path class="st7" d="M65.3,126c0,0,14,4.4,16.1,16.6c2.2,12.2-2.7,20.7-2.7,20.7l-4.3,4c0,0,2.5-12.4,0.6-19.7
				c-2-7.3-6.6-13.3-14.6-17.3C60.4,130.2,62.9,127.1,65.3,126z"/>
			<g>
				<path d="M65.3,126c1.8,0.5,3.6,1.3,5.3,2.2c1.7,0.9,3.3,1.9,4.8,3.2c1.5,1.2,2.9,2.6,3.9,4.3l0.4,0.6l0.4,0.6
					c0.2,0.4,0.5,0.9,0.7,1.3l0.6,1.4c0.1,0.2,0.2,0.5,0.3,0.7l0.2,0.7c1,3.8,1.3,7.7,0.9,11.5c-0.4,3.9-1.3,7.7-3.1,11.3l-0.1,0.1
					l-0.1,0.1l-4.3,4l-2.2,2.1l0.6-3c0.7-3.5,1.1-7,1.3-10.6c0.2-3.5,0.1-7.1-1.1-10.4c-1-3.3-2.8-6.4-5.1-9.1
					c-2.3-2.6-5.2-4.8-8.3-6.5l-0.3-0.2l0.2-0.2c0.7-0.8,1.5-1.6,2.3-2.3C63.4,127,64.3,126.4,65.3,126z M65.3,126
					c-1,0.5-1.8,1.2-2.5,2c-0.8,0.8-1.5,1.6-2.1,2.4l-0.1-0.4c3.3,1.5,6.4,3.5,9,6.2c2.6,2.6,4.5,5.9,5.8,9.4c0.6,1.7,1,3.6,1.2,5.5
					c0.2,1.8,0.2,3.7,0.2,5.5c-0.1,3.7-0.6,7.3-1.2,10.9l-1.7-0.9l4.3-4l-0.2,0.2c0.8-1.5,1.5-3.3,1.9-5.1c0.5-1.8,0.8-3.6,1.1-5.4
					c0.4-3.6,0.3-7.4-0.5-11c-0.8-3.5-3-6.7-5.6-9.3C72,129.4,68.7,127.4,65.3,126z"/>
			</g>
		</g>
		<g>
			<path d="M94.5,169.6c0.9,2.5,1.9,5,2.9,7.4c0.5,1.2,1,2.5,1.6,3.7c0.6,1.2,1.1,2.4,1.8,3.5c-0.8-1.1-1.4-2.3-2-3.4
				c-0.6-1.2-1.2-2.4-1.8-3.6c-1.2-2.4-2.3-4.8-3.4-7.2L94.5,169.6z"/>
		</g>
		<g>
			<path d="M104.4,236.4c3.7-1.7,7.6-2.8,11.6-3.5c2-0.4,4-0.6,6-0.8c1-0.1,2-0.1,3-0.1c1,0,2-0.1,3.1,0c4.1,0.1,8.1,0.8,12.1,1.8
				c1,0.3,2,0.6,2.9,0.9c1,0.4,1.9,0.8,2.8,1.2l1.4,0.6c0.4,0.2,0.9,0.5,1.3,0.8c0.9,0.5,1.7,1,2.6,1.6c-1-0.2-2-0.5-2.9-0.8
				l-1.4-0.4l-1.5-0.3c-1-0.2-1.9-0.5-2.9-0.7c-1-0.2-1.9-0.3-2.9-0.5c-3.9-0.6-7.7-1-11.7-1.1c-1-0.1-2-0.1-2.9-0.1c-1,0-2,0-2.9,0
				c-2,0-3.9,0.2-5.9,0.2C112.3,235.5,108.4,235.9,104.4,236.4z"/>
		</g>
	</g>
</g>
<g>
	<defs>
		<rect id="SVGID_3_" x="225" y="0.5" width="225" height="277.1"/>
	</defs>
	<clipPath id="SVGID_4_">
		<use xlink:href="#SVGID_3_"  style="overflow:visible;"/>
	</clipPath>
	<g class="st19">
		<g>
			<path class="st1" d="M364.6,255.5c0,0,0.6,7.1,6.3,7.8c5.7,0.7,6.7-0.8,13.3,1.9c6.6,2.7,9.8,2.9,11.8,1.3
				c2.1-1.6-7.4-19.6-7.4-19.6L364.6,255.5z"/>
			<g>
				<path d="M364.6,255.5c0.2,1.2,0.6,2.3,1.1,3.4c0.5,1.1,1.3,2,2.2,2.7c0.9,0.7,2,1.1,3.1,1.2c1.2,0.1,2.4,0.1,3.6,0.1
					c1.2,0,2.4-0.1,3.7,0c1.3,0.1,2.5,0.3,3.7,0.7c1.2,0.3,2.4,0.8,3.5,1.2c1.1,0.4,2.2,0.8,3.4,1.1c1.1,0.3,2.3,0.6,3.4,0.6
					c1.1,0.1,2.1-0.1,2.9-0.6l0.3-0.2c0,0-0.1,0-0.1,0.1c0,0.1,0,0,0,0c0,0,0-0.3,0-0.5c-0.1-0.5-0.2-1-0.3-1.6
					c-0.3-1.1-0.7-2.2-1.2-3.3c-0.9-2.2-1.8-4.4-2.9-6.6c-1-2.2-2.1-4.4-3.1-6.5l1.1,0.4c-2,0.7-4,1.3-5.9,2l-6,2L364.6,255.5z
					 M364.6,255.5l5.8-2.4l5.9-2.4l6-2.4c2-0.8,4-1.6,6.1-2.3l0.7-0.3l0.4,0.7c2.3,4.3,4.5,8.6,6.3,13.2c0.5,1.1,0.9,2.3,1.2,3.5
					c0.2,0.6,0.3,1.2,0.4,2c0,0.4,0.1,0.7-0.1,1.3c-0.1,0.2-0.1,0.3-0.2,0.4c-0.1,0.2-0.3,0.3-0.4,0.4l-0.5,0.3
					c-1.3,0.8-2.8,0.9-4.1,0.8c-1.3-0.1-2.6-0.4-3.8-0.8c-2.4-0.7-4.6-1.8-6.8-2.6c-1.1-0.4-2.2-0.7-3.4-0.8
					c-1.1-0.1-2.3-0.1-3.6-0.2c-1.2,0-2.5-0.1-3.7-0.3c-1.3-0.2-2.5-0.8-3.5-1.6C365.5,260.4,364.8,257.9,364.6,255.5z"/>
			</g>
		</g>
		<g>
			<path class="st1" d="M290.8,248.2c0,0-12.5-1.6-15.3-0.6s-4.3,0.2-6.3,0.2s-5-0.1-7.3,1.3s-5.3,5.1-6.6,6.3
				c-1.3,1.2-2.8,3.9,2,4.3c0,0,1.3,5,7,4.4c0,0,2,4,10.6,2.6c0,0,3.5,7.5,11.4,5c6.8-2.1,7.8-9.3,19.3-10.3c0,0-9.9,8.2,1.2,11.7
				c9.3,2.9,9.3-7.3,20.3-8c11-0.7,18.3-0.9,21.7-5.9c3.3-5-6.2-9-6.2-9L290.8,248.2z"/>
			<path d="M290.8,248.6c-3.8-0.5-7.5-0.9-11.2-1c-0.9,0-1.9,0-2.8,0.1c-0.5,0.1-0.9,0.1-1.3,0.3c-0.5,0.2-0.9,0.3-1.4,0.4
				c-1,0.2-2,0.1-2.9,0c-1-0.1-1.8-0.2-2.8-0.2c-1.8,0-3.7,0.2-5.3,0.9c-0.8,0.4-1.5,0.9-2.2,1.5c-0.7,0.6-1.3,1.3-2,1.9l-1.9,2.1
				c-0.3,0.3-0.6,0.7-1,1.1c-0.3,0.3-0.6,0.6-0.8,1c-0.2,0.3-0.3,0.7-0.3,1c0,0.3,0.1,0.5,0.4,0.7c0.5,0.4,1.5,0.5,2.3,0.6h0l0.5,0
				l0.1,0.5c0.2,0.6,0.5,1.2,0.9,1.7c0.4,0.5,0.9,1,1.4,1.3c1.1,0.7,2.5,0.9,3.9,0.7l0,0l0.5,0l0.3,0.5c0.1,0.2,0.4,0.6,0.8,0.8
				c0.3,0.3,0.7,0.5,1.1,0.7c0.8,0.4,1.6,0.6,2.5,0.8c0.9,0.1,1.8,0.2,2.7,0.1c0.5,0,0.9-0.1,1.4-0.1l1.4-0.2l0,0l0.6-0.1l0.3,0.6
				c1.3,2.4,3.5,4.4,6.2,4.9c1.3,0.2,2.7,0.1,4-0.3c1.3-0.4,2.5-1,3.7-1.9c2.2-1.7,4.3-4.1,7-5.8c2.7-1.7,5.9-2.5,8.9-2.7l0,0l3-0.3
				l-2.3,2c-1.1,0.9-2.1,2.1-2.8,3.3c-0.7,1.2-1.1,2.5-0.8,3.6c0.4,1.1,1.5,1.9,2.8,2.5c1.3,0.6,2.7,1.1,4.1,1.1
				c1.4,0.1,2.7-0.3,3.9-1c1.2-0.8,2.3-1.8,3.5-2.9c1.2-1,2.5-2,3.9-2.8c1.5-0.8,3.1-1.3,4.7-1.5c1.6-0.2,3.2-0.2,4.7-0.3
				c1.5-0.1,3.1-0.2,4.6-0.3c3.1-0.3,6.1-0.6,8.9-1.6c1.4-0.5,2.7-1.3,3.7-2.3c1-1.1,1.8-2.3,1.4-3.6c-0.3-1.3-1.4-2.4-2.5-3.4
				c-1.2-0.9-2.5-1.7-3.9-2.3l0,0l0.2,0L290.8,248.6z M290.9,247.7l51.9,2l0.1,0l0.1,0l0,0c1.5,0.6,2.8,1.4,4.1,2.4
				c1.2,1,2.5,2.2,3,3.9c0.2,0.9,0.2,1.8-0.2,2.6c-0.4,0.8-0.9,1.5-1.4,2.1c-1.1,1.2-2.6,2.1-4.1,2.7c-3,1.2-6.2,1.5-9.3,1.9
				c-1.6,0.1-3.1,0.3-4.7,0.4c-1.5,0.1-3.1,0.2-4.6,0.4c-1.5,0.2-2.8,0.7-4.1,1.4c-1.3,0.7-2.4,1.6-3.6,2.6c-1.1,1-2.2,2.1-3.7,3.1
				c-1.4,1-3.2,1.5-4.9,1.4c-1.7-0.1-3.3-0.6-4.8-1.2c-0.8-0.4-1.5-0.8-2.2-1.4c-0.7-0.6-1.3-1.4-1.6-2.3c-0.3-0.9-0.3-2-0.1-2.8
				c0.2-0.9,0.6-1.7,1-2.4c0.9-1.5,2-2.6,3.3-3.7l0.7,1.7h0c-2.9,0.2-5.7,0.9-8.1,2.4c-2.5,1.4-4.4,3.7-6.9,5.6
				c-2.5,1.9-5.8,3.1-9.1,2.5c-1.6-0.3-3.2-1.1-4.4-2.1c-1.3-1.1-2.3-2.3-3-3.8l1,0.5l0,0l-1.5,0.2c-0.5,0-1,0.1-1.5,0.1
				c-1,0-2,0-3-0.2c-1-0.2-2-0.5-3-1c-0.5-0.3-0.9-0.5-1.3-0.9c-0.4-0.4-0.8-0.7-1.1-1.3l0.8,0.4h0c-1.6,0.2-3.4-0.1-4.8-1
				c-0.7-0.5-1.3-1.1-1.8-1.7c-0.5-0.7-0.9-1.4-1.1-2.3l0.6,0.5h0c-1-0.1-2-0.2-3-1c-0.5-0.4-0.9-1.1-0.8-1.8c0-0.7,0.3-1.2,0.6-1.6
				c0.3-0.4,0.7-0.9,1-1.2c0.3-0.3,0.7-0.6,1-1l2-2c0.7-0.7,1.4-1.3,2.1-2c0.7-0.6,1.6-1.2,2.5-1.6c1.9-0.8,3.8-0.9,5.7-0.9
				c0.9,0,2,0.1,2.9,0.3c0.9,0.1,1.8,0.2,2.7,0.1c0.4-0.1,0.9-0.2,1.3-0.3c0.5-0.2,1-0.3,1.5-0.3c1-0.1,1.9-0.1,2.9-0.1
				C283.4,246.9,287.2,247.3,290.9,247.7z"/>
		</g>
		<path class="st2" d="M321.6,265.6c0,0,3.9-4.7,8.4-5.3c4.6-0.7,4.6-0.3,5.3-0.6c0.7-0.3,3.1-4.6,2.6-7c0,0,8.8,2.5,11.3,2.6
			c0,0,1.6,3.4-3.8,6.3C339.3,264.9,324.1,263.8,321.6,265.6z"/>
		<g>
			<path class="st3" d="M307.9,203c0,0-25.4,2.7-30.6,10.5c-5,7.5,6.6,5.1,6.6,5.1s-10.5,7.8-4.8,11.3c3,1.9,5-1.6,5-1.6
				s-0.7,14.8,6.3,19.5c0,0,0.3,0.6,4.6,0.9c4.3,0.3,7.8-0.3,11.7,1.9s12.3,2.8,12.5,0c0,0,3,0.3,6.3,1.9c3.3,1.6,11.4,2,8.8-1.2
				c0,0,15.3,6,19.7,3.7c0,0-3.3-3.8-9.3-7.7c-6-3.8-9.2-5.9-9.9-12.3c0,0,18.1-4.6,34.9,1.4c0,0-1,8.5-2.9,12.2
				c-1.9,3.7-3.3,3.8-5.2,8.5c0,0,8.1-0.5,10.9-3.2c2.8-2.7,2.8,1.9,10.4,1.1c7.7-0.8,11.8-28.3,11.8-28.3l-4.9-6.9L307.9,203z"/>
			<g>
				<path d="M307.9,203c-3.8,0.5-7.5,1.2-11.2,2c-3.7,0.8-7.4,1.8-10.9,3.2c-1.7,0.7-3.5,1.5-5,2.5c-1.6,1-3,2.2-3.8,3.9
					c-0.4,0.8-0.8,1.7-0.6,2.4c0.2,0.7,1,1.2,1.8,1.3c1.8,0.3,3.7,0.1,5.5-0.2l1.9-0.4l-1.5,1.2c-1.3,1-2.5,2.2-3.7,3.4
					c-1.1,1.2-2.1,2.6-2.5,4.1c-0.2,0.7-0.1,1.5,0.3,2c0.4,0.6,1.1,1.1,1.7,1.3c0.7,0.3,1.4,0.2,2-0.2c0.6-0.3,1.2-0.9,1.6-1.6
					l1.2-1.9l-0.1,2.2c0,1.7,0,3.5,0.2,5.2c0.2,1.7,0.5,3.5,0.9,5.1c0.4,1.7,1,3.3,1.8,4.8c0.8,1.5,1.9,2.8,3.2,3.7l0.2,0.3
					c-0.1-0.2-0.1-0.1-0.1-0.2c0,0,0,0,0,0c0,0,0,0,0,0c0,0,0.1,0,0.1,0.1c0.1,0,0.2,0.1,0.4,0.1c0.3,0.1,0.6,0.1,0.9,0.2
					c0.6,0.1,1.2,0.2,1.8,0.2c1.2,0.1,2.5,0.2,3.7,0.2c2.5,0,5.2,0,7.7,1.1c0.6,0.3,1.3,0.6,1.8,0.9c0.5,0.3,1.1,0.5,1.6,0.7
					c1.1,0.4,2.3,0.6,3.5,0.8c1.2,0.1,2.4,0.2,3.6,0.1c0.6-0.1,1.1-0.2,1.6-0.4c0.2-0.1,0.4-0.2,0.5-0.3c0.1-0.1,0.1-0.2,0.1-0.3
					l0.1-0.9l0.8,0.1c1.6,0.2,3.1,0.6,4.6,1.1c0.7,0.3,1.5,0.6,2.1,0.9c0.6,0.3,1.3,0.5,2,0.7c1.4,0.3,2.8,0.5,4.2,0.4
					c0.7,0,1.4-0.2,1.7-0.4c0.1,0,0.1-0.1,0.1-0.1c0,0,0,0.1,0,0c0-0.1-0.1-0.3-0.3-0.6l-2.2-2.6l3.2,1.2c3.1,1.2,6.3,2.2,9.6,3
					c1.6,0.4,3.3,0.7,4.9,0.9c0.8,0.1,1.6,0.1,2.4,0.1c0.8,0,1.5-0.2,2.1-0.4l-0.3,1.4c-1.5-1.7-3.3-3.3-5.1-4.7
					c-1.8-1.5-3.8-2.7-5.8-4c-2-1.3-4.1-2.7-5.7-4.7c-0.8-1-1.5-2.2-1.9-3.4c-0.4-1.2-0.7-2.5-0.8-3.7l-0.1-0.9l0.8-0.2
					c3-0.7,5.9-1.1,8.9-1.4c3-0.3,6-0.4,9-0.3c3,0.1,6,0.4,8.9,0.9c3,0.5,5.9,1.3,8.7,2.3l0.7,0.3l-0.1,0.8
					c-0.2,1.9-0.5,3.8-0.9,5.6c-0.4,1.9-0.8,3.7-1.5,5.6c-0.2,0.5-0.4,0.9-0.6,1.4c-0.2,0.4-0.5,0.9-0.7,1.3
					c-0.5,0.8-1.1,1.6-1.7,2.4c-1.1,1.4-2,3-2.7,4.7l-0.9-1.3c2.2-0.2,4.4-0.5,6.5-1.1c1-0.3,2.1-0.7,2.9-1.2
					c0.2-0.1,0.4-0.3,0.6-0.4c0.1-0.1,0.2-0.1,0.3-0.2l0.4-0.3c0.3-0.2,0.5-0.4,0.9-0.6c0.4-0.2,0.9-0.3,1.3-0.2
					c0.9,0.1,1.4,0.5,1.9,0.8c0.5,0.3,0.9,0.5,1.4,0.7c1,0.4,2,0.5,3,0.6c0.5,0,1.1,0,1.6,0c0.6,0,0.9-0.1,1.4-0.3
					c0.8-0.4,1.6-1.1,2.2-2c1.3-1.7,2.2-3.7,3-5.8c0.8-2.1,1.5-4.2,2.1-6.4c1.2-4.3,2.2-8.7,2.9-13.2l0.1,0.5l-4.9-7l0.4,0.3
					l-40.9-8.7L307.9,203z M307.9,203l41,8l41.1,8.2l0.3,0.1l0.2,0.2l4.9,6.9l0.2,0.2l0,0.3c-0.7,4.5-1.6,9-2.8,13.4
					c-0.6,2.2-1.3,4.4-2.1,6.5c-0.9,2.1-1.8,4.3-3.3,6.2c-0.7,0.9-1.6,1.9-2.8,2.5c-0.6,0.3-1.4,0.4-1.9,0.5c-0.6,0-1.2,0.1-1.8,0.1
					c-1.2,0-2.4-0.2-3.6-0.7c-0.6-0.2-1.1-0.5-1.6-0.8c-0.5-0.3-1-0.5-1.2-0.6c-0.2,0-0.5,0.1-0.9,0.4l-0.3,0.3
					c-0.1,0.1-0.3,0.2-0.4,0.3c-0.3,0.2-0.5,0.4-0.8,0.5c-1.1,0.6-2.2,1-3.3,1.4c-2.3,0.6-4.5,1-6.9,1.2l-1.5,0.1l0.6-1.4
					c0.7-1.8,1.7-3.6,2.9-5.1c0.6-0.8,1.1-1.5,1.6-2.2c0.2-0.4,0.5-0.8,0.7-1.2c0.2-0.4,0.4-0.8,0.5-1.2c0.6-1.7,1-3.5,1.4-5.3
					c0.4-1.8,0.6-3.7,0.9-5.5l0.6,1c-2.7-0.9-5.5-1.7-8.4-2.1c-2.9-0.5-5.8-0.7-8.7-0.8c-2.9-0.1-5.8,0-8.7,0.3
					c-2.9,0.3-5.8,0.7-8.6,1.3l0.7-1.1c0.2,2.3,0.9,4.4,2.3,6.1c1.4,1.7,3.3,3,5.3,4.3c2,1.3,4,2.6,5.9,4.1c1.9,1.5,3.7,3.1,5.4,5
					l0.8,0.9l-1.1,0.5c-1,0.5-2,0.6-2.9,0.6c-0.9,0-1.8,0-2.7-0.1c-1.7-0.2-3.4-0.6-5.1-1c-3.3-0.9-6.6-1.9-9.8-3.1l1-1.4
					c0.3,0.4,0.6,0.7,0.7,1.4c0.1,0.3,0,0.8-0.2,1.1c-0.2,0.3-0.4,0.6-0.7,0.7c-1,0.6-1.8,0.6-2.6,0.6c-1.6,0.1-3.2-0.1-4.7-0.5
					c-0.8-0.2-1.5-0.4-2.3-0.8c-0.7-0.3-1.3-0.6-2-0.8c-1.3-0.5-2.8-0.8-4.1-1l0.9-0.8c0,0.5-0.3,1.1-0.6,1.4
					c-0.3,0.3-0.7,0.5-1.1,0.7c-0.7,0.3-1.4,0.4-2.1,0.5c-1.4,0.1-2.7,0.1-4-0.1c-1.3-0.2-2.6-0.5-3.8-0.9c-0.6-0.2-1.3-0.5-1.9-0.8
					c-0.6-0.3-1.1-0.6-1.6-0.8c-2.2-0.9-4.6-1-7.2-1.1c-1.3,0-2.6-0.1-3.8-0.2c-0.6-0.1-1.3-0.2-1.9-0.3c-0.3-0.1-0.7-0.1-1-0.2
					c-0.2,0-0.3-0.1-0.5-0.2c-0.1,0-0.2-0.1-0.3-0.1c-0.1,0-0.1-0.1-0.2-0.1c0,0-0.1,0-0.1-0.1c-0.1-0.1-0.1,0-0.2-0.3l0.2,0.3
					c-1.6-1.1-2.8-2.6-3.6-4.3c-0.9-1.6-1.4-3.4-1.9-5.1c-0.4-1.8-0.7-3.5-0.8-5.3c-0.2-1.8-0.2-3.6-0.2-5.4l1.1,0.3
					c-0.5,0.8-1.2,1.5-2,2c-0.9,0.5-2,0.6-2.9,0.2c-0.9-0.4-1.7-0.9-2.2-1.8c-0.6-0.9-0.6-2-0.4-2.9c0.5-1.8,1.6-3.2,2.8-4.5
					c1.2-1.3,2.5-2.4,3.9-3.5l0.4,0.8c-1.9,0.3-3.8,0.5-5.8,0.1c-0.5-0.1-1-0.3-1.4-0.6c-0.5-0.3-0.8-0.8-1-1.4
					c-0.2-1.1,0.3-2.1,0.7-3c0.9-1.8,2.5-3.1,4.1-4.1c1.6-1,3.4-1.8,5.2-2.4c3.6-1.3,7.3-2.3,11-3C300.4,204,304.1,203.4,307.9,203z
					"/>
			</g>
		</g>
		<path class="st4" d="M342.9,233.9c0,0-16.7-4.3-22.7-3.1c-6,1.2-10.7,2.2-10.7,2.2s9.7,0.2,10.2,1c0.5,0.8-7,2-8.6,5
			c0,0,3.9-0.4,4.6,0.5c0.6,0.8,0.8,4.3,9.7,9.5c0,0,0.2-2.5,0.5-3.4c0,0,12.1,11,27.9,9.6c0,0-6.5-6.6-11.6-9.1
			c-5.1-2.5-7.7-4.9-7.9-10.7L342.9,233.9z"/>
		<g>
			<path class="st5" d="M303.7,163.2l10.8-7.5l5.2,14.5l-12.7,31.4c0,0,3.5,2.8,6.8,5.3c3.3,2.5,9.8,12.5,29.8,18.2
				c20,5.7,39,0.5,49.7-7.7l0.2-46.5c0,0,14.5,5.2,33.3-12.8c0,0,0.2-21.8-22.5-37.6c-22.7-15.9-86.5,0-86.5,0s-27.3,0.8-32.5,9.8
				l14.1,37L303.7,163.2z"/>
			<path d="M303.2,162.6c1.8-1.3,3.6-2.5,5.4-3.8c1.8-1.2,3.7-2.5,5.5-3.7l0.8-0.5l0.3,0.8l0,0l5.5,14.4l0.1,0.4l-0.2,0.4l0,0
				L308.1,202l-0.4-1.3l0,0l4.7,3.7c0.8,0.6,1.5,1.2,2.4,1.9c0.9,0.7,1.5,1.4,2.3,2.2c2.8,2.9,5.7,5.4,9,7.6c6.5,4.4,14,7.2,21.7,9
				c7.7,1.6,15.7,1.9,23.5,0.6c7.7-1.4,15.3-4.2,21.6-8.9l-0.3,0.7v0l0-23.2l0.1-23.2l0-1.3l1.3,0.4c1.3,0.4,2.8,0.6,4.3,0.6
				c1.5,0.1,3-0.1,4.5-0.3c3-0.4,5.9-1.4,8.6-2.6l2.1-1l2-1.1l1-0.6l1-0.6l1.9-1.3c1.2-0.9,2.4-1.9,3.6-2.8l3.4-3l-0.3,0.7
				c-0.1-2.6-0.6-5.4-1.2-8c-0.7-2.7-1.7-5.2-2.8-7.7c-2.3-5-5.4-9.5-9.2-13.5l-1.4-1.5c-0.5-0.5-1-0.9-1.5-1.4
				c-1-0.9-2-1.9-3.1-2.7c-2.2-1.7-4.3-3.4-6.8-4.4c-2.5-1.1-5.1-2-7.7-2.6c-1.3-0.4-2.7-0.6-4-0.8c-1.4-0.2-2.7-0.4-4.1-0.6
				c-11-1.2-22.2-0.6-33.2,0.6c-5.5,0.6-11,1.4-16.5,2.3c-5.5,0.9-10.9,2-16.3,3.3l-0.1,0l-0.1,0c-2.9,0.1-5.8,0.3-8.6,0.7
				c-2.9,0.3-5.7,0.8-8.6,1.4c-2.8,0.6-5.6,1.4-8.3,2.5c-1.3,0.6-2.6,1.2-3.8,2c-1.2,0.8-2.2,1.8-2.9,3l0,0l0-0.3l14.2,37h0
				l-0.7-0.2c0.6-0.8,1.3-1.5,2-2.2C301.8,163.9,302.5,163.2,303.2,162.6z M304.2,163.8c-0.7,0.6-1.4,1.3-2.2,1.9
				c-0.7,0.6-1.5,1.2-2.3,1.8l-0.6,0.4l-0.1-0.6v0l-14-37l-0.1-0.2l0.1-0.1l0,0c0.8-1.3,1.9-2.4,3.1-3.2c1.2-0.9,2.5-1.5,3.9-2.1
				c2.7-1.2,5.5-2,8.4-2.6c2.9-0.6,5.7-1.1,8.6-1.5c2.9-0.4,5.8-0.6,8.7-0.7l-0.1,0c10.9-2.6,21.9-4.6,33-5.9
				c11.1-1.3,22.3-1.9,33.5-0.8c1.4,0.2,2.8,0.4,4.2,0.6c1.4,0.3,2.8,0.5,4.1,0.8c2.8,0.6,5.5,1.5,8.1,2.7l1.9,0.9l1.8,1.1
				c1.2,0.8,2.3,1.7,3.4,2.5c1.2,0.8,2.2,1.8,3.2,2.7c0.5,0.5,1.1,0.9,1.6,1.4l1.5,1.5c7.8,8.2,13.2,18.8,13.8,30.4l0,0.4l-0.3,0.3
				l-3.5,3.2c-1.2,1-2.5,2-3.7,2.9l-2,1.3l-1,0.7l-1,0.6l-2.1,1.2l-2.2,1c-2.9,1.3-6,2.3-9.1,2.7c-1.6,0.2-3.2,0.4-4.8,0.3
				c-1.6-0.1-3.2-0.2-4.9-0.7l1.3-0.9l-0.1,23.2l-0.2,23.2v0v0.4l-0.3,0.3c-6.5,4.9-14.4,7.9-22.3,9.4c-8,1.5-16.3,1.2-24.2-0.4
				c-7.9-1.8-15.6-4.6-22.5-9.2c-3.4-2.2-6.5-5-9.4-7.8c-0.7-0.7-1.4-1.4-2.1-2c-0.7-0.6-1.6-1.2-2.3-1.8l-4.8-3.7l0,0l-0.7-0.5
				l0.3-0.8l12.7-31.3l0,0l0,0.8l-4.8-14.6l0,0l1,0.3c-1.7,1.3-3.5,2.6-5.3,3.8C307.9,161.4,306,162.6,304.2,163.8z"/>
		</g>
		<path class="st2" d="M277.4,268.4c0,0,4.7,1.2,8.6-1.3c4-2.5,8.1-11.1,20.3-6.8c0,0-7.2,0.7-10.7,4.1c-3.6,3.5-7.9,7.3-12.5,6.8
			S277.4,268.4,277.4,268.4z"/>
		<g>
			<path class="st3" d="M285.4,130.2c0,0,21.8,9,14.1,37l-4.9,2.7l-51.1,26.3c0,0-5.2-6.3-8.7-8.7c-3.5-2.3-8.8-10.8-3.3-27
				c0,0-3,3-4.3,1.7s-3.8-10.5,21-22.2c0,0-5-3.2-4-4.3s11.8-6,36.5-4C280.6,131.7,284.2,131.5,285.4,130.2z"/>
			<g>
				<path d="M285.4,130.2c3.3,1.5,6.3,3.7,8.8,6.3c2.5,2.7,4.4,5.8,5.7,9.3c1.2,3.4,1.8,7.1,1.8,10.8c0,3.7-0.6,7.3-1.6,10.8
					l-0.1,0.2l-0.2,0.1c-4.6,2.6-9.3,5-13.9,7.5c-4.6,2.5-9.3,4.9-14,7.3l-28,14.5l-0.7,0.4l-0.5-0.6c-2.2-2.6-4.5-5.1-7-7.3
					c-0.3-0.3-0.6-0.5-1-0.8l-0.5-0.3l-0.6-0.4c-0.8-0.6-1.4-1.3-1.9-2c-1.1-1.5-1.9-3.1-2.5-4.9c-1.1-3.4-1.3-7.1-1-10.6
					c0.3-3.5,1.2-6.9,2.3-10.2l1.5,0.9c-0.6,0.6-1.3,1.1-2.1,1.6c-0.4,0.2-0.8,0.4-1.3,0.6c-0.5,0.1-1.2,0.2-1.8-0.2
					c-0.6-0.4-0.8-0.9-1-1.4c-0.2-0.5-0.3-0.9-0.3-1.4c-0.1-0.9,0-1.8,0.2-2.7c1-3.4,3.2-6,5.6-8.2c2.4-2.2,5.1-4,7.9-5.6
					c1.4-0.8,2.8-1.6,4.2-2.3l4.3-2.1l-0.1,1.2c-0.8-0.5-1.5-1.1-2.2-1.7c-0.4-0.3-0.7-0.6-1.1-1c-0.3-0.4-0.7-0.7-0.9-1.3
					c-0.1-0.3-0.3-0.7,0-1.2c0.1-0.1,0.1-0.2,0.2-0.3l0.2-0.2c0.1-0.1,0.2-0.2,0.3-0.3c0.4-0.3,0.9-0.5,1.3-0.7
					c0.9-0.4,1.7-0.7,2.6-0.9c3.5-1,7.1-1.6,10.8-2c3.6-0.3,7.3-0.4,10.9-0.3c3.6,0,7.2,0.3,10.9,0.6h0c0.8,0,1.7-0.1,2.5-0.3
					c0.4-0.1,0.8-0.2,1.2-0.4C284.7,130.7,285.1,130.5,285.4,130.2z M285.4,130.2c-0.3,0.3-0.7,0.6-1.1,0.7
					c-0.4,0.2-0.8,0.3-1.2,0.4c-0.8,0.2-1.7,0.4-2.6,0.4l0,0l0,0c-3.6-0.2-7.2-0.4-10.8-0.3c-3.6,0-7.2,0.2-10.8,0.7
					c-3.6,0.4-7.1,1.1-10.5,2.1c-0.8,0.3-1.7,0.6-2.5,0.9c-0.4,0.2-0.8,0.4-1.1,0.6c-0.1,0.1-0.1,0.1-0.2,0.1l-0.1,0.1c0,0,0,0,0,0
					c0-0.1,0,0,0.1,0.1c0.3,0.6,1,1.2,1.7,1.7c0.7,0.5,1.4,1.1,2.2,1.5l1,0.6l-1.1,0.5l-4.2,2.2c-1.4,0.8-2.8,1.5-4.1,2.4
					c-2.7,1.7-5.2,3.5-7.6,5.6c-2.3,2.1-4.3,4.6-5.1,7.3c-0.2,0.7-0.3,1.4-0.2,2.1c0,0.3,0.1,0.6,0.2,0.9c0.1,0.3,0.3,0.5,0.3,0.5
					c0.1,0.1,0.7,0,1.3-0.4c0.6-0.3,1.2-0.8,1.7-1.3l2.6-2.6l-1.1,3.5c-1.1,3.2-1.8,6.5-2.1,9.8c-0.3,3.3-0.1,6.7,0.9,9.8
					c0.5,1.5,1.3,3,2.2,4.3c0.5,0.6,1,1.2,1.6,1.7l0.5,0.3l0.6,0.4c0.4,0.3,0.7,0.6,1.1,0.8c2.7,2.3,5,4.9,7.2,7.6l-1.2-0.2L271,181
					c4.7-2.4,9.4-4.8,14.1-7.1c4.7-2.4,9.4-4.7,14-7.2l-0.3,0.4c1-3.4,1.6-7,1.7-10.5c0.1-3.6-0.3-7.1-1.4-10.5
					c-1.1-3.4-2.9-6.5-5.3-9.2C291.5,134.1,288.6,131.8,285.4,130.2z"/>
			</g>
		</g>
		<path class="st6" d="M287.3,182.2c0,0,4.5,6.3,9,3.9c4.5-2.4,7.4-11.2-7-19.9S287.3,182.2,287.3,182.2z"/>
		<g>
			<path class="st1" d="M391.6,233.7c0,0-1.7,6-5.7,8.3c-4,2.3-7.7,5.2-6.7,10.5c1,5.3,8,15.2,12.3,14.2c0,0,2.8,9.3,10.8,9.8
				s4.5-3.5,11.7-3.5s23.3,0.8,32.3-10.2c0,0,3.8-3.8,1.5-9.2c-1.5-3.5,3-17.5-6.7-28C431.6,215.2,391.6,233.7,391.6,233.7z"/>
			<path d="M392.1,234.2c0.1,0,0.1-0.2,0.1-0.2L392.1,234.2L392.1,234.2l-0.1,0.4l-0.2,0.7c-0.2,0.4-0.4,0.9-0.5,1.3
				c-0.4,0.9-0.8,1.7-1.4,2.5c-0.5,0.8-1.1,1.6-1.8,2.2c-0.3,0.4-0.7,0.7-1.1,0.9c-0.4,0.3-0.8,0.5-1.2,0.8c-1.5,0.9-3,1.9-4.1,3.2
				c-1.1,1.3-1.8,2.8-1.8,4.5c0,1.7,0.5,3.3,1.2,4.9c0.7,1.6,1.6,3.1,2.7,4.6c1,1.4,2.2,2.8,3.5,4c0.7,0.6,1.3,1.1,2.1,1.5
				c0.7,0.4,1.5,0.6,2.2,0.4l0,0l0.6-0.1l0.2,0.6c0.8,2.3,2.2,4.6,4,6.3c1.8,1.7,4.1,2.8,6.5,2.9c1.3,0.1,2.5,0,3.6-0.3
				c0.5-0.2,1-0.4,1.4-0.8c0.4-0.4,1-0.9,1.6-1.3c1.4-0.8,2.9-1,4.2-1c1.4,0,2.7,0,4,0c5.2,0,10.5-0.4,15.4-1.9
				c2.4-0.7,4.8-1.7,7-3.1c2.1-1.3,4.1-3,5.7-4.9l0,0l0-0.1c0.5-0.5,1-1.3,1.3-2.1c0.3-0.8,0.5-1.6,0.6-2.4c0-0.8,0-1.7-0.3-2.5
				c0-0.2-0.1-0.4-0.2-0.6c-0.1-0.2-0.1-0.3-0.2-0.7c-0.1-0.3-0.2-0.6-0.2-0.9l-0.1-0.8c-0.1-2.1,0.1-3.9,0.1-5.8
				c0-1.9,0-3.8-0.2-5.6c-0.3-3.7-1.3-7.3-3.1-10.5c-0.5-0.8-1-1.6-1.5-2.3l-0.9-1.1l-0.4-0.5l-0.5-0.4c-1.2-1.1-2.9-1.8-4.7-2.1
				c-1.8-0.3-3.6-0.5-5.5-0.4c-1.9,0.1-3.7,0.3-5.6,0.6c-3.7,0.6-7.4,1.5-11.1,2.5c-3.6,1.1-7.3,2.3-10.8,3.6
				c-1.8,0.7-3.6,1.3-5.3,2.1l-2.6,1.1l-1.3,0.6l-0.7,0.3L392.1,234.2l-0.1,0.1C391.9,234.3,392.1,234.2,392.1,234.2z M391,233.2
				c0.1-0.1,0.4-0.3,0.4-0.3l0.2-0.1l0.3-0.1l0.7-0.3l1.3-0.6l2.6-1.1c1.8-0.7,3.6-1.4,5.3-2.1c3.6-1.4,7.2-2.6,10.9-3.7
				c3.7-1.1,7.4-2,11.3-2.6c1.9-0.3,3.8-0.5,5.8-0.6c2-0.1,3.9,0,5.9,0.4c2,0.4,4,1.1,5.6,2.6l0.6,0.5l0.5,0.6l0.9,1.1
				c0.6,0.8,1.1,1.6,1.7,2.5c2,3.5,3,7.4,3.4,11.3c0.2,2,0.2,3.9,0.2,5.8c0,1.9-0.2,3.9-0.1,5.6l0.1,0.6c0,0.2,0.1,0.3,0.1,0.5
				c0,0.1,0.2,0.4,0.2,0.7c0.1,0.3,0.2,0.5,0.3,0.7c0.3,1,0.4,2.1,0.3,3.2c-0.1,1.1-0.3,2.1-0.7,3.1c-0.4,1-0.9,1.8-1.7,2.7l0.1-0.1
				c-1.8,2.1-3.9,3.9-6.2,5.4c-2.3,1.4-4.9,2.5-7.5,3.2c-5.2,1.5-10.6,1.9-15.9,1.9c-1.3,0-2.7,0-3.9,0c-1.2,0-2.5,0.2-3.4,0.7
				c-0.5,0.3-0.9,0.7-1.4,1.2c-0.5,0.5-1.3,0.9-2,1.2c-1.5,0.4-2.9,0.5-4.2,0.4c-2.8-0.1-5.6-1.5-7.5-3.5c-2-2-3.3-4.4-4.2-7
				l0.8,0.5l0,0c-1.1,0.2-2.2-0.1-3.1-0.5c-0.9-0.5-1.7-1-2.4-1.7c-1.4-1.3-2.6-2.7-3.7-4.2c-1.1-1.5-2-3.1-2.8-4.8
				c-0.8-1.7-1.4-3.6-1.4-5.6c0-2,0.9-4,2.2-5.4c1.3-1.5,2.9-2.5,4.5-3.5c0.4-0.2,0.8-0.5,1.1-0.7c0.3-0.3,0.7-0.5,1-0.8
				c0.6-0.6,1.1-1.3,1.6-2c0.5-0.7,0.9-1.5,1.3-2.3c0.2-0.4,0.4-0.8,0.5-1.2l0.2-0.6l0.1-0.3l0-0.2l0-0.1
				C390.8,233.5,390.9,233.3,391,233.2z"/>
		</g>
		<g>
			<path d="M391.2,254.5c0.3,2.7,0.4,5.3,0.6,7.9c0.1,1.3,0.3,2.6,0.5,3.9c0.2,1.3,0.5,2.5,0.8,3.9c-0.9-1-1.5-2.3-1.9-3.6
				c-0.4-1.3-0.7-2.6-0.8-4c-0.1-1.4-0.1-2.7,0-4.1C390.5,257.2,390.8,255.8,391.2,254.5z"/>
		</g>
		<g>
			<path class="st3" d="M393.6,170.9c0,0-6.7,24-4.5,24.7c2.2,0.7,4.2-1.2,7-7c0,0-10.3,31.3-4.5,45.2c0,0,16.3,8.3,30.8-3.8
				c0,0-2.5,9.7-10.8,13.5c0,0,22.8,3.2,32.2-21.3c5.2-13.5-2.5-27.2-2.5-27.2s0.5-22.8-14.3-36.8
				C426.9,158,411.9,174.4,393.6,170.9z"/>
			<path d="M393.8,171.3c0.1-0.1,0.2-0.2,0.2-0.3c0,0,0,0,0,0l0,0l0,0.1l0,0.1l-0.1,0.3l-0.1,0.5l-0.3,1.1l-0.6,2.2l-1.1,4.4
				c-0.7,2.9-1.4,5.8-1.9,8.8c-0.3,1.5-0.5,2.9-0.7,4.4c-0.1,0.7-0.1,1.5,0,2c0,0.1,0.1,0.2,0,0.1c0,0,0.3,0.1,0.4,0.1
				c0.3,0.1,0.6,0,0.9-0.1c1.2-0.4,2.1-1.6,3-2.8c0.8-1.2,1.5-2.5,2.2-3.8l0,0l0.7,0.3c-1.1,3.7-2,7.4-2.9,11.1
				c-0.8,3.7-1.5,7.5-2.1,11.3c-0.5,3.8-0.9,7.6-0.9,11.4c0,1.9,0.1,3.8,0.4,5.6c0.3,1.8,0.7,3.7,1.4,5.3l0,0l-0.4-0.4
				c2.3,1.1,5,1.8,7.6,2.2c2.6,0.4,5.3,0.5,7.9,0.2c1.3-0.1,2.6-0.4,3.9-0.7c1.2-0.4,2.5-0.7,3.7-1.3c2.5-1,4.6-2.5,6.7-4.2l2.4-1.9
				l-0.8,2.8c-0.4,1.6-1,2.9-1.7,4.3c-0.7,1.4-1.5,2.7-2.5,3.9c-0.9,1.2-2,2.4-3.2,3.4c-1.2,1-2.6,1.8-4,2.5l-0.3-1.9
				c1.3,0.2,2.8,0.2,4.2,0.1c0.7,0,1.4-0.1,2.1-0.2c0.7-0.1,1.4-0.2,2.1-0.3c2.8-0.5,5.5-1.4,8-2.7l0.9-0.5l0.9-0.6l1.8-1.1l1.6-1.3
				l0.8-0.7c0.3-0.2,0.5-0.5,0.7-0.7l1.5-1.5c0.5-0.5,0.9-1.1,1.3-1.6l1.3-1.7l1.1-1.8c0.4-0.6,0.7-1.2,1.1-1.8l0.9-1.9l0.9-1.9
				c0.3-0.7,0.5-1.3,0.7-2c0.8-2.7,1.2-5.5,1.2-8.4c0-2.8-0.4-5.7-1.1-8.4c-0.7-2.7-1.7-5.5-3-8l-0.1-0.2l0-0.2
				c0-3.3-0.3-6.7-0.9-9.9c-0.6-3.3-1.4-6.5-2.5-9.7c-1.1-3.2-2.5-6.2-4.3-9.1l-1.4-2.1c-0.5-0.7-1-1.3-1.5-2l-0.8-1l-0.9-0.9
				l-1.7-1.8l0,0l0.5,0c-2.2,2.3-4.6,4.3-7.1,6.1c-2.6,1.8-5.3,3.3-8.1,4.6c-2.9,1.3-5.9,2.1-9,2.6l-2.3,0.3c-0.8,0.1-1.6,0-2.4,0
				l-1.2,0c-0.4,0-0.7-0.1-1-0.1C395.2,171.6,394.5,171.5,393.8,171.3z M393.3,170.4c0.8,0.1,1.7,0.1,2.5,0.2l1.3,0.1l1.1,0
				c0.8,0,1.5,0,2.3,0l2.3-0.2c3-0.4,6-1.2,8.8-2.4c2.8-1.2,5.5-2.7,8-4.4c2.5-1.7,4.9-3.7,7.1-5.9l0.3-0.3l0.2,0.3l0,0l1.8,1.8
				l0.9,0.9l0.8,1c0.5,0.7,1.1,1.3,1.6,2l1.4,2.1c1.8,2.9,3.4,6,4.5,9.2c1.2,3.2,2.1,6.5,2.7,9.9c0.6,3.4,1,6.7,1,10.2l-0.1-0.3
				c1.4,2.7,2.4,5.4,3.2,8.3c0.8,2.9,1.2,5.8,1.3,8.8c0,3-0.3,6-1.2,8.8c-0.2,0.7-0.4,1.4-0.7,2.1l-0.9,2l-0.9,2
				c-0.4,0.7-0.7,1.3-1.1,1.9l-1.1,1.9l-1.3,1.8c-0.5,0.6-0.9,1.2-1.4,1.8l-1.6,1.6c-0.3,0.3-0.5,0.5-0.8,0.8l-0.9,0.7l-1.7,1.4
				c-0.6,0.4-1.3,0.8-1.9,1.2l-0.9,0.6l-1,0.5c-2.6,1.4-5.5,2.4-8.4,3c-0.7,0.2-1.5,0.3-2.2,0.4c-0.7,0.1-1.5,0.2-2.2,0.2
				c-1.5,0.1-3,0.1-4.5-0.1l-3.2-0.4l3-1.5c1.2-0.6,2.5-1.3,3.5-2.2c1.1-0.9,2.1-1.9,2.9-3.1c0.9-1.1,1.6-2.3,2.3-3.6
				c0.6-1.3,1.2-2.6,1.6-3.9l1.6,1c-2.2,1.7-4.6,3.4-7.2,4.4c-1.3,0.6-2.6,1-4,1.4c-1.4,0.3-2.8,0.7-4.2,0.8
				c-2.8,0.3-5.7,0.2-8.4-0.3c-2.8-0.5-5.4-1.3-8.1-2.5l-0.3-0.1l-0.1-0.3l0,0c-1.5-3.8-1.8-7.8-1.8-11.6c0-3.9,0.5-7.8,1.1-11.6
				c0.6-3.8,1.4-7.6,2.4-11.3c0.9-3.7,2-7.4,3.3-11.1l0.7,0.3l0,0c-0.6,1.4-1.3,2.7-2.1,4c-0.4,0.7-0.9,1.3-1.4,1.9
				c-0.5,0.6-1.2,1.1-2,1.4c-0.4,0.1-0.9,0.2-1.3,0.1c-0.1,0-0.2,0-0.3-0.1c-0.1,0-0.2,0-0.4-0.1c-0.5-0.3-0.5-0.6-0.6-0.8
				c-0.2-0.9-0.1-1.7-0.1-2.4c0.1-1.5,0.4-3,0.7-4.5c0.6-3,1.2-5.9,1.9-8.8c0.4-1.5,0.7-2.9,1.1-4.4l0.6-2.2l0.3-1.1l0.2-0.5
				l0.1-0.3l0-0.1l0-0.1l0,0l0,0C393.1,170.6,393.2,170.5,393.3,170.4z"/>
		</g>
		<g>
			<path d="M434.4,185.2c0.9,0.4,1.7,1.1,2.5,1.8c0.7,0.7,1.4,1.5,2,2.3c1.1,1.7,2,3.6,2.4,5.6c-0.6-0.9-1-1.7-1.6-2.6
				c-0.5-0.8-1-1.7-1.6-2.5C436.9,188.2,435.8,186.7,434.4,185.2z"/>
		</g>
		<path class="st6" d="M290.3,167.9c0,0,6.3-8,6.6-12.3c0.3-4.3-1.7-5.8-7.8-9.3s-13-10-19.7-7.2c-5.2,2.2-3.7,8.3-7.7,12.6
			c-5.8,6.1-19.1,12.8-18.9,23.5c0,0,5-6.6,7.3-6.4c0,0-8.3,11.8-6.8,24.4s8.4,11.4,11.3,10c0,0,11.3,4.8,19.1,1.3
			c5.6-2.5,6.5-8.8,6.5-8.8s5.2-2.5,5.8-9.7C286,185.9,297.3,175.6,290.3,167.9z"/>
		<g>
			<path d="M266.2,182.2c1.5,0.8,3.1,1.3,4.7,1.7c1.6,0.4,3.3,0.7,4.9,1c1.6,0.3,3.3,0.4,5,0.6c0.8,0.1,1.7,0.1,2.5,0.2
				c0.9,0.1,1.7,0.1,2.6,0.2c-0.8,0.2-1.7,0.4-2.5,0.5c-0.9,0.1-1.7,0.2-2.6,0.2c-1.7,0.1-3.5,0-5.2-0.2c-1.7-0.3-3.4-0.7-5.1-1.3
				c-0.8-0.3-1.6-0.7-2.3-1.2C267.5,183.4,266.8,182.9,266.2,182.2z"/>
		</g>
		<g>
			<path d="M257.7,192c1.6,1.3,3.3,2.4,5.1,3.2c1.8,0.8,3.7,1.4,5.6,1.6c0.5,0.1,1,0.1,1.5,0.1c0.5,0.1,1,0,1.5,0c0.5,0,1,0,1.5,0
				c0.5-0.1,1-0.1,1.5-0.1c0.5,0,1-0.1,1.5-0.2l1.5-0.3c1-0.2,1.9-0.5,3-0.7c-0.9,0.5-1.8,1-2.8,1.4c-1,0.3-1.9,0.7-3,0.9
				c-2,0.5-4.2,0.5-6.3,0.3c-2.1-0.3-4.1-1-5.9-2.1C260.4,195.1,258.8,193.7,257.7,192z"/>
		</g>
		<g>
			<path d="M248.8,199.5c0.7,0.4,1.3,0.6,1.9,0.9c0.6,0.3,1.2,0.6,1.8,0.9c0.6,0.3,1.2,0.6,1.8,1c0.6,0.4,1.2,0.8,1.7,1.3
				c-0.8,0-1.5-0.1-2.2-0.2c-0.7-0.2-1.4-0.4-2-0.8c-0.6-0.3-1.2-0.7-1.8-1.3C249.5,200.9,249,200.2,248.8,199.5z"/>
		</g>
		<g>
			<path d="M281.6,256.3c-1.1,0.7-2,1.5-2.9,2.3c-0.9,0.8-1.7,1.7-2.3,2.7c-0.6,1-1,2-1,3.1c0,1.1,0.4,2.1,0.9,3.2l-1.1,0.7
				c-0.7-1.1-1.4-2.4-1.4-3.9c0-1.5,0.6-2.8,1.4-3.9c0.8-1.1,1.9-1.9,3-2.6C279.2,257.1,280.4,256.6,281.6,256.3z"/>
		</g>
		<g>
			<path d="M307.1,265.4c-0.3-0.1-0.7-0.1-1-0.1c-0.3,0-0.7,0.1-0.8,0.3c0,0.2,0.3,0.4,0.6,0.5c0.3,0.1,0.6,0.2,0.9,0.3
				c0.6,0.1,1.3,0.2,1.9,0.3c0.7,0.1,1.3,0.2,1.9,0.3c0.3,0,0.6,0.1,0.8,0.1c0.1,0,0.2,0,0.2,0c0,0-0.1,0.1,0,0.2c0,0,0-0.3-0.2-0.5
				c-0.2-0.2-0.4-0.4-0.6-0.6c-0.1-0.1-0.2-0.1-0.4-0.2l-0.5-0.1c-0.3-0.1-0.7-0.1-1-0.2C308.5,265.6,307.8,265.5,307.1,265.4z
				 M307.1,265.4c0.7,0.1,1.3,0,2,0c0.3,0,0.7,0,1-0.1l0.5,0c0.2,0,0.4,0,0.6,0.1c0.4,0.1,0.7,0.3,1,0.6c0.3,0.3,0.6,0.5,0.7,1.2
				c0,0.2,0,0.4-0.2,0.6c-0.1,0.2-0.3,0.3-0.4,0.4c-0.3,0.2-0.5,0.2-0.7,0.3c-0.4,0.1-0.8,0-1.2,0c-0.4-0.1-0.7-0.1-1.1-0.2
				c-0.3-0.1-0.7-0.2-1-0.3c-0.6-0.2-1.3-0.5-1.9-0.9c-0.3-0.2-0.6-0.4-0.9-0.6c-0.1-0.1-0.3-0.2-0.4-0.4c-0.1-0.1-0.2-0.4-0.2-0.6
				c0.1-0.2,0.3-0.3,0.5-0.3c0.2,0,0.3,0,0.5,0C306.5,265.3,306.8,265.4,307.1,265.4z"/>
		</g>
		<g>
			<path d="M279.6,261c1.1-0.2,2.3-0.2,3.4-0.1c0.6,0.1,1.2,0.2,1.7,0.3c0.6,0.2,1.2,0.3,1.8,0.9c0.2,0.1,0.3,0.4,0.4,0.7
				c0,0.1,0.1,0.3,0.1,0.5c0,0.1,0,0.2,0,0.2l0,0.1c-0.1,0.3-0.2,0.7-0.4,1c-0.2,0.3-0.5,0.6-0.8,0.8c-0.3,0.2-0.7,0.3-1.1,0.3
				c-0.8,0-1.3-0.3-1.8-0.7c-0.5-0.4-0.8-0.8-1.2-1.3c0.5,0.2,1,0.5,1.5,0.7c0.5,0.2,1,0.3,1.4,0.2c0.4-0.1,0.6-0.3,0.8-0.7
				c0.1-0.2,0.2-0.4,0.2-0.6l0-0.1c0,0,0,0,0,0c0,0,0,0,0,0c0,0,0,0-0.1,0c-0.2-0.2-0.7-0.4-1.2-0.6c-0.5-0.2-1-0.4-1.5-0.5
				C281.7,261.8,280.6,261.4,279.6,261z"/>
		</g>
		<g>
			<path d="M264.9,261c0.4,0.9,0.5,1.6,0.6,2.3c0.1,0.3,0.1,0.7,0.1,1l0.2,1.2c-1-0.1-1.7-1.1-1.8-2c-0.1-0.5,0-0.9,0.1-1.4
				C264.3,261.8,264.5,261.4,264.9,261z"/>
		</g>
		<g>
			<path d="M262.6,252.8c-1,1.4-2,2.6-2.9,3.8c-0.4,0.6-0.9,1.2-1.2,1.9c-0.3,0.7-0.5,1.4-0.6,2.2c-0.5-0.7-0.6-1.7-0.5-2.6
				c0.1-0.9,0.6-1.7,1.1-2.4c0.5-0.7,1.1-1.3,1.8-1.8C261,253.4,261.8,253,262.6,252.8z"/>
		</g>
		<g>
			<path d="M266.8,259.8c1.1-0.4,2.3-0.6,3.5-0.7c0.6,0,1.2,0,1.9,0.1c0.3,0.1,0.7,0.1,1.2,0.6c0.1,0.1,0.1,0.1,0.2,0.2
				c0,0.1,0.1,0.2,0.1,0.3l0,0.3c0,0.2,0,0.4,0,0.6c0,0.2-0.1,0.6-0.4,0.8c-0.2,0.2-0.5,0.3-0.7,0.4c-0.4,0.1-0.7,0.1-1.1,0.1
				l-0.5,0c-0.2,0-0.4,0-0.5-0.1c-0.3-0.1-0.6-0.2-0.9-0.3C268.5,261.5,267.6,260.7,266.8,259.8z M266.8,259.8
				c1.1,0.4,2.2,0.9,3.2,1.2c0.3,0.1,0.5,0.1,0.7,0.1c0.1,0,0.2,0,0.3,0l0.4,0c0.3,0,0.5-0.1,0.7-0.1c0.1,0,0.1,0,0.1,0
				c0,0,0,0.1,0,0c0,0,0-0.1,0-0.2l0-0.2c0-0.1,0,0,0,0c0,0,0,0,0,0.1c0.1,0.1-0.1-0.1-0.3-0.1c-0.5-0.1-1-0.2-1.6-0.3
				C269.1,260.1,268,260,266.8,259.8z"/>
		</g>
		<g>
			<path d="M260.7,256.3c0.8-0.4,1.7-0.6,2.7-0.6c0.5,0,0.9,0,1.5,0.2c0.3,0.1,0.6,0.2,0.9,0.6c0.2,0.2,0.2,0.4,0.3,0.7
				c0,0.3,0,0.4-0.1,0.7c-0.2,0.4-0.6,0.7-0.9,0.8c-0.3,0.1-0.6,0.1-0.9,0.1c-0.6,0-1-0.2-1.5-0.4
				C261.8,257.9,261,257.2,260.7,256.3z M260.7,256.3c0.8,0.5,1.5,0.8,2.3,0.9c0.4,0.1,0.8,0.1,1.1,0.1c0.2,0,0.3,0,0.4-0.1
				c0.1,0,0.1-0.1,0.1,0c0,0,0,0,0,0c0,0,0,0.1,0,0.1c0,0-0.1-0.1-0.2-0.1c-0.3-0.1-0.7-0.2-1.1-0.3
				C262.5,256.6,261.6,256.5,260.7,256.3z"/>
		</g>
		<g>
			<path d="M393.6,170.9c-0.4-2.7-0.8-5.4-1.2-8.1c-0.4-2.7-0.8-5.4-1.2-8.1c-0.4-2.7-0.7-5.4-1-8.1c-0.3-2.7-0.6-5.4-0.7-8.2
				c0.8,2.6,1.3,5.3,1.9,8c0.5,2.7,1,5.4,1.4,8.1c0.4,2.7,0.7,5.4,0.9,8.2C393.7,165.4,393.8,168.1,393.6,170.9z"/>
		</g>
		<g>
			<path class="st7" d="M336.4,132.7c0,0,9.3,26.3,19.9,31.5c0,0,15.4-10,23.6-28.7S336.4,132.7,336.4,132.7z"/>
			<g>
				<path d="M336.4,132.7c2.4,5.8,5.1,11.6,8.3,17c1.6,2.7,3.3,5.3,5.2,7.8c1.9,2.4,4.1,4.7,6.8,6l-0.9,0c2.9-2.1,5.7-4.5,8.3-7.1
					c2.6-2.6,5-5.4,7.2-8.3c2.2-2.9,4.2-6,5.9-9.3c0.4-0.8,0.8-1.6,1.2-2.5l0.6-1.2c0.2-0.4,0.3-0.8,0.5-1.2
					c0.5-1.6,0.6-3.3-0.5-4.3c-1-1.1-2.7-1.7-4.5-2c-1.7-0.3-3.6-0.4-5.4-0.4c-3.7,0-7.3,0.5-11,1
					C350.8,129.3,343.6,130.9,336.4,132.7z M336.4,132.7c3.5-1.2,7.1-2.3,10.7-3.2c3.6-1,7.2-1.8,10.9-2.5c3.7-0.7,7.4-1.2,11.1-1.3
					c1.9-0.1,3.8,0,5.7,0.3c1,0.2,1.9,0.4,2.9,0.7c0.9,0.4,1.9,0.9,2.7,1.7c0.8,0.8,1.2,2,1.3,3c0.1,1.1-0.1,2.1-0.4,3.1
					c-0.1,0.5-0.3,0.9-0.5,1.4l-0.6,1.3c-0.4,0.8-0.8,1.7-1.2,2.5c-1.7,3.3-3.8,6.5-6,9.5c-4.5,6-9.9,11.3-16.1,15.7l-0.4,0.3
					l-0.4-0.2c-3-1.6-5.2-4.1-7.1-6.7c-1.9-2.6-3.6-5.3-5-8.1c-1.5-2.8-2.8-5.7-4-8.6C338.5,138.7,337.3,135.7,336.4,132.7z"/>
			</g>
		</g>
		<g>
			<path class="st8" d="M342.6,126.6c0,0,4.4,23.3,13.4,27.8c0,0,13.1-8.5,20-24.4C382.9,114.1,342.6,126.6,342.6,126.6z"/>
			<g>
				<path d="M342.6,126.6c1.3,5.1,2.9,10.1,4.9,15c1,2.4,2.2,4.7,3.6,6.9c1.4,2.1,3.1,4.1,5.2,5.2l-0.9,0c2.4-1.7,4.6-3.7,6.7-5.8
					c2.1-2.1,4.1-4.3,5.9-6.7c0.9-1.2,1.7-2.4,2.6-3.6c0.8-1.3,1.6-2.5,2.3-3.8c0.8-1.3,1.4-2.6,2-4c0.6-1.3,1-2.6,0.8-3.8
					c-0.2-1.1-1.2-2-2.4-2.5c-1.3-0.5-2.7-0.7-4.2-0.8c-2.9-0.2-5.9,0.1-8.9,0.4C354.4,123.9,348.5,125.1,342.6,126.6z M342.6,126.6
					c2.8-1,5.7-1.9,8.7-2.7c2.9-0.8,5.9-1.5,8.9-2c3-0.5,6-0.9,9.1-0.8c1.6,0.1,3.1,0.2,4.7,0.8c0.8,0.3,1.6,0.7,2.2,1.3
					c0.7,0.6,1.2,1.5,1.4,2.4c0.4,1.8-0.2,3.5-0.8,4.9c-0.7,1.4-1.3,2.8-2,4.1c-1.5,2.7-3.1,5.3-5,7.7c-3.8,4.8-8.1,9.2-13.3,12.7
					l-0.4,0.3l-0.4-0.2c-1.3-0.7-2.4-1.6-3.3-2.6c-0.9-1-1.7-2.2-2.4-3.3c-1.4-2.3-2.5-4.8-3.4-7.3c-0.9-2.5-1.7-5-2.3-7.6
					C343.5,131.8,343,129.2,342.6,126.6z"/>
			</g>
		</g>
		<g>
			<path class="st7" d="M360.7,186.6h12.1c0,0-1.3-16-17.4-16.7s-23.2,15.8-22.4,25c0.6,7.3,1.5,16.8,15.5,20.5s25-13.7,23.7-22.7
				c0,0-6.9,1.1-12.5,0.8c-5.6-0.3-8.9-0.6-8.9-0.6l-0.1,7.9c0,0,4.2,2.8,9,2.3c0,0-5.2,4.9-10.7,1.3s-5.5-17-0.1-20.9
				C354.3,179.5,358.6,182.2,360.7,186.6z"/>
			<g>
				<path d="M360.7,186.6l12.1-0.1l-0.1,0.1c-0.3-2.7-1.2-5.3-2.5-7.6c-1.3-2.3-3.1-4.4-5.3-5.9c-4.5-2.9-10.2-3.5-15.4-2.3
					c-5.2,1.3-9.6,4.9-12.3,9.5c-1.4,2.3-2.4,4.8-3.1,7.3c-0.7,2.6-1,5.2-0.7,7.9c0.2,2.7,0.6,5.3,1.4,7.9c0.8,2.5,2.2,4.8,4.1,6.6
					c1.9,1.8,4.3,3.1,6.8,4c0.6,0.3,1.3,0.4,1.9,0.6l1,0.3l1,0.2c1.3,0.2,2.6,0.3,3.9,0.2c2.6-0.2,5.1-1.2,7.3-2.6
					c2.2-1.4,4.2-3.3,5.8-5.4c1.6-2.1,2.9-4.4,3.9-6.9c0.9-2.5,1.5-5.1,1.2-7.7l0.5,0.4c-3.6,0.5-7.1,0.8-10.7,0.8
					c-1.8,0-3.6-0.2-5.4-0.3l-5.4-0.4l0.5-0.4l-0.2,7.9l-0.2-0.3c1.3,0.8,2.7,1.4,4.2,1.8c0.7,0.2,1.5,0.3,2.3,0.4
					c0.8,0.1,1.5,0.1,2.3,0l1.1-0.1l-0.8,0.7c-1.6,1.4-3.6,2.4-5.7,2.6c-1.1,0.1-2.1,0-3.2-0.3c-1-0.4-2-0.8-2.8-1.5
					c-1.6-1.4-2.6-3.4-3.1-5.4c-0.5-2-0.6-4.1-0.5-6.2c0.2-2.1,0.6-4.1,1.5-6c0.2-0.5,0.5-0.9,0.8-1.3c0.3-0.4,0.6-0.8,1-1.2
					c0.8-0.7,1.6-1.3,2.6-1.7c0.9-0.4,2-0.7,3-0.8c1,0,2.1,0.2,3,0.7C358.5,183,359.8,184.8,360.7,186.6z M360.7,186.6
					c-0.9-1.8-2.3-3.5-4.1-4.4c-0.9-0.4-1.9-0.7-3-0.6c-1,0.1-2,0.4-2.9,0.8c-0.9,0.5-1.8,1-2.5,1.7c-0.4,0.3-0.6,0.8-1,1.2
					c-0.3,0.4-0.5,0.9-0.7,1.3c-0.9,1.8-1.3,3.9-1.4,5.9c-0.1,2,0,4.1,0.6,6c0.5,1.9,1.4,3.8,2.9,5.1c0.7,0.7,1.7,1.1,2.6,1.4
					c0.9,0.3,1.9,0.3,2.9,0.2c2-0.2,3.8-1.2,5.3-2.5l0.3,0.6c-0.8,0.1-1.6,0.1-2.4,0c-0.8-0.1-1.6-0.2-2.4-0.4
					c-0.8-0.2-1.5-0.5-2.3-0.8c-0.7-0.3-1.4-0.7-2.2-1.1l-0.2-0.1l0-0.2l0.1-7.9l0-0.4l0.5,0l5.3,0.3c1.8,0.1,3.6,0.3,5.3,0.3
					c3.5,0,7.1-0.4,10.6-0.9l0.5-0.1l0.1,0.5c0.4,2.8-0.3,5.6-1.2,8.2c-1,2.6-2.3,5-4,7.2c-1.7,2.2-3.7,4.1-6,5.6
					c-2.3,1.5-5,2.5-7.8,2.8c-1.4,0.1-2.8,0-4.2-0.3l-1-0.2l-1-0.3c-0.7-0.2-1.3-0.4-2-0.6c-2.6-0.9-5.1-2.3-7.1-4.2
					c-2-1.9-3.5-4.4-4.4-7c-0.8-2.6-1.2-5.4-1.4-8.1c-0.3-2.7,0-5.5,0.7-8.2c0.7-2.7,1.8-5.2,3.2-7.5c2.8-4.7,7.4-8.4,12.8-9.7
					c0.7-0.2,1.4-0.2,2-0.4l1-0.2l1,0c0.7,0,1.4,0,2.1,0l2,0.2c2.7,0.4,5.4,1.3,7.6,2.9c2.3,1.6,4.1,3.7,5.3,6.1
					c1.3,2.4,2.1,5,2.4,7.8l0,0.1l-0.1,0L360.7,186.6z"/>
			</g>
		</g>
		<path class="st2" d="M379.8,251.7c0,0,0-3,4.2-4.7c4.3-1.7,8.4-2.7,11.1-6.9c0,0,11.4-2.7,15.6-1c0,0,0.3,1.7,0.3,3.4
			c0,0,7.5-3.4,11.2-12.3c0,0-12.6,12.8-31,4.4c0,0-0.6,4.4-4.9,7.5C382,245.2,379.5,247.4,379.8,251.7z"/>
		<path class="st2" d="M430,240.2c0,0,11.4-1,14.6-7.7c0,0-1.6-5.3-2.7-5.7C441.9,226.8,437.3,236.7,430,240.2z"/>
		<path class="st9" d="M392.5,176.2c0,0,6.4,1.2,9.4,0.3c0,0-2.6,1.1-6.5,12.1c0,0-3,7.2-6.1,6.5
			C387.7,194.7,392.5,176.2,392.5,176.2z"/>
		<path class="st9" d="M393.6,200.2c0,0,5.1-11.1,9.1-14.7c0,0-5.3,18-2.8,34c0,0,0.9-6.4,4.7-10.6c0,0-3.1,14.9-2.1,26.5
			c0,0-6.7-0.7-10.1-2.5C392.2,232.9,387.8,222.8,393.6,200.2z"/>
		<path class="st4" d="M371.5,237.2c0,0-0.3,2.9-0.8,4.1c-0.6,1.2,2-2.5,2.4-2.2c0.3,0.3-2.5,5.9-2,5.7c0.5-0.1,4-1.7,4.5-1
			c0.4,0.7-4.8,4.7-4.9,6c-0.1,1.3,3.7-0.4,4.3,0c0.5,0.4-0.8,2.1-2.3,3.4c-1.5,1.3-7,3.9-11,4.1c0,0,2.4-4.4,3.9-6.4
			c1.5-2,3.6-8.5,4.2-14L371.5,237.2z"/>
		<path class="st2" d="M278.9,162.9c0,0,13.9-2,18-8.5c0,0,0.5,2.3-1.8,6.1c-2.3,3.9-4.8,7.4-4.8,7.4L278.9,162.9z"/>
		<path class="st10" d="M306.9,150l10.9-7.5c0,0,0.3,23.6,16.1,39.7c0,0-4.6-0.4-8.1-2.8l1.8,7.2c0,0-15.7,10.8-13.7,19l-6.2-4.9
			l11.8-30.5l-5.2-14.5l-10.8,7.5c0,0,2.1-5.7,2.6-7.7C306.6,154.2,306.9,150,306.9,150z"/>
		<path class="st10" d="M393.1,166c0,0-4,13.5-9.7,19.6c0,0,4.5-1.7,9.1-10.1l1.1-4.6L393.1,166z"/>
		<path class="st9" d="M232.5,160.1c0,0,2.3-3.9,7.4-5.7c0,0-8.2,10.5-6.7,17.6c0,0,2.3-0.8,4-3.3c0,0,1.3,7.9,6.4,11.6
			c0,0-1.8,5-1.3,13.3c0,0-2.8-4-8-7.8C229,181.9,229,169.6,232.5,160.1z"/>
		<g>
			<path class="st1" d="M305.3,85.6c0,0-5.4-8.9-10.8-3.5c-5.5,5.4-5.3,13.9-3.3,17.7s7,12.3,13.1,11.9
				C310.4,111.3,309.2,91.4,305.3,85.6z"/>
			<g>
				<path d="M305.3,85.6c-0.9-1.4-2-2.7-3.3-3.7c-1.3-1-2.9-1.7-4.5-1.4c-1.6,0.3-2.9,1.5-3.9,2.8c-1,1.3-1.8,2.7-2.3,4.3
					c-1.1,3.1-1.3,6.4-0.6,9.6c0.2,0.8,0.4,1.5,0.8,2.2c0.4,0.7,0.8,1.4,1.2,2.1c0.8,1.4,1.7,2.8,2.7,4.1c1,1.3,2.1,2.5,3.3,3.5
					c1.2,1,2.6,1.8,4.2,2.1c0.8,0.1,1.6,0.2,2.2-0.1c0.7-0.3,1.2-0.9,1.6-1.6c0.8-1.4,1.2-3,1.4-4.6c0.5-3.2,0.4-6.6,0-9.9
					c-0.2-1.6-0.5-3.3-0.9-4.9C306.7,88.6,306.2,87,305.3,85.6z M305.3,85.6c0.9,1.4,1.4,3,1.9,4.6c0.4,1.6,0.8,3.2,1,4.9
					c0.5,3.3,0.7,6.6,0.3,9.9c-0.2,1.7-0.5,3.3-1.3,4.9c-0.4,0.8-1,1.5-1.8,1.9c-0.4,0.2-0.9,0.3-1.4,0.3c-0.4,0-0.9,0-1.3-0.1
					c-1.7-0.3-3.3-1.1-4.6-2.2c-1.3-1.1-2.5-2.3-3.5-3.6c-1-1.3-1.9-2.8-2.7-4.2c-0.4-0.7-0.8-1.4-1.2-2.2c-0.4-0.8-0.6-1.6-0.8-2.4
					c-0.7-3.3-0.3-6.8,0.9-9.9c0.6-1.6,1.5-3,2.6-4.3c1.1-1.2,2.4-2.4,4.1-2.7c1.7-0.3,3.3,0.5,4.6,1.5
					C303.4,82.9,304.5,84.2,305.3,85.6z"/>
			</g>
		</g>
		<g>
			<path class="st1" d="M410.9,92c0,0,5.5-6.2,10-5s6.6,12,3.1,18.5c-4.2,7.8-12.6,11.7-17.4,10.8S410.9,92,410.9,92z"/>
			<g>
				<path d="M410.9,92c1.1-1.3,2.3-2.4,3.7-3.4c1.3-1,2.9-1.8,4.6-2c0.9-0.1,1.7,0,2.6,0.4c0.8,0.4,1.4,1,1.9,1.7c1,1.4,1.6,3,2,4.6
					c0.8,3.3,0.7,6.8-0.3,10c-0.5,1.6-1.4,3.1-2.3,4.5c-1,1.4-2.1,2.7-3.3,3.8c-2.5,2.2-5.5,4-8.9,4.8c-0.8,0.2-1.7,0.3-2.5,0.3
					c-0.4,0-0.9,0-1.3-0.1c-0.4,0-1-0.2-1.4-0.6c-0.7-0.8-0.7-1.8-0.7-2.6c0-0.9,0.1-1.7,0.2-2.5c0.5-3.3,1.4-6.5,2.4-9.7
					C408.5,98.2,409.7,95.1,410.9,92z M410.9,92c-1.1,3.1-2.1,6.3-3,9.4c-0.9,3.2-1.7,6.4-2.1,9.6c-0.1,0.8-0.2,1.6-0.1,2.4
					c0,0.8,0.2,1.6,0.6,2.1c0.2,0.2,0.4,0.3,0.9,0.3c0.4,0.1,0.8,0.1,1.2,0.1c0.8,0,1.6-0.1,2.4-0.3c3.1-0.8,6-2.5,8.4-4.6
					c1.2-1.1,2.3-2.3,3.2-3.6c0.9-1.3,1.8-2.7,2.2-4.2c1-3.1,1-6.4,0.4-9.6c-0.3-1.6-0.9-3.1-1.8-4.4c-0.4-0.7-1-1.2-1.7-1.6
					c-0.7-0.4-1.5-0.5-2.3-0.4c-1.6,0.1-3.1,0.9-4.5,1.8C413.4,89.8,412.1,90.9,410.9,92z"/>
			</g>
		</g>
		<g>
			<path class="st3" d="M355,18.3c0,0-17.5-1.2-36.9,12.2s-20.9,37.7-11,62.9c0,0-8.1,6.2-7.6,11.1c0,0-0.1,2.5,4,0c0,0-3.5,7-1,8.4
				s3.8-2.9,3.8-2.9s-0.5,5.6,6.6,6.1s85.8,7,85.8,7s-0.3,3.5,2.3,2.8s3.4-5.7,3.4-5.7s3.5,1.4,4.3-0.8c0.8-2.2-1.3-7.6-1.3-7.6
				s1.9,1.5,3.4,0.7c1.5-0.8-2.8-7.9-2.8-7.9s9.6-23,8.3-49c-1.3-26-31.1-34.5-37.3-35.3c0,0,5-0.1,5.5-3.1s-6.6-1.7-9.7,0
				c0,0,4.3-6.4,1.2-7.1s-6,6.1-6,6.1s-5.3-17-11.8-14.7c-4.4,1.6,3.8,11.1,3.8,11.1s-14.3-5.9-17.4-1.1
				C342.5,14.6,355,18.3,355,18.3z"/>
			<path d="M355.4,18.4c0,0.1-0.1,0.2-0.3,0.3c-0.1,0.1-0.4,0.1-0.4,0.1l-0.2,0l-0.4,0l-0.8,0c-0.6,0-1.1,0-1.7,0.1
				c-1.1,0.1-2.2,0.2-3.4,0.3c-2.2,0.3-4.4,0.7-6.6,1.2c-4.4,1.1-8.6,2.6-12.7,4.5c-4.1,1.9-8,4.2-11.6,6.9
				c-3.6,2.6-6.7,5.9-9.2,9.7c-2.4,3.7-4.2,7.9-5.2,12.2c-1,4.4-1.3,8.9-1.2,13.3c0.3,9,2.7,17.8,5.9,26.2l0.2,0.5l-0.4,0.3l0,0
				c-1.7,1.4-3.4,3-4.8,4.8c-0.7,0.9-1.3,1.8-1.8,2.8c-0.5,1-0.8,2-0.7,2.9l0,0.1c0,0,0,0.2,0.1,0.2c0,0,0,0,0.1,0.1
				c0.1,0,0.4,0,0.7,0c0.3-0.1,0.7-0.2,1-0.4c0.3-0.2,0.7-0.4,1-0.5l2.3-1.3l-1.1,2.3c-0.5,1-0.9,2.1-1.3,3.2
				c-0.3,1.1-0.6,2.3-0.5,3.2c0.1,0.5,0.2,0.7,0.5,0.8c0.4,0.2,0.6,0.2,0.9,0c0.6-0.3,1.2-1.5,1.5-2.4l2-6.3l-0.2,6.7
				c0,0.7,0.2,1.7,0.6,2.4c0.4,0.7,1,1.3,1.7,1.8c0.7,0.5,1.6,0.7,2.5,0.8c0.9,0.1,1.9,0.2,2.9,0.3l12,1l24,1.9l47.9,3.9l1,0.1
				l-0.1,1c0,0.3,0,0.8,0.1,1.1c0.1,0.3,0.2,0.6,0.3,0.6c0.1,0.1,0.3,0.1,0.6,0.1c0.3-0.1,0.5-0.2,0.8-0.4c0.5-0.4,0.9-1.2,1.3-2
				c0.3-0.8,0.6-1.7,0.7-2.5l0.2-1.2l1.1,0.4c0.8,0.3,1.9,0.5,2.5,0.3c0.3-0.1,0.4-0.2,0.5-0.5c0.1-0.3,0.2-0.7,0.1-1.2
				c0-0.9-0.2-1.9-0.5-2.9c-0.3-1-0.6-2-0.9-2.9l-1.1-3l2.6,1.9c0.6,0.5,1.6,0.8,2.1,0.7c0.1,0,0.1,0,0.2-0.1l0.1,0
				c-0.1,0-0.1,0.1-0.1,0.1c-0.1,0.2,0,0.1,0-0.1c0-0.3-0.1-0.8-0.3-1.3c-0.6-1.8-1.6-3.6-2.6-5.4l-0.2-0.4l0.2-0.4
				c1.6-4,2.9-8.2,4-12.4c1.1-4.2,2.1-8.5,2.8-12.8c1.4-8.6,2.1-17.4,1.3-26c-0.3-2.1-0.8-4.2-1.5-6.3c-0.7-2-1.7-4-2.8-5.8
				c-2.3-3.7-5.3-6.9-8.6-9.5c-3.4-2.7-7.2-4.9-11.2-6.7c-2-0.9-4-1.7-6.1-2.3c-2.1-0.7-4.2-1.3-6.3-1.6l-5.3-0.8l5.3-0.3
				c1.4-0.1,2.9-0.4,3.9-1.1c0.5-0.4,0.9-0.9,1-1.4c0.1-0.6-0.1-0.8-0.7-1.1c-1.2-0.4-2.7-0.2-4.1,0.1c-1.4,0.3-2.8,0.7-4.1,1.4
				l-1.8,0.9l1.1-1.7c0.8-1.2,1.5-2.4,1.9-3.7c0.2-0.6,0.4-1.3,0.3-1.9c0-0.3-0.2-0.5-0.3-0.6c-0.2-0.1-0.5-0.2-0.8-0.2
				c-0.6,0-1.2,0.3-1.7,0.7c-0.5,0.4-1,0.9-1.4,1.5c-0.8,1.1-1.5,2.4-2.1,3.6l-0.4,1l-0.3-1c-0.8-2.6-1.9-5.2-3.1-7.7
				c-0.6-1.2-1.3-2.4-2.1-3.5c-0.8-1.1-1.7-2.2-2.8-2.9c-0.6-0.4-1.2-0.6-1.8-0.6c-0.6,0-1.3,0.1-1.8,0.4c-0.5,0.3-0.7,1-0.7,1.6
				c0,0.6,0.2,1.3,0.5,1.9c1.1,2.5,2.7,4.8,4.5,7l0.5,0.6l-0.7-0.3l0,0c-2.5-0.9-5-1.7-7.6-2.2c-1.3-0.3-2.6-0.5-3.9-0.5
				c-1.3-0.1-2.6,0-3.8,0.4c-0.6,0.2-1.1,0.5-1.5,1c-0.4,0.5-0.5,0.8-0.2,1.3c0.6,0.9,1.8,1.6,2.9,2.3c1.1,0.6,2.3,1.1,3.6,1.6
				c0.6,0.2,1.2,0.5,1.8,0.7l0.9,0.3l0.5,0.2l0.2,0.1l0.1,0l0.1,0l0,0c0,0,0,0,0.1,0C355.3,18,355.5,18.3,355.4,18.4z M354.5,18.3
				c-0.1,0.1,0,0.4,0.2,0.5c0.1,0,0.1,0,0.1,0l0,0l-0.1,0l-0.1,0l-0.2-0.1l-0.5-0.2l-0.9-0.3c-0.6-0.2-1.3-0.5-1.9-0.7
				c-1.2-0.5-2.5-1-3.7-1.7c-0.6-0.3-1.2-0.7-1.7-1.1c-0.6-0.4-1.1-0.9-1.5-1.6c-0.2-0.3-0.3-0.8-0.2-1.3c0-0.2,0.1-0.4,0.2-0.6
				c0.1-0.2,0.2-0.3,0.3-0.4c0.5-0.6,1.2-0.9,1.8-1.1c1.4-0.5,2.7-0.5,4.1-0.4c1.3,0.1,2.7,0.3,4,0.6c2.6,0.6,5.1,1.5,7.6,2.5l0,0
				l-0.2,0.3c-1.8-2.2-3.5-4.4-4.6-7c-0.3-0.7-0.5-1.4-0.5-2.1c-0.1-0.7,0.2-1.6,0.9-2.1c1.3-0.9,3-0.6,4.3,0.1
				c1.3,0.8,2.2,1.9,3.1,3c0.8,1.1,1.6,2.4,2.2,3.6c1.3,2.5,2.4,5.1,3.3,7.8l-0.8,0c0.6-1.4,1.3-2.6,2.2-3.8
				c0.5-0.6,0.9-1.2,1.5-1.7c0.6-0.5,1.4-0.9,2.2-0.9c0.4,0,0.9,0.1,1.3,0.4c0.4,0.3,0.6,0.8,0.7,1.2c0.1,0.9-0.1,1.6-0.3,2.3
				c-0.5,1.4-1.2,2.7-2,4l-0.7-0.7c1.4-0.8,2.8-1.2,4.3-1.5c0.7-0.2,1.5-0.3,2.3-0.3c0.8,0,1.6,0,2.4,0.2c0.4,0.1,0.9,0.4,1.2,0.8
				c0.3,0.5,0.3,1.1,0.2,1.5c-0.2,0.9-0.8,1.6-1.5,2.1c-1.4,0.9-3,1.2-4.5,1.3l0.1-1.1c2.2,0.3,4.4,0.9,6.5,1.6
				c2.1,0.7,4.2,1.5,6.2,2.4c4.1,1.8,7.9,4,11.5,6.8c3.5,2.7,6.6,6,9,9.8c1.2,1.9,2.2,3.9,2.9,6c0.7,2.1,1.3,4.3,1.6,6.5
				c0.9,8.9,0.2,17.7-1.1,26.5c-0.7,4.4-1.6,8.7-2.7,13c-1.1,4.3-2.4,8.5-4,12.7l-0.1-0.8c0.5,0.9,1,1.8,1.5,2.8
				c0.5,0.9,0.9,1.9,1.3,2.9c0.2,0.5,0.4,1.1,0.4,1.8c0,0.3,0,0.8-0.4,1.4c-0.1,0.1-0.3,0.2-0.4,0.3l-0.3,0.1
				c-0.2,0.1-0.4,0.1-0.5,0.2c-0.7,0.2-1.4,0-2-0.2c-0.6-0.2-1.1-0.5-1.6-0.9l1.4-1.1c0.4,1,0.7,2.1,1,3.1c0.3,1.1,0.5,2.1,0.6,3.3
				c0,0.6,0,1.2-0.3,2c-0.3,0.7-1,1.4-1.7,1.6c-0.7,0.2-1.4,0.2-2,0.1c-0.6-0.1-1.2-0.2-1.8-0.4l1.3-0.8c-0.2,1-0.4,2-0.8,2.9
				c-0.4,0.9-0.9,1.9-1.8,2.7c-0.4,0.4-1.1,0.7-1.7,0.8c-0.6,0.1-1.5,0.1-2.1-0.4c-0.7-0.5-0.9-1.2-1.1-1.8
				c-0.1-0.6-0.2-1.1-0.1-1.7l0.9,1.1l-47.9-4l-24-2l-12-1c-1-0.1-2-0.1-3.1-0.3c-1.1-0.2-2.2-0.5-3.1-1.1c-1-0.6-1.9-1.5-2.4-2.5
				c-0.5-1.1-0.8-2.1-0.7-3.4l1.8,0.3c-0.2,0.7-0.5,1.3-0.8,1.9c-0.4,0.6-0.8,1.2-1.6,1.6c-0.4,0.2-0.9,0.3-1.3,0.3
				c-0.2,0-0.4-0.1-0.7-0.1c-0.2-0.1-0.4-0.2-0.6-0.2c-0.4-0.2-0.8-0.6-1-1c-0.2-0.4-0.3-0.8-0.4-1.2c-0.2-1.5,0.2-2.7,0.6-3.9
				c0.4-1.2,0.9-2.3,1.4-3.5l1.2,1.1c-0.4,0.2-0.7,0.4-1.2,0.6c-0.4,0.2-0.8,0.4-1.3,0.5c-0.5,0.1-1,0.2-1.7-0.1
				c-0.3-0.1-0.6-0.4-0.8-0.8c-0.2-0.3-0.2-0.6-0.2-1l0,0.1c-0.1-1.4,0.3-2.7,0.9-3.8c0.5-1.1,1.2-2.1,2-3c0.8-0.9,1.6-1.8,2.4-2.6
				c0.9-0.8,1.7-1.6,2.7-2.3l0,0l-0.2,0.8c-3.2-8.5-5.6-17.5-5.9-26.6c-0.1-4.6,0.2-9.2,1.2-13.7c1.1-4.5,2.9-8.8,5.5-12.6
				c2.5-3.8,5.7-7.3,9.5-9.9c3.7-2.7,7.6-5,11.8-7c4.1-1.9,8.5-3.5,12.9-4.5c2.2-0.5,4.5-0.9,6.7-1.2c1.1-0.1,2.3-0.2,3.4-0.3
				c0.6,0,1.1,0,1.7-0.1l0.9,0l0.4,0l0.2,0c0,0-0.1,0-0.2,0.1C354.5,18,354.4,18.2,354.5,18.3z"/>
		</g>
		<g>
			<path class="st1" d="M316.5,92.6c0,0-10,4.1-7,14.9s23.4,31.3,49.9,32.5s44.4-18.3,46.1-31.6c0.9-7.3-3.9-10.6-3.9-10.6
				S414.3,71,404,59.1s-23.8-8.1-31.1-0.6c0,0,0.9,3.1-1.2,2.8c-2.1-0.3-4.7-2-4.7-2s2.8,12.8-2.9,14s-4.1-9.6-4.1-9.6
				s-1.4,5-4.8,3.7c-3.4-1.3-0.5-7.9-0.5-7.9s-11.7-12.2-27.5-8C311.3,55.8,310,79.4,316.5,92.6z"/>
			<path d="M316.5,92.6c-2.9,1.4-5.4,3.6-6.6,6.6c-0.6,1.5-0.9,3.1-0.9,4.6c0.1,0.8,0.1,1.6,0.3,2.4l0.3,1.2
				c0.1,0.4,0.3,0.7,0.4,1.1c1.1,3,2.9,5.7,4.8,8.2c2,2.5,4.2,4.8,6.6,6.9c9.5,8.5,21.4,14.3,34.1,15.8c6.3,0.8,12.7,0.4,18.9-1.3
				c6.1-1.7,11.9-4.5,16.9-8.4c0.6-0.5,1.2-1,1.8-1.5c0.6-0.5,1.2-1,1.8-1.6c1.1-1.1,2.2-2.2,3.2-3.5c2.1-2.4,3.8-5.1,5.1-7.9
				c1.3-2.8,2.3-5.9,2.2-9c-0.1-3.1-1.5-6.2-3.8-8l-0.3-0.2l0.1-0.3c2.6-5.7,4.5-11.8,5.6-17.9c0.5-3.1,0.8-6.2,0.6-9.3
				c-0.1-1.6-0.3-3.1-0.7-4.6c-0.4-1.5-1-2.9-1.7-4.2c-3.4-5.1-9-9-15.2-9.4c-3.1-0.2-6.2,0.4-9,1.6c-2.8,1.2-5.5,3-7.7,5.2l0.1-0.4
				c0.2,0.8,0.3,1.6,0,2.5c-0.1,0.5-0.7,0.9-1.2,0.9c-0.5,0-0.9-0.1-1.2-0.2c-1.5-0.4-2.8-1.1-4.1-1.9l0.6-0.4l0,0
				c0.6,2.3,1,4.6,1,7c0,1.2,0,2.4-0.3,3.6c-0.3,1.2-0.8,2.5-1.9,3.5c-0.6,0.5-1.3,0.8-2,0.9c-0.7,0.1-1.4,0.1-2.2-0.1
				c-0.7-0.3-1.4-0.8-1.7-1.4c-0.4-0.6-0.6-1.2-0.8-1.8c-0.6-2.5-0.3-4.9,0.2-7.2l0.7,0.1l0,0c-0.3,1.3-0.9,2.6-2,3.6
				c-0.6,0.5-1.4,0.8-2.2,0.7c-0.4,0-0.8-0.1-1.1-0.2c-0.3-0.2-0.7-0.3-1-0.6c-0.6-0.6-0.9-1.3-1-2c-0.1-0.7-0.1-1.4,0.1-2.1
				c0.2-1.3,0.7-2.6,1.3-3.8l0.1,0.3l0,0c-4.7-4.3-10.7-7.4-16.9-8.2c-3.1-0.4-6.4-0.3-9.4,0.5c-3.1,0.6-5.9,2.2-8.2,4.4
				c-2.2,2.2-3.8,5.1-4.9,8.1c-1,3-1.6,6.2-1.8,9.4c-0.2,3.2,0,6.4,0.5,9.6C314.2,86.5,315.1,89.7,316.5,92.6z M316.5,92.6
				c-2.9-5.8-4.1-12.4-3.9-18.9c0.1-3.3,0.6-6.5,1.7-9.6c1.1-3.1,2.7-6.1,5-8.5c2.3-2.4,5.4-4.1,8.6-4.8c3.2-0.8,6.6-0.9,9.8-0.5
				c6.6,1,12.6,4.3,17.2,8.9l0,0l0.1,0.1l-0.1,0.2c-0.4,1.2-0.7,2.5-0.9,3.7c-0.1,0.6-0.1,1.2,0,1.8c0.1,0.6,0.3,1.1,0.7,1.4
				c0.2,0.2,0.4,0.3,0.6,0.4c0.3,0.1,0.5,0.2,0.8,0.2c0.5,0,1-0.1,1.5-0.5c0.9-0.7,1.6-1.8,2-2.9l0,0l0.7,0.1c0,1.1,0,2.3,0.1,3.4
				c0.1,1.1,0.3,2.2,0.6,3.2c0.3,1,0.9,1.8,1.6,2c0.4,0.1,0.8,0.1,1.2,0c0.4-0.1,0.8-0.3,1.2-0.5c0.7-0.5,1.1-1.5,1.4-2.5
				c0.3-1,0.4-2.1,0.5-3.2c0.1-2.2,0-4.5-0.3-6.8l0,0l-0.2-0.9l0.8,0.5c1.2,0.7,2.5,1.4,3.9,1.8c0.3,0.1,0.7,0.2,0.9,0.1
				c0.3,0,0.4-0.1,0.5-0.4c0.2-0.5,0.1-1.3-0.1-1.9l-0.1-0.2l0.2-0.2c2.3-2.3,5-4.2,7.9-5.4c3-1.3,6.2-1.9,9.5-1.7
				c3.2,0.2,6.4,1.3,9.1,3.1c0.7,0.4,1.4,0.9,2,1.4c0.6,0.5,1.3,1,1.8,1.6c0.6,0.6,1.1,1.1,1.7,1.8l0.8,1c0.2,0.3,0.4,0.7,0.7,1
				c0.8,1.4,1.4,2.9,1.9,4.5c0.4,1.6,0.6,3.2,0.7,4.8c0.2,3.2-0.1,6.4-0.7,9.6c-1.2,6.3-3.2,12.3-5.8,18.1l-0.1-0.5
				c2.6,2.1,4.1,5.4,4.1,8.7c0.1,3.3-0.9,6.5-2.3,9.4c-1.4,2.9-3.1,5.6-5.2,8.1c-1,1.3-2.2,2.4-3.3,3.5c-0.6,0.6-1.2,1.1-1.8,1.6
				c-0.6,0.5-1.2,1.1-1.8,1.5c-5.1,3.9-10.9,6.8-17.1,8.4c-6.2,1.7-12.7,2-19.1,1.2c-12.7-1.6-24.7-7.5-34.2-16.1
				c-2.4-2.1-4.5-4.5-6.6-7c-1.9-2.5-3.7-5.2-4.8-8.2c-0.1-0.4-0.3-0.7-0.4-1.1l-0.2-1.2c-0.2-0.8-0.2-1.6-0.3-2.4
				c0-1.6,0.3-3.2,0.9-4.7C311.1,96.2,313.6,94,316.5,92.6z"/>
		</g>
		<g>
			<path class="st1" d="M374.8,98.2c0,0,13.2-2.1,19.5-1.4c0,0,7.8-11.3,0.8-22.3c-7.1-11-17.4-6.9-17.4-6.9S369.1,81.2,374.8,98.2z
				"/>
			<path d="M374.8,98.2c3.2-0.5,6.5-1,9.7-1.3c1.6-0.2,3.3-0.3,4.9-0.4c1.6-0.1,3.3-0.1,4.9,0.1l-0.1,0.1c1.9-3.1,3.2-6.6,3.5-10.2
				c0.3-3.6-0.3-7.3-2.1-10.5c-1.7-3.1-4.2-6-7.5-7.6c-3.2-1.6-7.1-1.8-10.5-0.7l0.1-0.1c-1.3,2.2-2.3,4.7-3.1,7.2
				c-0.8,2.5-1.3,5.1-1.5,7.7c-0.2,2.6-0.3,5.3,0,7.9C373.4,93.1,374.1,95.7,374.8,98.2z M374.8,98.2c-0.8-2.5-1.5-5.1-1.8-7.7
				c-0.2-1.3-0.2-2.6-0.3-3.9c0-0.7,0-1.3,0-2l0-1l0.1-1c0.2-2.6,0.7-5.2,1.5-7.8c0.8-2.5,1.8-5,3.1-7.3l0-0.1l0.1,0
				c3.5-1.2,7.5-1,10.8,0.6c3.4,1.6,5.9,4.6,7.7,7.8c1.8,3.2,2.4,7.1,2,10.7c-0.4,3.7-1.7,7.2-3.7,10.3l0,0.1l-0.1,0
				c-1.6-0.2-3.2-0.2-4.9-0.1c-1.6,0.1-3.3,0.2-4.9,0.3C381.3,97.4,378.1,97.7,374.8,98.2z"/>
		</g>
		<g>
			<path d="M374.2,98.5c1.9-0.9,3.8-1.4,5.8-1.9c2-0.4,4-0.7,6-0.9c2-0.1,4.1,0,6.1,0.2c2,0.3,4,0.8,5.9,1.7c-2-0.1-4-0.1-6-0.1
				c-2,0-3.9,0.1-5.9,0.2l-5.9,0.4C378.3,98.3,376.3,98.5,374.2,98.5z"/>
		</g>
		<path class="st20" d="M324.3,91.1c0,0,4.5,0.1,8.7,1.4c5.4,1.6,9.2,3.3,12.8,1.8c0,0,2.3-4.2,2-9.1c-0.3-4.9-1.7-14.6-5.7-17.6
			c-3.4-2.6-16.1-0.3-18.9,9.3C321.2,83.5,324.3,91.1,324.3,91.1z"/>
		<g>
			<path d="M320.7,91.5c2.1-0.6,4.4-0.5,6.6-0.4c2.2,0.2,4.4,0.6,6.6,1.1c2.2,0.5,4.3,1.1,6.4,1.6c1.1,0.2,2.1,0.4,3,0.2
				c0.9-0.2,1.9-0.7,2.9-1.1l0,0c0.5-0.2,1.1,0,1.3,0.6c0.2,0.5,0,1.1-0.6,1.3c0,0-0.1,0-0.1,0c-1,0.3-2,0.8-3.4,0.9
				c-1.3,0.1-2.5-0.2-3.6-0.5c-2.2-0.6-4.2-1.4-6.3-2.1c-2.1-0.7-4.2-1.2-6.4-1.6C325.1,91.3,322.8,91.1,320.7,91.5z"/>
		</g>
		<g>
			<path class="st1" d="M349.3,101.3c0,0-4.4,0.2-5.5-2.4s4-7.8,10.1-8.9s14.8-0.2,18.9,5.3c4.1,5.5-0.7,7.9-1.4,8"/>
			<path d="M349.3,101.3c-1.1,0.1-2.2,0-3.2-0.4c-0.5-0.2-1-0.4-1.5-0.7c-0.4-0.3-0.8-0.8-1.1-1.3c-0.4-1.2,0.1-2.4,0.7-3.3
				c0.6-0.9,1.4-1.8,2.2-2.5c1.7-1.4,3.6-2.5,5.7-3.2c2.1-0.7,4.3-0.9,6.5-0.9c2.2,0,4.4,0.3,6.5,0.9c2.1,0.6,4.2,1.5,5.9,2.9
				c0.9,0.7,1.6,1.5,2.2,2.4c0.6,0.9,1.1,1.9,1.4,3c0.2,1.1,0.1,2.3-0.6,3.2c-0.6,0.9-1.6,1.6-2.6,1.8c1-0.3,1.9-1.1,2.4-2
				c0.5-0.9,0.6-2,0.3-3c-0.6-2-2-3.7-3.6-4.9c-3.3-2.5-7.7-3.4-11.8-3.4c-2.1,0-4.2,0.2-6.2,0.8c-2,0.6-3.9,1.6-5.5,2.9
				c-0.8,0.6-1.6,1.4-2.2,2.2c-0.6,0.8-1,1.8-0.7,2.8c0.2,0.5,0.5,0.9,0.8,1.2c0.4,0.3,0.8,0.6,1.3,0.8
				C347.2,101.1,348.3,101.3,349.3,101.3z"/>
		</g>
		<g>
			<polygon points="360.7,85.6 361.2,89.3 360.2,89.3 			"/>
		</g>
		<g>
			<path d="M356.3,55.7c-1.1,2.3-1.8,4.8-2.2,7.2l-1-0.2C353.9,60.3,354.9,57.9,356.3,55.7z"/>
		</g>
		<g>
			<path d="M330.5,108.7c2.6,0.7,5.2,1.6,7.7,2.7c0.6,0.3,1.2,0.6,1.8,1.2c0.3,0.4,0.4,0.5,0.7,0.8c0.2,0.2,0.5,0.4,0.7,0.7
				c1,0.8,2.1,1.6,3.2,2.3c2.3,1.3,4.7,2.4,7.2,3.1c2.5,0.7,5.2,1,7.8,0.9c2.7-0.2,5.4-0.4,8-0.8c2.6-0.4,5.2-1.1,7.4-2.4
				c1.1-0.7,2.1-1.5,3.1-2.4l3-2.7c1-0.9,2.1-1.8,3.1-2.6c1.1-0.8,2.2-1.7,3.5-2c-0.6,0.2-1.2,0.6-1.7,1c-0.5,0.4-1,0.9-1.5,1.3
				c-1,0.9-1.9,1.9-2.9,2.8l-2.9,2.9c-1,0.9-2,1.9-3.1,2.7c-2.3,1.6-5.1,2.3-7.8,2.9c-2.7,0.5-5.4,0.7-8.1,0.9
				c-5.6,0.3-11.1-1.5-15.7-4.5c-1.1-0.8-2.3-1.6-3.3-2.5c-0.2-0.2-0.5-0.5-0.7-0.8c-0.2-0.2-0.5-0.7-0.6-0.8
				c-0.4-0.4-1-0.8-1.5-1.1C335.5,110.8,333,109.8,330.5,108.7z"/>
		</g>
		<g>
			<path d="M328.6,111.7c0.1-1.1,0.7-2.2,1.4-3c0.7-0.9,1.7-1.6,2.7-2.1c1-0.5,2.1-0.8,3.3-0.9c0.6-0.1,1.1-0.1,1.7-0.1
				c0.6,0.1,1.1,0.1,1.7,0.2c-0.5,0.1-1.1,0.2-1.6,0.3c-0.5,0.1-1.1,0.2-1.6,0.3c-1,0.3-2,0.6-3,1.1
				C331.3,108.4,329.7,109.8,328.6,111.7z"/>
		</g>
		<g>
			<path d="M381.6,104.5c1.1-0.1,2.2,0.1,3.3,0.5c1.1,0.4,2.1,0.9,2.9,1.7c0.4,0.4,0.8,0.8,1.2,1.3c0.3,0.5,0.6,1,0.8,1.5
				c0.5,1,0.5,2.2,0.5,3.3c-0.3-1-0.6-2.1-1.2-2.9c-0.5-0.9-1.1-1.7-1.9-2.3C385.6,106.1,383.7,105.2,381.6,104.5z"/>
		</g>
		<g>
			<polygon points="353.6,17.8 361.6,18.8 353.6,18.8 			"/>
		</g>
		<g>
			<path class="st15" d="M317,42.5c1.6-3.3,4.2-6.3,7.6-8.1c3.4-1.9,7.6-2.4,11.4-1.7c3.7,0.5,7.4,1.7,10.8,2.9
				c3.4,1.3,6.7,2.3,10.1,2.5c3.4,0.3,6.9,0,10.5-0.5c3.6-0.4,7.1-1.2,10.9-1.4c3.8-0.4,7.7,0,11.3,1.2c3.6,1.3,6.8,3.3,9.6,5.7
				c-3.3-1.6-6.6-3.1-10.1-3.8c-3.5-0.7-6.9-0.6-10.4,0c-3.5,0.6-7,1.4-10.7,2.1c-3.7,0.6-7.5,1-11.4,0.7c-3.9-0.3-7.7-1.6-11.1-2.9
				c-1.7-0.7-3.4-1.3-5-1.9c-1.7-0.5-3.4-1.1-5.1-1.5c-0.4-0.1-0.9-0.2-1.3-0.3l-1.2-0.2c-0.4,0-0.8,0-1.3-0.1c-0.4,0-0.8-0.1-1.3,0
				c-1.7,0-3.4,0.4-5,1C322.2,37.4,319.3,39.7,317,42.5z"/>
		</g>
		<path class="st16" d="M346,100.8c0,0,2.2-0.5,4-1.7c1.8-1.2,4.4-2.5,8.5-2.1s6.2,2.1,7.9,3.9c1.7,1.8,5.7,1.6,7.9,0.1
			c0,0-2,3.8-6.1,3.1c-4.2-0.7-5.3-1.7-7-0.6c-1.7,1.1-1.7,3.9-1.7,3.9s-0.2-4.9-2.4-5.5C353.9,100.9,349.3,102,346,100.8z"/>
		<path class="st2" d="M415.5,100c0,0,2.6-1.4,5.4-0.6c0,0,0.7-2.7-1.3-2.7C417.5,96.6,415.5,100,415.5,100z"/>
		<path class="st18" d="M420.9,96.7c0,0-2.2-2.3-7.3,5.8c0,0,5.9,1.4,0.4,5.8"/>
		<path class="st2" d="M294.2,93.5c0,0,1.3-1.2,3.2-0.7c1.8,0.5,2.9,2.5,2.9,2.5s-1-4.8-2.9-5.4C295.4,89.2,294,90.8,294.2,93.5z"/>
		<path class="st18" d="M295.3,89.6c0,0,3.6-2.1,5.7,6.9c0,0-3.3,0.3-3.4,2.8s3.4,4.3,3.4,4.3"/>
		<g>
			<path d="M353.1,126.1c1.5,0.6,3,1,4.6,1.2c1.5,0.2,3.1,0.3,4.6,0.1c1.5-0.2,3.1-0.5,4.5-1.1c1.5-0.5,2.9-1.3,4.3-2.1
				c-0.6,0.5-1.2,1.1-1.8,1.6c-0.7,0.4-1.3,0.9-2.1,1.2c-1.5,0.8-3.1,1.2-4.7,1.4c-1.6,0.2-3.3,0.1-4.9-0.3
				C356,127.7,354.5,127.1,353.1,126.1z"/>
		</g>
		<g>
			<path d="M267.2,159.5c2.1,0.2,4.2,0.6,6.2,1.1c2.1,0.5,4.1,1.1,6.1,1.7c2,0.7,4,1.5,5.9,2.4c1.9,0.9,3.8,2.1,5.2,3.6
				c-1.8-1.1-3.7-1.8-5.7-2.6c-1.9-0.7-3.9-1.4-5.9-2.1C275.1,162.3,271.2,161.1,267.2,159.5z"/>
		</g>
		<g>
			<path class="st7" d="M393.1,164.2c0,0,15.2,2.5,31.1-18.9c0,0,2.3,5.8,2.7,12.7c0,0-6.1,7.2-16.9,11.3c0,0-8.8,3.6-16.4,1.6
				L393.1,164.2z"/>
			<g>
				<path d="M393.1,164.2c1.6,0.1,3.1-0.1,4.7-0.4c1.5-0.3,3-0.8,4.5-1.3c2.9-1.1,5.6-2.7,8.1-4.5c2.6-1.7,4.8-3.9,7-6.1
					c1.1-1.1,2.1-2.3,3.1-3.5l2.9-3.7l1.1-1.4l0.6,1.6c0.4,1.1,0.7,2.1,1,3.2c0.3,1.1,0.6,2.1,0.8,3.2c0.5,2.2,0.8,4.4,0.9,6.6
					l0,0.4l-0.3,0.3c-2.2,2.4-4.6,4.4-7.3,6.2c-2.6,1.8-5.4,3.3-8.3,4.5c-2.9,1.2-6,2.1-9.2,2.4c-3.1,0.4-6.4,0.3-9.4-0.6l-0.2-0.1
					l0-0.2L393.1,164.2z M393.1,164.2l0.8,6.6l-0.2-0.3c3,0.6,6.1,0.5,9.1,0c3-0.5,5.9-1.4,8.7-2.7c2.8-1.2,5.4-2.8,7.9-4.5
					c2.5-1.8,4.9-3.7,6.8-5.9l-0.2,0.7c-0.2-2.1-0.4-4.2-0.9-6.3c-0.2-1-0.5-2.1-0.8-3.1c-0.3-1-0.6-2.1-1-3l1.7,0.2l-3,3.7
					c-1.1,1.2-2.2,2.4-3.3,3.5l-1.8,1.6l-0.9,0.8l-0.9,0.7l-1.9,1.5c-0.7,0.5-1.3,0.9-2,1.4c-2.7,1.7-5.6,3.2-8.7,4.1
					c-1.5,0.4-3.1,0.8-4.7,1C396.3,164.5,394.7,164.5,393.1,164.2z"/>
			</g>
		</g>
		<g>
			<path class="st7" d="M290.3,126c0,0,14,4.4,16.1,16.6c2.2,12.2-2.7,20.7-2.7,20.7l-4.3,4c0,0,2.5-12.4,0.6-19.7
				c-2-7.3-6.6-13.3-14.6-17.3C285.4,130.2,287.9,127.1,290.3,126z"/>
			<g>
				<path d="M290.3,126c1.8,0.5,3.6,1.3,5.3,2.2c1.7,0.9,3.3,1.9,4.8,3.2c1.5,1.2,2.9,2.6,3.9,4.3l0.4,0.6l0.4,0.6
					c0.2,0.4,0.5,0.9,0.7,1.3l0.6,1.4c0.1,0.2,0.2,0.5,0.3,0.7l0.2,0.7c1,3.8,1.3,7.7,0.9,11.5c-0.4,3.9-1.3,7.7-3.1,11.3l-0.1,0.1
					l-0.1,0.1l-4.3,4l-2.2,2.1l0.6-3c0.7-3.5,1.1-7,1.3-10.6c0.2-3.5,0.1-7.1-1.1-10.4c-1-3.3-2.8-6.4-5.1-9.1
					c-2.3-2.6-5.2-4.8-8.3-6.5l-0.3-0.2l0.2-0.2c0.7-0.8,1.5-1.6,2.3-2.3C288.4,127,289.3,126.4,290.3,126z M290.3,126
					c-1,0.5-1.8,1.2-2.5,2c-0.8,0.8-1.5,1.6-2.1,2.4l-0.1-0.4c3.3,1.5,6.4,3.5,9,6.2c2.6,2.6,4.5,5.9,5.8,9.4c0.6,1.7,1,3.6,1.2,5.5
					c0.2,1.8,0.2,3.7,0.2,5.5c-0.1,3.7-0.6,7.3-1.2,10.9l-1.7-0.9l4.3-4l-0.2,0.2c0.8-1.5,1.5-3.3,1.9-5.1c0.5-1.8,0.8-3.6,1.1-5.4
					c0.4-3.6,0.3-7.4-0.5-11c-0.8-3.5-3-6.7-5.6-9.3C297,129.4,293.7,127.4,290.3,126z"/>
			</g>
		</g>
		<g>
			<path d="M319.5,169.6c0.9,2.5,1.9,5,2.9,7.4c0.5,1.2,1,2.5,1.6,3.7c0.6,1.2,1.1,2.4,1.8,3.5c-0.8-1.1-1.4-2.3-2-3.4
				c-0.6-1.2-1.2-2.4-1.8-3.6c-1.2-2.4-2.3-4.8-3.4-7.2L319.5,169.6z"/>
		</g>
		<g>
			<path d="M329.4,236.4c3.7-1.7,7.6-2.8,11.6-3.5c2-0.4,4-0.6,6-0.8c1-0.1,2-0.1,3-0.1c1,0,2-0.1,3.1,0c4.1,0.1,8.1,0.8,12.1,1.8
				c1,0.3,2,0.6,2.9,0.9c1,0.4,1.9,0.8,2.8,1.2l1.4,0.6c0.4,0.2,0.9,0.5,1.3,0.8c0.9,0.5,1.7,1,2.6,1.6c-1-0.2-2-0.5-2.9-0.8
				l-1.4-0.4l-1.5-0.3c-1-0.2-1.9-0.5-2.9-0.7c-1-0.2-1.9-0.3-2.9-0.5c-3.9-0.6-7.7-1-11.7-1.1c-1-0.1-2-0.1-2.9-0.1c-1,0-2,0-2.9,0
				c-2,0-3.9,0.2-5.9,0.2C337.3,235.5,333.4,235.9,329.4,236.4z"/>
		</g>
	</g>
</g>
</svg>
