<?xml version="1.0" standalone="no"?>
<!DOCTYPE svg PUBLIC "-//W3C//DTD SVG 1.1//EN" "http://www.w3.org/Graphics/SVG/1.1/DTD/svg11.dtd" >
<svg>
<metadata>
Created by FontForge 20120731 at Sun Aug  6 21:33:12 2017
 By www
</metadata>
<defs>
<font id="RichmondW01-ExtraBold" horiz-adv-x="630" >
  <font-face 
    font-family="RichmondW01-ExtraBold"
    font-weight="800"
    font-stretch="normal"
    units-per-em="1000"
    panose-1="2 0 5 4 5 0 0 2 0 3"
    ascent="768"
    descent="-232"
    x-height="465"
    cap-height="727"
    bbox="-30 -202 1308 972"
    underline-thickness="50"
    underline-position="-100"
    unicode-range="U+0020-2122"
  />
<missing-glyph horiz-adv-x="0" 
 />
    <glyph glyph-name=".notdef" horiz-adv-x="0" 
 />
    <glyph glyph-name="glyph1" horiz-adv-x="0" 
 />
    <glyph glyph-name="glyph2" horiz-adv-x="0" 
 />
    <glyph glyph-name="space" unicode=" " horiz-adv-x="200" 
 />
    <glyph glyph-name="exclam" unicode="!" horiz-adv-x="333" 
d="M103 -11v161l166 20v-163zM235 249l-96 -13l-49 474l191 27l2 -2z" />
    <glyph glyph-name="quotedbl" unicode="&#x22;" horiz-adv-x="442" 
d="M170 446h-93l-37 281h163zM369 446h-93l-37 281h163z" />
    <glyph glyph-name="numbersign" unicode="#" horiz-adv-x="643" 
d="M306 408l-20 -87h63l19 87h-62zM588 407h-85l-20 -87h86l-24 -109h-86l-40 -182h-134l40 182h-62l-43 -182h-136l40 182h-93l27 109h91l18 88h-91l23 106h92l42 189h138l-42 -190h62l42 190h135l-42 -189h85z" />
    <glyph glyph-name="dollar" unicode="$" horiz-adv-x="463" 
d="M439 244q0 -71 -40.5 -118t-104.5 -63v-132l-114 -18v142q-43 3 -88 12t-83 27l33 151h4q12 -10 29 -19.5t37 -17t41.5 -12t41.5 -4.5q23 0 36.5 11t13.5 29q0 22 -13.5 35.5t-43.5 33.5l-65 42q-40 26 -65 61.5t-25 96.5q0 71 39.5 117.5t107.5 63.5v76l114 25v-92
q32 -4 70 -14.5t70 -24.5l-33 -151h-4q-8 7 -21.5 14t-30 12.5t-34 9t-33.5 3.5q-29 0 -40 -10t-11 -24q0 -18 11.5 -28.5t44.5 -31.5l48 -31q23 -15 43 -30.5t34.5 -35t22.5 -45.5t8 -60z" />
    <glyph glyph-name="percent" unicode="%" horiz-adv-x="947" 
d="M263 508q0 31 -4 51t-10 31.5t-14 15.5t-16 4t-16 -4t-14 -15t-10 -31t-4 -52t4 -53t10 -33t13.5 -17t15.5 -5t16 4.5t14.5 16.5t10.5 33t4 54zM770 200q0 32 -3.5 52.5t-9.5 32t-14 16t-17 4.5t-17 -4.5t-14 -16t-9.5 -32t-3.5 -52.5q0 -62 13.5 -83.5t30.5 -21.5
q8 0 16 5t14 17t10 32.5t4 50.5zM353 -2h-146l335 622h-159q10 -19 16.5 -51t6.5 -59q0 -52 -15 -92t-40.5 -67.5t-59.5 -41.5t-72 -14q-35 0 -68 13t-59 40t-42 67.5t-16 95.5q0 57 17.5 97.5t45 67t62.5 39t71 12.5h485l20 -22zM913 205q0 -55 -16 -95.5t-42 -67
t-59.5 -39.5t-68.5 -13t-68.5 13t-59.5 39.5t-42 67t-16 95.5q0 53 16 93.5t42 68t59.5 41.5t68.5 14t68.5 -14t59.5 -42t42 -68.5t16 -92.5z" />
    <glyph glyph-name="ampersand" unicode="&#x26;" horiz-adv-x="736" 
d="M245 300q-23 -16 -36 -34.5t-13 -46.5q0 -42 25 -68t70 -26q24 0 41.5 5t36.5 16zM697 295h-58q-5 -17 -11 -36t-14 -38t-16.5 -36t-17.5 -30l126 -155h-221l-29 37q-23 -13 -45.5 -21.5t-46 -14t-50 -8t-57.5 -2.5q-52 0 -97 14t-78.5 42t-52.5 69t-19 95q0 37 13 68
t33 56.5t45.5 45.5t50.5 35q-17 21 -28.5 37.5t-19 33t-11 34.5t-3.5 43q0 38 15.5 70t43.5 54.5t67.5 35t88.5 12.5q54 0 94 -10.5t70 -29.5l-31 -138h-3q-8 7 -16.5 14.5t-19.5 13.5t-25.5 10t-33.5 4q-62 0 -62 -41q0 -17 9 -31.5t26 -36.5l160 -201q8 28 13.5 62.5
t6.5 76.5h233z" />
    <glyph glyph-name="quotesingle" unicode="'" horiz-adv-x="243" 
d="M170 446h-93l-37 281h163z" />
    <glyph glyph-name="parenleft" unicode="(" horiz-adv-x="390" 
d="M236 -113q-26 32 -55 76.5t-53.5 102.5t-41 129.5t-16.5 156.5q0 77 18 145.5t44 124.5t54.5 99t49.5 70h140q-22 -38 -44 -85.5t-40 -103t-29 -118.5t-11 -132q0 -80 9.5 -146t26.5 -122.5t40.5 -105t51.5 -91.5h-144z" />
    <glyph glyph-name="parenright" unicode=")" horiz-adv-x="390" 
d="M320 352q0 -85 -16.5 -156.5t-41 -129.5t-54 -102.5t-54.5 -76.5h-144q28 43 51.5 91.5t40.5 105t26.5 122.5t9.5 146q0 69 -11 132t-29 118.5t-40 103t-44 85.5h140q21 -27 49.5 -70t54.5 -99t44 -124.5t18 -145.5z" />
    <glyph glyph-name="asterisk" unicode="*" horiz-adv-x="399" 
d="M313 469l-72 46l12 -82h-107l10 80l-60 -57l-59 82l85 45l-90 36l54 85l70 -48l-10 78h107l-12 -77l61 55l59 -82l-84 -42l90 -35z" />
    <glyph glyph-name="plus" unicode="+" horiz-adv-x="525" 
d="M332 237v-172h-139v172h-172v121h172v172h139v-172h172v-121h-172z" />
    <glyph glyph-name="comma" unicode="," horiz-adv-x="266" 
d="M223 71q0 -46 -13 -83.5t-35.5 -67.5t-51.5 -54t-61 -42l-40 34q22 32 34 75.5t12 97.5q0 17 -4 47.5t-16 70.5l167 21q4 -36 6 -62t2 -37z" />
    <glyph glyph-name="hyphen" unicode="-" horiz-adv-x="439" 
d="M382 239h-346l21 116h346z" />
    <glyph glyph-name="period" unicode="." horiz-adv-x="266" 
d="M50 -11v161l166 20v-163z" />
    <glyph glyph-name="slash" unicode="/" horiz-adv-x="400" 
d="M178 -111h-163l208 902h162z" />
    <glyph glyph-name="zero" unicode="0" 
d="M409 364q0 69 -8.5 112.5t-22 68t-30 33t-33.5 8.5q-18 0 -35 -9t-29.5 -33t-20.5 -67.5t-8 -112.5q0 -70 8 -113.5t21.5 -68t30 -33t33.5 -8.5t33.5 8.5t30 33t22 68t8.5 113.5zM600 364q0 -98 -23.5 -168.5t-63 -115.5t-91 -66.5t-107.5 -21.5t-107.5 21.5t-91 66.5
t-63 115.5t-23.5 168.5q0 94 23.5 164t62.5 116.5t90.5 69t108.5 22.5t108.5 -22.5t90.5 -69t62.5 -116.5t23.5 -164z" />
    <glyph glyph-name="one" unicode="1" 
d="M270 0v489l-159 -93l-34 154l359 194l20 -15v-729h-186z" />
    <glyph glyph-name="two" unicode="2" 
d="M558 0h-493l-15 36l239 304q38 48 57 85t19 76q0 16 -4.5 31.5t-16 27.5t-30.5 19.5t-48 7.5q-48 0 -91.5 -19.5t-75.5 -47.5h-4l-37 153q48 31 107.5 47.5t136.5 16.5q130 0 194 -58.5t64 -159.5q0 -35 -8 -66t-22.5 -60.5t-33.5 -57t-41 -55.5l-104 -130h240l2 -2z" />
    <glyph glyph-name="three" unicode="3" 
d="M574 215q0 -60 -23 -102.5t-61.5 -69t-89 -39t-105.5 -12.5q-45 0 -79 4t-61.5 11.5t-52 19.5t-51.5 27l37 162h5q38 -32 85 -54.5t108 -22.5q51 0 76 22t25 58q0 38 -32.5 58t-77.5 20h-62v150h45q54 0 79 20t25 58q0 30 -20 48.5t-71 18.5q-53 0 -99 -24t-81 -56h-4
l-33 158q38 28 96.5 47.5t147.5 19.5q54 0 100 -12.5t79.5 -37t52.5 -62t19 -86.5q0 -56 -28.5 -91t-70.5 -59v-2q25 -9 47.5 -26t39 -39.5t26 -49.5t9.5 -57z" />
    <glyph glyph-name="four" unicode="4" 
d="M586 159h-63v-159h-185v159h-305l-18 28l133 403h171l-90 -286h109v423h185v-423h91l2 -3z" />
    <glyph glyph-name="five" unicode="5" 
d="M569 252q0 -60 -22 -108.5t-63 -82t-99 -51.5t-129 -18q-37 0 -67.5 4t-57.5 12t-53 20t-53 29l36 148h3q12 -11 31.5 -23t44 -22.5t53 -17.5t60.5 -7q36 0 61 9t40 24.5t22 36.5t7 44q0 44 -28 68.5t-78 24.5q-60 0 -100.5 -10t-72.5 -23l-22 22l50 396h426l3 -3
l-34 -147h-238l-13 -95q16 2 24 2h14q55 0 102 -14t81 -42.5t53 -72t19 -103.5z" />
    <glyph glyph-name="six" unicode="6" 
d="M402 239q0 48 -25.5 73.5t-90.5 25.5q-11 0 -22 -2t-25 -4q-8 -19 -14 -45t-6 -50q0 -47 24 -73.5t69 -26.5t67.5 26.5t22.5 75.5zM591 239q0 -55 -20 -100.5t-56.5 -78.5t-87.5 -51t-113 -18t-114.5 16t-91 47t-60 77t-21.5 107q0 85 33.5 162t86.5 143.5t118.5 122
t129.5 99.5l149 -72v-5q-67 -44 -120.5 -97.5t-104.5 -110.5q55 -2 104.5 -18t87 -46t59 -74t21.5 -103z" />
    <glyph glyph-name="seven" unicode="7" 
d="M310 0h-208l251 577h-309l34 150h499l16 -25z" />
    <glyph glyph-name="eight" unicode="8" 
d="M402 218q0 30 -25 56t-61 41q-38 -14 -63 -40t-25 -57q0 -34 19 -56.5t69 -22.5q47 0 66.5 22t19.5 57zM383 526q0 29 -18 45.5t-49 16.5q-35 0 -52.5 -17t-17.5 -45q0 -26 20 -45.5t50 -32.5q29 13 48 33t19 45zM590 208q0 -50 -20 -90t-56 -68t-86.5 -43t-111.5 -15
q-69 0 -120.5 16.5t-86 45.5t-51.5 68.5t-17 85.5q0 33 9.5 61t26 51t38.5 40t47 27v2q-40 22 -66.5 55.5t-26.5 91.5q0 47 20.5 84.5t55 63t79 39t92.5 13.5q49 0 93.5 -14t78 -39.5t53 -61t19.5 -79.5q0 -54 -22 -91t-72 -63v-2q28 -10 51 -28.5t39.5 -42.5t25 -51.5
t8.5 -55.5z" />
    <glyph glyph-name="nine" unicode="9" 
d="M410 479q0 57 -25 83t-69 26q-41 0 -65 -25.5t-24 -84.5q0 -94 115 -94q11 0 22 1.5t25 3.5q8 19 14.5 42.5t6.5 47.5zM602 479q0 -78 -32.5 -152.5t-85 -142t-118.5 -126.5t-133 -106l-150 72v3q65 49 124 103.5t105 108.5q-55 2 -104.5 18t-87 45.5t-60 73t-22.5 102.5
q0 54 19.5 101.5t55.5 82t87 54.5t114 20q62 0 115 -17.5t91.5 -50.5t60 -80.5t21.5 -108.5z" />
    <glyph glyph-name="colon" unicode=":" horiz-adv-x="266" 
d="M50 -11v161l166 20v-163zM50 287v161l166 20v-163z" />
    <glyph glyph-name="semicolon" unicode=";" horiz-adv-x="266" 
d="M223 71q0 -46 -13 -83.5t-35.5 -67.5t-51.5 -54t-61 -42l-40 34q22 32 34 75.5t12 97.5q0 17 -4 47.5t-16 70.5l167 21q4 -36 6 -62t2 -37zM50 287v161l166 20v-163z" />
    <glyph glyph-name="less" unicode="&#x3c;" horiz-adv-x="534" 
d="M41 251v91l441 200v-139l-250 -107l250 -103v-142z" />
    <glyph glyph-name="equal" unicode="=" horiz-adv-x="525" 
d="M42 137v120h440v-120h-440zM42 334v122h440v-122h-440z" />
    <glyph glyph-name="greater" unicode="&#x3e;" horiz-adv-x="534" 
d="M41 51v142l250 103l-250 107v139l441 -200v-91z" />
    <glyph glyph-name="question" unicode="?" horiz-adv-x="491" 
d="M145 -11v161l166 20v-163zM466 543q0 -42 -15.5 -73.5t-40.5 -54.5t-56.5 -40t-63.5 -32l-13 -93l-98 -14l-26 168q40 15 66 29t41.5 28.5t21.5 30.5t6 35q0 34 -19 50.5t-54 16.5q-39 0 -67.5 -12t-57.5 -34h-2l-38 132q30 16 54 26.5t47 17t46.5 9.5t50.5 3
q46 0 85.5 -12.5t69 -37t46.5 -60.5t17 -83z" />
    <glyph glyph-name="at" unicode="@" horiz-adv-x="954" 
d="M509 236q-10 2 -21 2q-21 0 -32 -14t-11 -29q0 -18 11 -29.5t36 -11.5q4 0 8 0.5t9 1.5v80zM854 279q0 -51 -15.5 -93t-42 -72t-62 -46t-76.5 -16q-33 0 -59.5 7.5t-51.5 22.5q-20 -14 -41 -21.5t-46 -7.5q-29 0 -55 8.5t-45.5 26t-31.5 44.5t-12 64q0 34 12.5 59t34 41
t50 23.5t59.5 7.5q7 0 18.5 -1t18.5 -2v13q0 14 -9.5 22.5t-41.5 8.5q-23 0 -43.5 -8.5t-34.5 -21.5h-3l-39 99q29 16 64 26.5t68 10.5q81 0 121 -39.5t40 -111.5v-146q0 -27 29 -27q13 0 25.5 5.5t23 20t17 39.5t6.5 63q0 58 -15 105t-46 81t-77 52.5t-107 18.5
q-60 0 -108.5 -21.5t-82.5 -59t-52.5 -88.5t-18.5 -111q0 -63 17.5 -114.5t51 -88t82.5 -56.5t111 -20q31 0 54 5t56 18l38 -96q-41 -16 -74.5 -24t-73.5 -8q-96 0 -168.5 29t-121 80t-73 121.5t-24.5 153.5t28.5 153.5t79.5 122t122 80.5t157 29q85 0 153.5 -26t115.5 -73
t72.5 -114t25.5 -148z" />
    <glyph glyph-name="A" unicode="A" horiz-adv-x="702" 
d="M347 435h-3l-58 -189h118zM483 0l-35 106h-206l-35 -106h-201l298 727h98l294 -727h-213z" />
    <glyph glyph-name="B" unicode="B" horiz-adv-x="622" 
d="M407 229q0 45 -28 65.5t-77 20.5q-11 0 -23 -0.5t-24 -1.5v-177q11 -1 22 -1.5t22 -0.5q49 0 78.5 23.5t29.5 71.5zM373 522q0 34 -20 51t-65 17q-4 0 -13 -0.5t-20 -1.5v-140q10 0 19.5 -1t18.5 -1q38 0 59 19.5t21 56.5zM592 225q0 -106 -75.5 -169.5t-219.5 -63.5
q-26 0 -57 1t-62.5 2t-60 2.5t-47.5 3.5v624q0 24 -3.5 49t-8.5 39v4q32 6 90 12.5t137 6.5q128 0 199.5 -53t71.5 -142q0 -54 -21 -88t-56 -54v-2q18 -6 38 -19t36.5 -34t27.5 -50.5t11 -68.5z" />
    <glyph glyph-name="C" unicode="C" horiz-adv-x="640" 
d="M620 55q-42 -27 -95 -45t-129 -18q-85 0 -152.5 25.5t-115 73.5t-73 116t-25.5 152q0 82 24.5 151t71 119t113.5 78.5t152 28.5q46 0 81 -6t61.5 -15t47 -20.5t37.5 -23.5l-35 -151h-6q-22 27 -68 48.5t-114 21.5q-44 0 -76 -18.5t-53 -49.5t-31 -72.5t-10 -87.5t11 -87
t32.5 -71.5t53.5 -48.5t74 -18q62 0 107.5 20t74.5 46h7z" />
    <glyph glyph-name="D" unicode="D" horiz-adv-x="733" 
d="M510 364q0 118 -53 172t-163 54q-6 0 -17 -0.5t-19 -1.5v-449q11 -1 22.5 -1h19.5q103 0 156.5 56t53.5 170zM703 367q0 -94 -29.5 -164.5t-83 -117t-127 -70t-160.5 -23.5q-78 0 -132.5 2t-100.5 7v623q0 24 -4 50t-8 39v4q28 5 91.5 12t148.5 7q89 0 163.5 -22.5
t128 -68t83.5 -115t30 -163.5z" />
    <glyph glyph-name="E" unicode="E" horiz-adv-x="573" 
d="M518 0h-448v727h475l2 -2l-36 -148h-253v-123h241l2 -2l-35 -147h-208v-155h293l2 -2z" />
    <glyph glyph-name="F" unicode="F" horiz-adv-x="559" 
d="M513 577h-255v-143h238l2 -2l-32 -147h-208v-285h-188v727h471l2 -2z" />
    <glyph glyph-name="G" unicode="G" horiz-adv-x="724" 
d="M699 82q-29 -15 -63 -31t-72 -29t-80.5 -21.5t-88.5 -8.5q-72 0 -127 16.5t-95.5 45t-68 65.5t-44 78t-23.5 83.5t-7 80.5q0 72 21.5 140t66.5 120t114.5 83.5t166.5 31.5q45 0 78.5 -6t59.5 -16t45.5 -21.5t35.5 -21.5l-38 -154h-4q-21 27 -63 50t-114 23
q-34 0 -65.5 -13t-55.5 -40.5t-38.5 -70.5t-14.5 -104q0 -51 11.5 -92.5t33.5 -71t54.5 -45.5t74.5 -16q29 0 55.5 5.5t48.5 16.5v104h-110l-2 2l35 144h261v-252q0 -23 3.5 -43t8.5 -29v-3z" />
    <glyph glyph-name="H" unicode="H" horiz-adv-x="770" 
d="M511 0v289h-252v-289h-189v727h189v-287h252v287h189v-727h-189z" />
    <glyph glyph-name="I" unicode="I" horiz-adv-x="328" 
d="M70 0v727h188v-727h-188z" />
    <glyph glyph-name="J" unicode="J" horiz-adv-x="438" 
d="M378 231q0 -70 -17.5 -116t-48.5 -73.5t-73 -38.5t-91 -11q-41 0 -75 10t-61 23l32 141h4q13 -11 34.5 -20.5t46.5 -9.5q23 0 41.5 14.5t18.5 50.5v526h189v-496z" />
    <glyph glyph-name="K" unicode="K" horiz-adv-x="680" 
d="M407 385l258 -385h-223l-182 302h-2v-302h-188v727h188v-282h2l183 282h225z" />
    <glyph glyph-name="L" unicode="L" horiz-adv-x="566" 
d="M513 0h-443v727h188v-577h286l3 -3z" />
    <glyph glyph-name="M" unicode="M" horiz-adv-x="835" 
d="M620 0l-37 342h-2l-125 -242h-77l-125 243h-2l-37 -343h-189l107 727h93l193 -381h2l189 381h94l105 -727h-189z" />
    <glyph glyph-name="N" unicode="N" horiz-adv-x="740" 
d="M569 0l-320 391h-2v-391h-177v727h101l320 -382h2v382h177v-727h-101z" />
    <glyph glyph-name="O" unicode="O" horiz-adv-x="766" 
d="M541 364q0 109 -43.5 168t-115.5 59t-114.5 -59.5t-42.5 -167.5q0 -107 42 -167t115 -60q38 0 67.5 16.5t50 46t31 71.5t10.5 93zM736 364q0 -79 -23.5 -147t-68.5 -118t-111 -78.5t-151 -28.5q-84 0 -149.5 27.5t-110.5 77t-68.5 118t-23.5 149.5q0 82 25 150.5
t70.5 117.5t110.5 76.5t146 27.5q77 0 142 -25.5t112 -73.5t73.5 -117t26.5 -156z" />
    <glyph glyph-name="P" unicode="P" horiz-adv-x="603" 
d="M389 486q0 20 -6.5 38.5t-19.5 33t-32.5 23t-45.5 8.5h-12t-15 -1v-201q8 0 14 -0.5t10 -0.5q27 0 47 9t33.5 23t20 32t6.5 36zM578 489q0 -56 -21 -101.5t-59 -77.5t-91 -50t-118 -18q-5 0 -13 0.5t-18 0.5v-243h-188v635q0 24 -2 43.5t-10 38.5v3q13 2 36 5t52 5.5
t62 4t67 1.5q62 0 117 -14.5t96.5 -45t65.5 -77t24 -110.5z" />
    <glyph glyph-name="Q" unicode="Q" horiz-adv-x="766" 
d="M541 360q0 111 -43 171t-116 60t-115 -61t-42 -170t43.5 -166t113.5 -57q73 0 116 59t43 164zM736 360q0 -131 -59.5 -220t-177.5 -130v-2q14 -16 33.5 -21.5t54.5 -5.5q25 0 46 6.5t33 14.5l2 -2l-34 -161q-63 0 -109 8t-80.5 26t-59 47t-43.5 71q-75 7 -133 38
t-98 79.5t-60.5 113t-20.5 138.5q0 82 25 151.5t70.5 119t110.5 77.5t146 28q77 0 142 -26t112 -74.5t73.5 -118.5t26.5 -157z" />
    <glyph glyph-name="R" unicode="R" horiz-adv-x="658" 
d="M387 506q0 40 -23.5 63t-80.5 23h-11.5t-13.5 -1v-188q5 0 10 -0.5t8 -0.5q58 0 84.5 29t26.5 75zM424 0l-163 273h-3v-273h-188v627q0 32 -2 53.5t-10 38.5v1q10 1 33.5 4t54 5t67 4t73.5 2q61 0 113.5 -12t91.5 -38.5t61 -69.5t22 -105q0 -36 -11.5 -67.5t-31.5 -57
t-47 -44t-59 -29.5l221 -312h-222z" />
    <glyph glyph-name="S" unicode="S" horiz-adv-x="526" 
d="M501 207q0 -50 -21 -89.5t-57 -67.5t-85.5 -43t-106.5 -15q-37 0 -66 3t-53.5 9t-45.5 14t-41 18l36 155h4q26 -20 66.5 -35.5t96.5 -15.5q83 0 83 64q0 20 -13 37t-48 40l-74 47q-28 18 -51 37t-39.5 42t-25.5 52t-9 65q0 48 19.5 87t54 67t82 43.5t104.5 15.5
q54 0 101 -11.5t80 -26.5l-36 -151h-4q-17 14 -50 27t-83 13q-47 0 -62.5 -16t-15.5 -38q0 -10 2 -18t9.5 -16.5t21.5 -19.5t37 -26l72 -47q55 -35 86.5 -82.5t31.5 -117.5z" />
    <glyph glyph-name="T" unicode="T" horiz-adv-x="638" 
d="M599 577h-190v-577h-188v577h-213l33 150h589z" />
    <glyph glyph-name="U" unicode="U" horiz-adv-x="715" 
d="M655 80q-36 -23 -68.5 -39.5t-66.5 -27.5t-72.5 -16t-87.5 -5q-140 0 -220 70t-80 208v457h188v-479q0 -57 30 -84.5t82 -27.5q32 0 55 6.5t40 14.5v570h188v-541q0 -37 2 -60t10 -42v-4z" />
    <glyph glyph-name="V" unicode="V" horiz-adv-x="704" 
d="M398 0h-95l-297 727h214l126 -392q2 -8 5 -17.5t5 -18.5h2q2 10 4.5 19.5t4.5 17.5l129 391h202z" />
    <glyph glyph-name="W" unicode="W" horiz-adv-x="925" 
d="M680 0h-93l-125 350h-2l-122 -350h-92l-240 727h210l91 -362h3l114 362h90l110 -362h2l91 362h202z" />
    <glyph glyph-name="X" unicode="X" horiz-adv-x="697" 
d="M462 0l-114 245h-3l-108 -245h-225l214 371l-196 356h224l97 -235h3l96 235h216l-200 -355l219 -372h-223z" />
    <glyph glyph-name="Y" unicode="Y" horiz-adv-x="679" 
d="M430 314v-314h-188v315l-236 412h221l75 -150q11 -23 23 -51t21 -53h2q9 26 20 53t23 51l75 150h207z" />
    <glyph glyph-name="Z" unicode="Z" horiz-adv-x="643" 
d="M297 150h314l3 -3l-36 -147h-543l-11 24l325 553h-302l-2 2l34 148h527l13 -23z" />
    <glyph glyph-name="bracketleft" unicode="[" horiz-adv-x="386" 
d="M357 714h-96v-752h111l-15 -75h-267v904h286z" />
    <glyph glyph-name="backslash" unicode="\" horiz-adv-x="430" 
d="M237 -111l-207 902h162l208 -902h-163z" />
    <glyph glyph-name="bracketright" unicode="]" horiz-adv-x="386" 
d="M29 -113l-15 75h111v752h-96l-19 77h286v-904h-267z" />
    <glyph glyph-name="asciicircum" unicode="^" horiz-adv-x="500" 
d="M326 379l-79 199l-74 -199h-143l158 347h119l162 -347h-143z" />
    <glyph glyph-name="underscore" unicode="_" horiz-adv-x="550" 
d="M-2 -156v95h554v-95h-554z" />
    <glyph glyph-name="grave" unicode="`" horiz-adv-x="550" 
d="M230 545l-120 116h141l74 -116h-95z" />
    <glyph glyph-name="a" unicode="a" horiz-adv-x="509" 
d="M282 202q-8 2 -17 3t-20 1q-28 0 -41 -13.5t-13 -35.5q0 -23 13.5 -36t33.5 -13q12 0 24 2.5t20 5.5v86zM318 -11q-4 8 -9 24t-7 25h-2q-8 -7 -18 -15t-23 -15t-30 -11.5t-38 -4.5q-80 0 -121.5 43t-41.5 115q0 39 15 67.5t41 48t61 29t76 9.5q15 0 31 -1t30 -3v15
q0 19 -13.5 32t-46.5 13q-41 0 -65 -11.5t-44 -26.5h-3l-30 120q20 14 64.5 26.5t99.5 12.5q106 0 155 -41t49 -121v-228q0 -23 3.5 -42t11.5 -33v-3z" />
    <glyph glyph-name="b" unicode="b" horiz-adv-x="559" 
d="M364 241q0 60 -24 85.5t-66 25.5q-13 0 -25.5 -3t-22.5 -8v-221q6 -1 11 -1h10q60 0 88.5 28.5t28.5 93.5zM534 244q0 -59 -19.5 -106t-55.5 -79.5t-86 -49.5t-111 -17q-70 0 -125.5 9.5t-91.5 23.5v3q13 25 13 76v612l168 24v-278h2q8 4 30 11t49 7q46 0 87 -15t72 -45
t49.5 -74t18.5 -102z" />
    <glyph glyph-name="c" unicode="c" horiz-adv-x="468" 
d="M444 37q-34 -18 -71.5 -31.5t-90.5 -13.5q-56 0 -103.5 17.5t-81.5 49.5t-53 77t-19 101q0 58 20 103.5t55 76.5t82 47.5t100 16.5q54 0 91 -11t69 -28l-32 -136h-4q-21 19 -47 33t-73 14q-42 0 -66 -33t-24 -84q0 -60 25 -88t64 -28q47 0 74.5 14.5t46.5 31.5h4z" />
    <glyph glyph-name="d" unicode="d" horiz-adv-x="564" 
d="M334 346q-20 6 -42 6q-45 0 -70.5 -26.5t-25.5 -97.5q0 -60 27 -84t70 -24q13 0 23.5 2.5t17.5 5.5v218zM374 -11q-4 8 -7.5 21t-5.5 22h-2q-21 -17 -48 -28.5t-66 -11.5q-42 0 -82 17.5t-70.5 49t-49 74.5t-18.5 95q0 58 19 105t52 79.5t77.5 50t96.5 17.5
q19 0 35.5 -3.5t26.5 -7.5h2v247l169 25v-640q0 -23 4 -46.5t11 -37.5v-4z" />
    <glyph glyph-name="e" unicode="e" horiz-adv-x="501" 
d="M319 291q0 32 -13.5 50t-39.5 18q-58 0 -66 -68h119zM476 256q0 -9 -1 -26t-4 -40h-275q3 -33 22.5 -54.5t59.5 -21.5q50 0 81.5 13.5t54.5 31.5h3l30 -118q-15 -11 -31.5 -19.5t-37 -15.5t-46 -10.5t-59.5 -3.5q-54 0 -99.5 16.5t-78.5 48t-51.5 76t-18.5 100.5
q0 53 17.5 98.5t49.5 78.5t76.5 52t98.5 19q48 0 86.5 -16t65.5 -45t42 -70.5t15 -93.5z" />
    <glyph glyph-name="f" unicode="f" horiz-adv-x="374" 
d="M355 573h-1q-11 11 -28 19.5t-32 8.5q-23 0 -35 -14t-12 -38v-84h109l-24 -129h-85v-222q0 -38 -7.5 -89t-23.5 -101l-169 -55q15 60 23.5 108t8.5 90v269h-67l24 129h43v80q0 191 176 191q41 0 74 -10t55 -24z" />
    <glyph glyph-name="g" unicode="g" horiz-adv-x="561" 
d="M336 341q-11 4 -25 7.5t-26 3.5q-18 0 -34 -6t-28 -20t-19.5 -37.5t-7.5 -58.5q0 -60 27.5 -85t64.5 -25q14 0 26 1.5t22 6.5v213zM515 450q-5 -12 -8.5 -34t-3.5 -48v-350q0 -59 -18 -100.5t-51.5 -67.5t-81.5 -38t-107 -12q-50 0 -91 14.5t-68 28.5l31 130h2
q21 -18 56.5 -34t78.5 -16q39 0 60.5 18.5t21.5 53.5v22q-11 -7 -32.5 -16t-47.5 -9q-43 0 -84.5 16t-74 46t-52.5 72.5t-20 96.5q0 61 18.5 109t50 81t71.5 50t84 17q37 0 65 -11.5t45 -25.5h1q2 10 5.5 20.5t6.5 18.5l143 -30v-2z" />
    <glyph glyph-name="h" unicode="h" horiz-adv-x="583" 
d="M360 0v282q0 29 -12.5 42.5t-41.5 13.5q-25 0 -45 -14t-33 -28v-296h-168v717l168 24v-308h2q17 16 50 32t76 16q87 0 129.5 -41.5t42.5 -129.5v-310h-168z" />
    <glyph glyph-name="i" unicode="i" horiz-adv-x="288" 
d="M60 0v453l168 24v-477h-168zM60 564v151l168 23v-154z" />
    <glyph glyph-name="j" unicode="j" horiz-adv-x="308" 
d="M248 13q0 -90 -49 -146t-160 -69l-33 130l2 2q37 0 54.5 17t17.5 61v445l168 24v-464zM80 563v152l168 23v-154z" />
    <glyph glyph-name="k" unicode="k" horiz-adv-x="539" 
d="M336 0l-106 182h-2v-182h-168v716l168 25v-416h2l102 140h188l-172 -197l177 -268h-189z" />
    <glyph glyph-name="l" unicode="l" horiz-adv-x="288" 
d="M60 0v713l168 25v-738h-168z" />
    <glyph glyph-name="m" unicode="m" horiz-adv-x="878" 
d="M655 0v284q0 28 -13.5 41t-35.5 13q-28 0 -45 -11t-34 -28v-299h-168v291q0 23 -15.5 35t-35.5 12q-27 0 -46.5 -13.5t-33.5 -28.5v-296h-169v356q0 28 -3 52.5t-10 38.5v3l149 26q5 -11 8.5 -27t5.5 -30h2q10 9 24 20t32 20.5t40.5 15.5t49.5 6q55 0 84 -17.5t48 -42.5
q13 10 29 21t35.5 19.5t44 14t55.5 5.5q91 0 130.5 -43t39.5 -127v-311h-168z" />
    <glyph glyph-name="n" unicode="n" horiz-adv-x="582" 
d="M359 0v288q0 26 -14.5 38t-37.5 12q-26 0 -45.5 -13.5t-33.5 -28.5v-296h-169v373q0 21 -4 41t-9 34v2l149 26q4 -10 8 -27t6 -30h2q29 26 61.5 44t81.5 18q88 0 130.5 -40t42.5 -131v-310h-168z" />
    <glyph glyph-name="o" unicode="o" horiz-adv-x="545" 
d="M350 236q0 36 -7 58.5t-18 35t-24.5 17.5t-25.5 5q-15 0 -29 -5.5t-25 -19t-18 -35.5t-7 -56q0 -35 6.5 -57t18 -35.5t25.5 -18.5t29 -5q13 0 26 5t24 18t18 35.5t7 57.5zM520 236q0 -53 -18 -97.5t-50 -77t-77.5 -51t-99.5 -18.5t-100 18t-79.5 50.5t-52 77t-18.5 98.5
q0 53 18 98t51 77.5t79 51t102 18.5q50 0 94.5 -17t78 -48.5t53 -77t19.5 -102.5z" />
    <glyph glyph-name="p" unicode="p" horiz-adv-x="561" 
d="M368 238q0 31 -7 52.5t-18 35t-24.5 20t-27.5 6.5q-23 0 -37.5 -6.5t-25.5 -17.5v-202q8 -2 21 -4.5t23 -2.5q18 0 35 5t30.5 18.5t22 36.5t8.5 59zM536 243q0 -63 -19 -110.5t-51 -78.5t-75.5 -46.5t-91.5 -15.5q-8 0 -18 0.5t-20.5 2t-19.5 3t-13 3.5v-176l-168 -25
v548q0 29 -4 58t-10 44v1l145 30q4 -10 8 -22.5t6 -25.5h2q17 16 47.5 31.5t68.5 15.5q41 0 79.5 -13t68 -41t47.5 -73.5t18 -109.5z" />
    <glyph glyph-name="q" unicode="q" horiz-adv-x="561" 
d="M334 342q-8 3 -21.5 6.5t-25.5 3.5q-20 0 -37 -5.5t-29 -19.5t-19 -38t-7 -60q0 -33 7 -54t20 -33t30 -17t38 -5q9 0 22.5 2.5t21.5 5.5v214zM515 450q-7 -17 -9.5 -38.5t-2.5 -50.5v-535l-169 -26v211q-12 -7 -33.5 -12.5t-41.5 -5.5q-44 0 -86 12t-75 39t-53 71
t-20 108q0 60 19 108t50.5 81t71.5 50.5t82 17.5q23 0 42 -5t32.5 -11.5t22.5 -13t12 -9.5h2q2 8 6 21t7 20l143 -30v-2z" />
    <glyph glyph-name="r" unicode="r" horiz-adv-x="419" 
d="M371 318h-2q-8 5 -21.5 12.5t-41.5 7.5q-35 0 -56.5 -26.5t-21.5 -88.5v-223h-169v361q0 22 -2.5 47t-10.5 40v2l149 26q3 -10 8 -30.5t6 -37.5h2q20 29 47 51t62 22q29 0 47 -5t35 -13z" />
    <glyph glyph-name="s" unicode="s" horiz-adv-x="407" 
d="M387 140q0 -38 -16.5 -66t-44 -46t-63.5 -27t-76 -9q-54 0 -93.5 9.5t-73.5 24.5l32 130h4q23 -19 51 -34.5t57 -15.5q31 0 43 6.5t12 20.5q0 9 -6 19t-25 19l-57 27q-44 20 -69 49.5t-25 82.5q0 38 17 66.5t44.5 47t63.5 28t75 9.5q40 0 71.5 -7.5t66.5 -21.5l-28 -121
h-3q-14 12 -35.5 22.5t-50.5 10.5q-32 0 -43.5 -9t-11.5 -19q0 -8 6 -16.5t23 -16.5l57 -28q22 -11 40 -23t31 -27.5t20 -36t7 -48.5z" />
    <glyph glyph-name="t" unicode="t" horiz-adv-x="407" 
d="M395 26q-29 -14 -62 -24t-84 -10q-32 0 -61.5 8.5t-52 28t-36 50.5t-13.5 76v186h-74l-3 2l34 122h43v121l167 22v-143h132l2 -2l-33 -123h-101v-182q0 -17 8.5 -26t31.5 -9q19 0 37 9.5t32 21.5h3z" />
    <glyph glyph-name="u" unicode="u" horiz-adv-x="580" 
d="M390 -12q-4 7 -7.5 21.5t-5.5 23.5h-2q-19 -14 -46.5 -27.5t-77.5 -13.5q-40 0 -75.5 11t-62.5 33.5t-42.5 56.5t-15.5 80v271l168 24v-289q0 -28 14.5 -44.5t49.5 -16.5q20 0 36 5.5t29 14.5v306l167 24v-375q0 -17 3.5 -40.5t11.5 -37.5v-2z" />
    <glyph glyph-name="v" unicode="v" horiz-adv-x="527" 
d="M312 0h-92l-214 465h174l62 -170q6 -17 12 -36.5t11 -36.5h2q5 17 11 38.5t12 36.5l64 168h167z" />
    <glyph glyph-name="w" unicode="w" horiz-adv-x="727" 
d="M546 0h-87l-96 244h-2l-93 -244h-89l-173 465h175l61 -230h3l71 230h91l79 -234h2l57 234h176z" />
    <glyph glyph-name="x" unicode="x" horiz-adv-x="540" 
d="M331 0l-67 138h-4l-69 -138h-179l147 234l-145 231h197l70 -134h3l67 134h175l-141 -231l143 -234h-197z" />
    <glyph glyph-name="y" unicode="y" horiz-adv-x="513" 
d="M314 -17q-16 -41 -31 -72.5t-37 -55t-55.5 -37.5t-85.5 -18l-32 132l3 3q37 0 61 8t33 32l22 58l-186 432h180l76 -256h3l73 256h169z" />
    <glyph glyph-name="z" unicode="z" horiz-adv-x="461" 
d="M253 122h190l-26 -122h-395l-15 21l202 320h-176l25 124h381l13 -20z" />
    <glyph glyph-name="braceleft" unicode="{" horiz-adv-x="380" 
d="M370 -112q-124 1 -189.5 45.5t-65.5 146.5v164q0 38 -15.5 48.5t-49.5 11.5v71q16 0 28 2.5t20.5 9t12.5 18.5t4 33v159q0 98 60 145t193 49v-77q-49 0 -66.5 -14t-17.5 -45v-185q0 -40 -21.5 -75t-59.5 -52v-3q38 -14 59.5 -49t21.5 -74v-201q0 -34 20.5 -43t65.5 -10
v-75z" />
    <glyph glyph-name="bar" unicode="|" horiz-adv-x="323" 
d="M80 -113v904h163v-904h-163z" />
    <glyph glyph-name="braceright" unicode="}" horiz-adv-x="380" 
d="M330 304q-34 -1 -49.5 -11.5t-15.5 -48.5v-164q0 -102 -65.5 -146.5t-189.5 -45.5v75q45 1 65.5 10t20.5 43v201q0 39 21.5 74t59.5 49v3q-38 17 -59.5 52t-21.5 75v185q0 31 -17.5 45t-66.5 14v77q133 -2 193 -49t60 -145v-159q0 -21 4 -33t12.5 -18.5t20.5 -9t28 -2.5
v-71z" />
    <glyph glyph-name="asciitilde" unicode="~" horiz-adv-x="500" 
d="M461 503q0 -81 -33.5 -125.5t-90.5 -44.5q-32 0 -53 6.5t-37 15t-30 15t-30 6.5q-17 0 -23.5 -11t-6.5 -31h-119q0 37 9 68t26.5 53.5t43 35t58.5 12.5q28 0 47 -6.5t33 -15t26.5 -15t29.5 -6.5q15 0 21.5 12t6.5 31h122z" />
    <glyph glyph-name="uni00A0" unicode="&#xa0;" horiz-adv-x="100" 
 />
    <glyph glyph-name="exclamdown" unicode="&#xa1;" horiz-adv-x="333" 
d="M52 -201l-2 2l48 486l96 13l49 -474zM64 366v163l166 18v-161z" />
    <glyph glyph-name="cent" unicode="&#xa2;" horiz-adv-x="469" 
d="M444 170q-24 -14 -50 -24.5t-58 -15.5v-185l-114 -20v206q-44 8 -80.5 28.5t-62.5 51.5t-40 71t-14 88q0 49 15 89.5t41 70.5t62.5 50t78.5 28v100l114 20v-118q32 -5 57.5 -13.5t48.5 -21.5l-32 -136h-4q-21 20 -48 33.5t-72 13.5q-41 0 -65.5 -33t-24.5 -84
q0 -60 25.5 -88t63.5 -28q47 0 74.5 14.5t46.5 31.5h4z" />
    <glyph glyph-name="sterling" unicode="&#xa3;" horiz-adv-x="552" 
d="M486 0h-466v108q25 0 46 13t36 36t24 54t11 66h-106l-3 3l44 141h48q-6 23 -11.5 48t-5.5 49q0 57 20 98t55.5 67.5t83 39.5t101.5 13q62 0 100.5 -13t64.5 -30l-37 -148h-3q-18 14 -42.5 28t-63.5 14q-42 0 -63.5 -21t-21.5 -59q0 -19 4 -43.5t9 -42.5h175l3 -3
l-47 -141h-113q-2 -14 -7 -31.5t-12.5 -34.5t-16.5 -32.5t-18 -24.5v-2v-2h256l2 -3z" />
    <glyph glyph-name="currency" unicode="&#xa4;" horiz-adv-x="700" 
d="M660 47q-23 -14 -45 -24.5t-46.5 -17t-52 -10t-61.5 -3.5q-127 0 -216.5 63.5t-122.5 185.5h-96l25 90h57q-1 6 -1.5 14.5t-0.5 17.5q0 11 0.5 20t1.5 15h-82l25 93h73q32 116 116.5 180.5t215.5 64.5q45 0 76.5 -4t55 -10.5t41 -15.5t35.5 -19l-36 -166h-4
q-30 28 -71.5 46t-92.5 18q-45 0 -81.5 -23t-53.5 -71h223l-25 -93h-220q-1 -7 -1.5 -15t-0.5 -17t1 -18t1 -17h245l-25 -90h-199q17 -51 54 -74.5t83 -23.5q48 0 92 18.5t74 46.5h3z" />
    <glyph glyph-name="yen" unicode="&#xa5;" horiz-adv-x="679" 
d="M450 349h171v-89h-190v-63h190v-88h-190v-109h-188v109h-184v88h184v63h-184v89h165l-218 378h222l119 -254h2l118 254h206z" />
    <glyph glyph-name="brokenbar" unicode="&#xa6;" horiz-adv-x="322" 
d="M80 -112v387h162v-387h-162zM80 410v381h162v-381h-162z" />
    <glyph glyph-name="section" unicode="&#xa7;" horiz-adv-x="504" 
d="M312 276q0 16 -28 43l-76 71q-6 -6 -11.5 -15t-5.5 -20q0 -19 19 -36l86 -80q6 6 11 13.5t5 23.5zM454 285q0 -26 -6.5 -45.5t-16.5 -35.5t-22 -28.5t-22 -22.5q14 -20 24 -47t10 -59q0 -46 -17.5 -78.5t-47 -53.5t-68 -31t-79.5 -10q-25 0 -44.5 2.5t-36.5 7.5t-33 12.5
t-35 16.5l35 133h4q15 -11 38 -23t57 -12q28 0 39.5 8.5t11.5 25.5q0 23 -8 35.5t-28 30.5l-79 72q-42 38 -61 76.5t-19 83.5q0 24 5.5 43t15 34.5t21.5 29t24 26.5q-14 20 -23.5 47.5t-9.5 57.5q0 46 17.5 78.5t46.5 53.5t67.5 31t79.5 10q46 0 80 -10t70 -30l-35 -132h-5
q-17 14 -40 24.5t-56 10.5q-26 0 -37.5 -11.5t-11.5 -26.5q0 -14 6 -26.5t21 -26.5l89 -82q38 -35 58.5 -73t20.5 -86z" />
    <glyph glyph-name="dieresis" unicode="&#xa8;" horiz-adv-x="550" 
d="M128 543v101l110 16v-104zM318 543v101l109 16v-104z" />
    <glyph glyph-name="copyright" unicode="&#xa9;" horiz-adv-x="813" 
d="M564 164q-28 -17 -61 -28t-83 -11q-51 0 -94.5 16.5t-75 47t-49 74.5t-17.5 98q0 53 15.5 97.5t45.5 77t73 50.5t98 18q58 0 90.5 -13t55.5 -28l-21 -101h-2q-16 19 -46 32t-74 13q-56 0 -84.5 -37.5t-28.5 -106.5q0 -68 29.5 -104.5t84.5 -36.5q43 0 71 12.5t48 30.5h3z
M717 362q0 63 -24.5 118.5t-66.5 97t-99 65t-121 23.5q-65 0 -121.5 -23.5t-98.5 -65t-66 -97t-24 -118.5t24 -118.5t66 -97t98.5 -65t121.5 -23.5q64 0 121 23.5t99 65t66.5 97t24.5 118.5zM778 362q0 -75 -28 -141t-77.5 -115t-118 -77.5t-148.5 -28.5t-148 28.5
t-117.5 77.5t-77.5 115t-28 141t28 141t77.5 115t117.5 77.5t148 28.5t148 -28.5t118 -77.5t78 -115t28 -141z" />
    <glyph glyph-name="ordfeminine" unicode="&#xaa;" horiz-adv-x="397" 
d="M230 543q-5 1 -13.5 2.5t-21.5 1.5q-23 0 -34 -9t-11 -30q0 -35 40 -35q11 0 21.5 3t18.5 7v60zM245 387q-2 5 -4 13.5t-3 13.5h-2q-11 -11 -29.5 -19t-44.5 -8q-55 0 -86 33t-31 83q0 53 36.5 81.5t94.5 28.5q23 0 35.5 -2t18.5 -4v11q0 19 -10 27.5t-35 8.5
q-26 0 -45 -7.5t-34 -17.5l-4 1l-17 81q14 8 45 17t62 9q68 0 103.5 -29t35.5 -83v-163q0 -21 3 -35.5t7 -22.5v-2z" />
    <glyph glyph-name="guillemotleft" unicode="&#xab;" horiz-adv-x="587" 
d="M201 230l110 -152l-117 -70l-164 206v35l164 201l118 -69zM446 230l110 -152l-117 -70l-164 206v35l164 201l118 -69z" />
    <glyph glyph-name="logicalnot" unicode="&#xac;" horiz-adv-x="565" 
d="M442 169v183h-404v83h489v-266h-85z" />
    <glyph glyph-name="uni00AD" unicode="&#xad;" horiz-adv-x="439" 
d="M382 239h-346l21 116h346z" />
    <glyph glyph-name="registered" unicode="&#xae;" horiz-adv-x="526" 
d="M300 579q0 17 -10.5 24t-25.5 7h-17v-67h17q20 0 28 10.5t8 25.5zM308 409l-58 96h-3v-96h-58v212q0 7 -1.5 14.5t-3.5 11.5v2q11 2 32 3.5t45 1.5q43 0 70 -16.5t27 -56.5q0 -22 -14 -41t-40 -26l78 -105h-74zM455 523q0 39 -15 73t-41 59.5t-61 40t-75 14.5t-75 -14.5
t-61.5 -40t-41.5 -59.5t-15 -73t15 -73t41.5 -59t61.5 -39.5t75 -14.5t75 14.5t61 39.5t41 59t15 73zM486 523q0 -46 -17.5 -85t-48 -67.5t-71 -44.5t-86.5 -16q-49 0 -90 17t-70.5 46t-46 67.5t-16.5 82.5q0 46 17.5 85.5t48 68t71 44.5t86.5 16t86.5 -15.5t71 -44t48 -68
t17.5 -86.5z" />
    <glyph glyph-name="macron" unicode="&#xaf;" horiz-adv-x="550" 
d="M132 558v70h283v-70h-283z" />
    <glyph glyph-name="degree" unicode="&#xb0;" horiz-adv-x="327" 
d="M233 599q0 29 -20.5 49.5t-49.5 20.5t-49 -20.5t-20 -49.5t20 -49t49 -20t49.5 20t20.5 49zM309 600q0 -30 -11.5 -56t-31 -45t-46 -30t-56.5 -11t-56.5 11t-46.5 30t-31.5 45t-11.5 56t11.5 56t31.5 44.5t46.5 29.5t56.5 11t56.5 -11t46 -29.5t31 -44.5t11.5 -56z" />
    <glyph glyph-name="plusminus" unicode="&#xb1;" horiz-adv-x="549" 
d="M41 1v100h466v-100h-466zM328 335v-188h-108v188h-179v101h179v187h108v-187h179v-101h-179z" />
    <glyph glyph-name="uni00B2" unicode="&#xb2;" horiz-adv-x="416" 
d="M368 268h-338l-13 27l167 202q11 13 18.5 23t12.5 19t7 18.5t2 21.5q0 37 -45 37q-23 0 -45.5 -11t-42.5 -27h-4l-27 110q71 48 139 48q85 0 129 -39t44 -105q0 -28 -10 -54.5t-27 -52.5t-39.5 -52t-46.5 -53h141l3 -2z" />
    <glyph glyph-name="uni00B3" unicode="&#xb3;" horiz-adv-x="416" 
d="M372 420q0 -68 -49 -106t-131 -38q-28 0 -47 2.5t-34.5 8t-31 14t-35.5 20.5l27 105h2q22 -19 45 -32.5t59 -13.5q23 0 37.5 10t14.5 32q0 40 -47 40h-44v95h34q44 0 44 37q0 16 -9 25.5t-30 9.5q-35 0 -59 -13t-44 -33h-3l-23 104q16 11 30.5 20t31 16t37 10.5t48.5 3.5
q75 0 119 -33t44 -89q0 -20 -4.5 -34.5t-12 -25t-17 -18t-19.5 -14.5v-2q11 -5 23 -14t21.5 -22t16 -29.5t6.5 -35.5z" />
    <glyph glyph-name="acute" unicode="&#xb4;" horiz-adv-x="550" 
d="M327 545h-100l76 116h148z" />
    <glyph glyph-name="mu" unicode="&#xb5;" horiz-adv-x="580" 
d="M389 -12l-3 9t-4 12.5t-3.5 13t-1.5 10.5h-2q-7 -6 -17.5 -13t-26 -13t-36 -10.5t-46.5 -4.5q-21 0 -35 2t-21 4q4 -26 9.5 -57t14.5 -66l-162 -71v640l168 24v-286q0 -64 64 -64q23 0 38 6t27 14v306l167 24v-383q0 -17 4 -37.5t11 -32.5v-2z" />
    <glyph glyph-name="mu" unicode="&#x3bc;" horiz-adv-x="580" 
d="M389 -12l-3 9t-4 12.5t-3.5 13t-1.5 10.5h-2q-7 -6 -17.5 -13t-26 -13t-36 -10.5t-46.5 -4.5q-21 0 -35 2t-21 4q4 -26 9.5 -57t14.5 -66l-162 -71v640l168 24v-286q0 -64 64 -64q23 0 38 6t27 14v306l167 24v-383q0 -17 4 -37.5t11 -32.5v-2z" />
    <glyph glyph-name="paragraph" unicode="&#xb6;" horiz-adv-x="657" 
d="M458 641h-50v-755h50v755zM598 641h-49v-841h-405l25 86h113v354q-49 3 -94 19.5t-79 46.5t-54.5 74t-20.5 103q0 62 26 108t66.5 76t90.5 45t98 15h308z" />
    <glyph glyph-name="periodcentered" unicode="&#xb7;" horiz-adv-x="266" 
d="M50 304v161l166 20v-163z" />
    <glyph glyph-name="cedilla" unicode="&#xb8;" horiz-adv-x="550" 
d="M387 -116q0 -35 -32.5 -59.5t-98.5 -24.5q-30 0 -52 6.5t-40 18.5v2l29 52q9 -6 22.5 -11t29.5 -5q28 0 28 22q0 10 -8 17t-25 7q-7 0 -16.5 -0.5t-14.5 -2.5l-2 3l42 98h69l-20 -43q89 -12 89 -80z" />
    <glyph glyph-name="uni00B9" unicode="&#xb9;" horiz-adv-x="416" 
d="M155 293v282l-87 -46l-26 109l233 111l16 -10v-446h-136z" />
    <glyph glyph-name="ordmasculine" unicode="&#xba;" horiz-adv-x="397" 
d="M260 562q0 24 -5.5 40.5t-14.5 27.5t-19.5 16t-20.5 5q-23 0 -43 -21t-20 -68t19.5 -66.5t43.5 -19.5q21 0 40.5 19.5t19.5 66.5zM368 562q0 -38 -12 -69.5t-34.5 -55t-53.5 -36.5t-68 -13q-38 0 -69.5 13t-54 36t-35 55t-12.5 70t12 70t34.5 55.5t54 36.5t70.5 13
q35 0 65.5 -12t53.5 -35t36 -55.5t13 -72.5z" />
    <glyph glyph-name="guillemotright" unicode="&#xbb;" horiz-adv-x="587" 
d="M148 8l-117 70l110 152l-111 151l118 69l164 -201v-35zM393 8l-117 70l110 152l-111 151l118 69l164 -201v-35z" />
    <glyph glyph-name="onequarter" unicode="&#xbc;" horiz-adv-x="955" 
d="M161 295v283l-87 -46l-26 108l233 111l17 -10v-446h-137zM294 -17h-153l456 770h152zM880 87h-47v-87h-138v87h-221l-13 17l96 264h122l-58 -177h74v254h138v-254h65l2 -2z" />
    <glyph glyph-name="onehalf" unicode="&#xbd;" horiz-adv-x="955" 
d="M154 293v281l-87 -46l-26 110l233 111l16 -10v-446h-136zM276 -17h-153l456 770h152zM865 0h-338l-13 27l167 202q22 26 31 42.5t9 36.5q0 40 -45 40q-23 0 -45.5 -11t-42.5 -27h-4l-27 110q71 48 139 48q85 0 129 -39t44 -105q0 -28 -10 -54.5t-27 -52.5t-39.5 -52
t-46.5 -53h141l3 -2z" />
    <glyph glyph-name="threequarters" unicode="&#xbe;" horiz-adv-x="955" 
d="M378 420q0 -68 -49 -106t-131 -38q-28 0 -47 2.5t-34.5 8t-31 14t-35.5 20.5l27 105h2q22 -19 45 -32.5t59 -13.5q23 0 37.5 10t14.5 32q0 40 -47 40h-44v95h34q44 0 44 37q0 16 -9 25.5t-30 9.5q-35 0 -59 -13t-44 -33h-3l-23 104q16 11 30.5 20t31 16t37 10.5t48.5 3.5
q75 0 119 -33t44 -89q0 -20 -4.5 -34.5t-12 -25t-17 -18t-19.5 -14.5v-2q11 -5 23 -14t21.5 -22t16 -29.5t6.5 -35.5zM325 -17h-153l456 770h152zM905 87h-47v-87h-138v87h-221l-13 17l96 264h122l-58 -177h74v254h138v-254h65l2 -2z" />
    <glyph glyph-name="questiondown" unicode="&#xbf;" horiz-adv-x="491" 
d="M441 -144q-30 -16 -54 -26.5t-47 -17t-46.5 -9.5t-50.5 -3q-46 0 -85.5 12.5t-69 37t-46.5 60.5t-17 83q0 42 15.5 73t40.5 54.5t56.5 40.5t63.5 32l13 93l98 14l26 -168q-40 -15 -66 -29t-41.5 -28.5t-21.5 -30.5t-6 -35q0 -34 19 -50.5t54 -16.5q39 0 67.5 12t57.5 34
h2zM180 366v163l166 18v-161z" />
    <glyph glyph-name="Agrave" unicode="&#xc0;" horiz-adv-x="702" 
d="M347 435h-3l-58 -189h118zM483 0l-35 106h-206l-35 -106h-201l298 727h98l294 -727h-213zM309 778l-120 116h141l74 -116h-95z" />
    <glyph glyph-name="Aacute" unicode="&#xc1;" horiz-adv-x="702" 
d="M347 435h-3l-58 -189h118zM483 0l-35 106h-206l-35 -106h-201l298 727h98l294 -727h-213zM395 778h-100l76 116h148z" />
    <glyph glyph-name="Acircumflex" unicode="&#xc2;" horiz-adv-x="702" 
d="M347 435h-3l-58 -189h118zM483 0l-35 106h-206l-35 -106h-201l298 727h98l294 -727h-213zM388 778l-37 38l-37 -38h-136l121 116h105l120 -116h-136z" />
    <glyph glyph-name="Atilde" unicode="&#xc3;" horiz-adv-x="702" 
d="M347 435h-3l-58 -189h118zM483 0l-35 106h-206l-35 -106h-201l298 727h98l294 -727h-213zM528 893q-2 -23 -9.5 -44t-21.5 -37t-35.5 -25.5t-51.5 -9.5q-16 0 -31.5 4t-30.5 9t-30.5 9t-31.5 4q-11 0 -14 -6.5t-3 -18.5h-91q2 23 9 44t20 37t32.5 25.5t46.5 9.5
q17 0 34.5 -4t34.5 -9t33.5 -9t31.5 -4q10 0 14.5 5.5t4.5 19.5h89z" />
    <glyph glyph-name="Adieresis" unicode="&#xc4;" horiz-adv-x="702" 
d="M347 435h-3l-58 -189h118zM483 0l-35 106h-206l-35 -106h-201l298 727h98l294 -727h-213zM203 779v101l110 16v-104zM393 779v101l109 16v-104z" />
    <glyph glyph-name="Aring" unicode="&#xc5;" horiz-adv-x="702" 
d="M347 435h-3l-58 -189h118zM407 864q0 23 -15.5 38.5t-38.5 15.5t-38.5 -15.5t-15.5 -38.5t15.5 -38.5t38.5 -15.5t38.5 15.5t15.5 38.5zM483 0l-35 106h-206l-35 -106h-201l298 727h98l294 -727h-213zM464 864q0 -23 -9 -42.5t-24 -34t-35 -23t-43 -8.5t-43 8.5t-35 23
t-24 34t-9 42.5t9 42.5t24 34t35 23t43 8.5t43 -8.5t35 -23t24 -34t9 -42.5z" />
    <glyph glyph-name="AE" unicode="&#xc6;" horiz-adv-x="950" 
d="M446 494h-3l-117 -246h120v246zM893 0h-447v106h-186l-48 -106h-206l410 727h505l2 -3l-37 -147h-253v-123h242l2 -2l-36 -147h-208v-155h295l2 -2z" />
    <glyph glyph-name="Ccedilla" unicode="&#xc7;" horiz-adv-x="640" 
d="M620 55q-38 -24 -84.5 -41t-110.5 -21l-13 -29q89 -12 89 -80q0 -35 -32.5 -59.5t-98.5 -24.5q-30 0 -52 6.5t-40 18.5v2l29 52q9 -6 22.5 -11t29.5 -5q28 0 28 22q0 10 -8 17t-25 7q-7 0 -16.5 -0.5t-14.5 -2.5l-2 3l36 84q-76 6 -136.5 34t-103 75t-65 112t-22.5 145
q0 82 24.5 151t71 119t113.5 78.5t152 28.5q46 0 81 -6t61.5 -15t47 -20.5t37.5 -23.5l-35 -151h-6q-22 27 -68 48.5t-114 21.5q-43 0 -75 -18.5t-53 -49.5t-31.5 -72.5t-10.5 -87.5t11 -87t32.5 -71.5t53.5 -48.5t74 -18q62 0 107.5 20t74.5 46h7z" />
    <glyph glyph-name="Egrave" unicode="&#xc8;" horiz-adv-x="573" 
d="M518 0h-448v727h475l2 -2l-36 -148h-253v-123h241l2 -2l-35 -147h-208v-155h293l2 -2zM279 779l-120 116h141l74 -116h-95z" />
    <glyph glyph-name="Eacute" unicode="&#xc9;" horiz-adv-x="573" 
d="M518 0h-448v727h475l2 -2l-36 -148h-253v-123h241l2 -2l-35 -147h-208v-155h293l2 -2zM368 778h-100l76 116h148z" />
    <glyph glyph-name="Ecircumflex" unicode="&#xca;" horiz-adv-x="573" 
d="M518 0h-448v727h475l2 -2l-36 -148h-253v-123h241l2 -2l-35 -147h-208v-155h293l2 -2zM348 778l-37 38l-37 -38h-136l121 116h105l120 -116h-136z" />
    <glyph glyph-name="Edieresis" unicode="&#xcb;" horiz-adv-x="573" 
d="M518 0h-448v727h475l2 -2l-36 -148h-253v-123h241l2 -2l-35 -147h-208v-155h293l2 -2zM167 779v101l110 16v-104zM357 779v101l109 16v-104z" />
    <glyph glyph-name="Igrave" unicode="&#xcc;" horiz-adv-x="328" 
d="M70 0v727h188v-727h-188zM156 779l-120 116h141l74 -116h-95z" />
    <glyph glyph-name="Iacute" unicode="&#xcd;" horiz-adv-x="328" 
d="M70 0v727h188v-727h-188zM168 778h-100l76 116h148z" />
    <glyph glyph-name="Icircumflex" unicode="&#xce;" horiz-adv-x="328" 
d="M70 0v727h188v-727h-188zM201 778l-37 38l-37 -38h-136l121 116h105l120 -116h-136z" />
    <glyph glyph-name="Idieresis" unicode="&#xcf;" horiz-adv-x="328" 
d="M70 0v727h188v-727h-188zM15 779v101l110 16v-104zM205 779v101l109 16v-104z" />
    <glyph glyph-name="Eth" unicode="&#xd0;" horiz-adv-x="742" 
d="M519 364q0 118 -53 172t-163 54h-18t-18 -1v-166h120l-35 -118h-85v-166q11 -1 22.5 -1h19.5q103 0 156.5 56t53.5 170zM712 367q0 -94 -29.5 -164.5t-83 -117t-127 -70t-160.5 -23.5q-78 0 -132.5 2t-100.5 7v304h-79l35 118h44v201q0 24 -4 50t-8 39v4q28 5 91.5 12
t148.5 7q89 0 163.5 -22.5t128 -68t83.5 -115t30 -163.5z" />
    <glyph glyph-name="Ntilde" unicode="&#xd1;" horiz-adv-x="740" 
d="M569 0l-320 391h-2v-391h-177v727h101l320 -382h2v382h177v-727h-101zM547 893q-2 -23 -9.5 -44t-21.5 -37t-35.5 -25.5t-51.5 -9.5q-16 0 -31.5 4t-30.5 9t-30.5 9t-31.5 4q-11 0 -14 -6.5t-3 -18.5h-91q2 23 9 44t20 37t32.5 25.5t46.5 9.5q17 0 34.5 -4t34.5 -9
t33.5 -9t31.5 -4q10 0 14.5 5.5t4.5 19.5h89z" />
    <glyph glyph-name="Ograve" unicode="&#xd2;" horiz-adv-x="766" 
d="M541 364q0 109 -43.5 168t-115.5 59t-114.5 -59.5t-42.5 -167.5q0 -107 42 -167t115 -60q38 0 67.5 16.5t50 46t31 71.5t10.5 93zM736 364q0 -79 -23.5 -147t-68.5 -118t-111 -78.5t-151 -28.5q-84 0 -149.5 27.5t-110.5 77t-68.5 118t-23.5 149.5q0 82 25 150.5
t70.5 117.5t110.5 76.5t146 27.5q77 0 142 -25.5t112 -73.5t73.5 -117t26.5 -156zM340 778l-120 116h141l74 -116h-95z" />
    <glyph glyph-name="Oacute" unicode="&#xd3;" horiz-adv-x="766" 
d="M541 364q0 109 -43.5 168t-115.5 59t-114.5 -59.5t-42.5 -167.5q0 -107 42 -167t115 -60q38 0 67.5 16.5t50 46t31 71.5t10.5 93zM736 364q0 -79 -23.5 -147t-68.5 -118t-111 -78.5t-151 -28.5q-84 0 -149.5 27.5t-110.5 77t-68.5 118t-23.5 149.5q0 82 25 150.5
t70.5 117.5t110.5 76.5t146 27.5q77 0 142 -25.5t112 -73.5t73.5 -117t26.5 -156zM423 778h-100l76 116h148z" />
    <glyph glyph-name="Ocircumflex" unicode="&#xd4;" horiz-adv-x="766" 
d="M541 364q0 109 -43.5 168t-115.5 59t-114.5 -59.5t-42.5 -167.5q0 -107 42 -167t115 -60q38 0 67.5 16.5t50 46t31 71.5t10.5 93zM736 364q0 -79 -23.5 -147t-68.5 -118t-111 -78.5t-151 -28.5q-84 0 -149.5 27.5t-110.5 77t-68.5 118t-23.5 149.5q0 82 25 150.5
t70.5 117.5t110.5 76.5t146 27.5q77 0 142 -25.5t112 -73.5t73.5 -117t26.5 -156zM420 778l-37 38l-37 -38h-136l121 116h105l120 -116h-136z" />
    <glyph glyph-name="Otilde" unicode="&#xd5;" horiz-adv-x="766" 
d="M541 364q0 109 -43.5 168t-115.5 59t-114.5 -59.5t-42.5 -167.5q0 -107 42 -167t115 -60q38 0 67.5 16.5t50 46t31 71.5t10.5 93zM736 364q0 -79 -23.5 -147t-68.5 -118t-111 -78.5t-151 -28.5q-84 0 -149.5 27.5t-110.5 77t-68.5 118t-23.5 149.5q0 82 25 150.5
t70.5 117.5t110.5 76.5t146 27.5q77 0 142 -25.5t112 -73.5t73.5 -117t26.5 -156zM558 893q-2 -23 -9.5 -44t-21.5 -37t-35.5 -25.5t-51.5 -9.5q-16 0 -31.5 4t-30.5 9t-30.5 9t-31.5 4q-11 0 -14 -6.5t-3 -18.5h-91q2 23 9 44t20 37t32.5 25.5t46.5 9.5q17 0 34.5 -4
t34.5 -9t33.5 -9t31.5 -4q10 0 14.5 5.5t4.5 19.5h89z" />
    <glyph glyph-name="Odieresis" unicode="&#xd6;" horiz-adv-x="766" 
d="M541 364q0 109 -43.5 168t-115.5 59t-114.5 -59.5t-42.5 -167.5q0 -107 42 -167t115 -60q38 0 67.5 16.5t50 46t31 71.5t10.5 93zM736 364q0 -79 -23.5 -147t-68.5 -118t-111 -78.5t-151 -28.5q-84 0 -149.5 27.5t-110.5 77t-68.5 118t-23.5 149.5q0 82 25 150.5
t70.5 117.5t110.5 76.5t146 27.5q77 0 142 -25.5t112 -73.5t73.5 -117t26.5 -156zM233 779v101l110 16v-104zM423 779v101l109 16v-104z" />
    <glyph glyph-name="multiply" unicode="&#xd7;" horiz-adv-x="525" 
d="M378 84l-122 122l-121 -122l-86 86l122 121l-122 122l98 98l122 -122l121 122l86 -86l-122 -121l122 -122z" />
    <glyph glyph-name="Oslash" unicode="&#xd8;" horiz-adv-x="766" 
d="M541 364q0 93 -34 152l-225 -337q40 -42 100 -42q38 0 67.5 16.5t50 46t31 71.5t10.5 93zM441 579q-27 12 -59 12q-72 0 -114.5 -59.5t-42.5 -167.5q0 -50 11 -94zM736 364q0 -79 -23.5 -147t-68.5 -118t-111 -78.5t-151 -28.5q-57 0 -105 13t-87 36l-64 -96l-76 45
l71 107q-45 50 -68 118t-23 149q0 82 25 150.5t70.5 117.5t110.5 76.5t146 27.5q79 0 145 -27l53 79l76 -48l-51 -76q61 -48 96 -124t35 -176z" />
    <glyph glyph-name="Ugrave" unicode="&#xd9;" horiz-adv-x="715" 
d="M655 80q-36 -23 -68.5 -39.5t-66.5 -27.5t-72.5 -16t-87.5 -5q-140 0 -220 70t-80 208v457h188v-479q0 -57 30 -84.5t82 -27.5q32 0 55 6.5t40 14.5v570h188v-541q0 -37 2 -60t10 -42v-4zM302 778l-120 116h141l74 -116h-95z" />
    <glyph glyph-name="Uacute" unicode="&#xda;" horiz-adv-x="715" 
d="M655 80q-36 -23 -68.5 -39.5t-66.5 -27.5t-72.5 -16t-87.5 -5q-140 0 -220 70t-80 208v457h188v-479q0 -57 30 -84.5t82 -27.5q32 0 55 6.5t40 14.5v570h188v-541q0 -37 2 -60t10 -42v-4zM405 778h-100l76 116h148z" />
    <glyph glyph-name="Ucircumflex" unicode="&#xdb;" horiz-adv-x="715" 
d="M655 80q-36 -23 -68.5 -39.5t-66.5 -27.5t-72.5 -16t-87.5 -5q-140 0 -220 70t-80 208v457h188v-479q0 -57 30 -84.5t82 -27.5q32 0 55 6.5t40 14.5v570h188v-541q0 -37 2 -60t10 -42v-4zM385 778l-37 38l-37 -38h-136l121 116h105l120 -116h-136z" />
    <glyph glyph-name="Udieresis" unicode="&#xdc;" horiz-adv-x="715" 
d="M655 80q-36 -23 -68.5 -39.5t-66.5 -27.5t-72.5 -16t-87.5 -5q-140 0 -220 70t-80 208v457h188v-479q0 -57 30 -84.5t82 -27.5q32 0 55 6.5t40 14.5v570h188v-541q0 -37 2 -60t10 -42v-4zM209 779v101l110 16v-104zM399 779v101l109 16v-104z" />
    <glyph glyph-name="Yacute" unicode="&#xdd;" horiz-adv-x="679" 
d="M430 314v-314h-188v315l-236 412h221l75 -150q11 -23 23 -51t21 -53h2q9 26 20 53t23 51l75 150h207zM402 778h-100l76 116h148z" />
    <glyph glyph-name="Thorn" unicode="&#xde;" horiz-adv-x="603" 
d="M389 356q0 40 -25 67.5t-79 27.5h-9t-18 -1v-184q9 -2 15 -2h9q27 0 47 8t33.5 20.5t20 29t6.5 34.5zM578 359q0 -55 -21 -100t-59 -76.5t-91 -48.5t-118 -17q-5 0 -11 0.5t-20 1.5v-119h-188v727h188v-126h17q63 0 118 -14t96 -43.5t65 -75t24 -109.5z" />
    <glyph glyph-name="germandbls" unicode="&#xdf;" horiz-adv-x="599" 
d="M574 188q0 -94 -51 -144.5t-145 -50.5q-40 0 -71.5 11.5t-54.5 27.5l42 118h5q27 -24 65 -24q6 0 14.5 2.5t15.5 9t12 17t5 26.5q0 37 -24 62t-53.5 48t-53.5 49t-24 66q0 26 13.5 45t29.5 35t29.5 32.5t13.5 38.5q0 26 -14.5 37.5t-35.5 11.5q-22 0 -40 -15.5t-18 -57.5
v-410q0 -54 -9 -107t-22 -92l-168 -53q17 66 24 118.5t7 83.5v449q0 47 13 86.5t41 68t71.5 44t104.5 15.5q45 0 84 -8.5t68 -27.5t45.5 -49t16.5 -73q0 -38 -14.5 -62.5t-31.5 -42.5t-31.5 -31.5t-14.5 -29.5q0 -8 11.5 -18t29 -22.5t37.5 -29t37.5 -39t29 -51t11.5 -64.5z
" />
    <glyph glyph-name="agrave" unicode="&#xe0;" horiz-adv-x="509" 
d="M282 202q-8 2 -17 3t-20 1q-28 0 -41 -13.5t-13 -35.5q0 -23 13.5 -36t33.5 -13q12 0 24 2.5t20 5.5v86zM318 -11q-4 8 -9 24t-7 25h-2q-8 -7 -18 -15t-23 -15t-30 -11.5t-38 -4.5q-80 0 -121.5 43t-41.5 115q0 39 15 67.5t41 48t61 29t76 9.5q15 0 31 -1t30 -3v15
q0 19 -13.5 32t-46.5 13q-41 0 -65 -11.5t-44 -26.5h-3l-30 120q20 14 64.5 26.5t99.5 12.5q106 0 155 -41t49 -121v-228q0 -23 3.5 -42t11.5 -33v-3zM197 545l-120 116h141l74 -116h-95z" />
    <glyph glyph-name="aacute" unicode="&#xe1;" horiz-adv-x="509" 
d="M282 202q-8 2 -17 3t-20 1q-28 0 -41 -13.5t-13 -35.5q0 -23 13.5 -36t33.5 -13q12 0 24 2.5t20 5.5v86zM318 -11q-4 8 -9 24t-7 25h-2q-8 -7 -18 -15t-23 -15t-30 -11.5t-38 -4.5q-80 0 -121.5 43t-41.5 115q0 39 15 67.5t41 48t61 29t76 9.5q15 0 31 -1t30 -3v15
q0 19 -13.5 32t-46.5 13q-41 0 -65 -11.5t-44 -26.5h-3l-30 120q20 14 64.5 26.5t99.5 12.5q106 0 155 -41t49 -121v-228q0 -23 3.5 -42t11.5 -33v-3zM301 545h-100l76 116h148z" />
    <glyph glyph-name="acircumflex" unicode="&#xe2;" horiz-adv-x="509" 
d="M282 202q-8 2 -17 3t-20 1q-28 0 -41 -13.5t-13 -35.5q0 -23 13.5 -36t33.5 -13q12 0 24 2.5t20 5.5v86zM318 -11q-4 8 -9 24t-7 25h-2q-8 -7 -18 -15t-23 -15t-30 -11.5t-38 -4.5q-80 0 -121.5 43t-41.5 115q0 39 15 67.5t41 48t61 29t76 9.5q15 0 31 -1t30 -3v15
q0 19 -13.5 32t-46.5 13q-41 0 -65 -11.5t-44 -26.5h-3l-30 120q20 14 64.5 26.5t99.5 12.5q106 0 155 -41t49 -121v-228q0 -23 3.5 -42t11.5 -33v-3zM299 545l-37 38l-37 -38h-136l121 116h105l120 -116h-136z" />
    <glyph glyph-name="atilde" unicode="&#xe3;" horiz-adv-x="509" 
d="M282 202q-8 2 -17 3t-20 1q-28 0 -41 -13.5t-13 -35.5q0 -23 13.5 -36t33.5 -13q12 0 24 2.5t20 5.5v86zM318 -11q-4 8 -9 24t-7 25h-2q-8 -7 -18 -15t-23 -15t-30 -11.5t-38 -4.5q-80 0 -121.5 43t-41.5 115q0 39 15 67.5t41 48t61 29t76 9.5q15 0 31 -1t30 -3v15
q0 19 -13.5 32t-46.5 13q-41 0 -65 -11.5t-44 -26.5h-3l-30 120q20 14 64.5 26.5t99.5 12.5q106 0 155 -41t49 -121v-228q0 -23 3.5 -42t11.5 -33v-3zM430 659q-2 -23 -9.5 -44t-21.5 -37t-35.5 -25.5t-51.5 -9.5q-16 0 -31.5 4t-30.5 9t-30.5 9t-31.5 4q-11 0 -14 -6.5
t-3 -18.5h-91q2 23 9 44t20 37t32.5 25.5t46.5 9.5q17 0 34.5 -4t34.5 -9t33.5 -9t31.5 -4q10 0 14.5 5.5t4.5 19.5h89z" />
    <glyph glyph-name="adieresis" unicode="&#xe4;" horiz-adv-x="509" 
d="M282 202q-8 2 -17 3t-20 1q-28 0 -41 -13.5t-13 -35.5q0 -23 13.5 -36t33.5 -13q12 0 24 2.5t20 5.5v86zM318 -11q-4 8 -9 24t-7 25h-2q-8 -7 -18 -15t-23 -15t-30 -11.5t-38 -4.5q-80 0 -121.5 43t-41.5 115q0 39 15 67.5t41 48t61 29t76 9.5q15 0 31 -1t30 -3v15
q0 19 -13.5 32t-46.5 13q-41 0 -65 -11.5t-44 -26.5h-3l-30 120q20 14 64.5 26.5t99.5 12.5q106 0 155 -41t49 -121v-228q0 -23 3.5 -42t11.5 -33v-3zM107 543v101l110 16v-104zM297 543v101l109 16v-104z" />
    <glyph glyph-name="aring" unicode="&#xe5;" horiz-adv-x="509" 
d="M282 202q-8 2 -17 3t-20 1q-28 0 -41 -13.5t-13 -35.5q0 -23 13.5 -36t33.5 -13q12 0 24 2.5t20 5.5v86zM321 649q0 23 -15.5 38.5t-38.5 15.5t-38.5 -15.5t-15.5 -38.5t15.5 -38.5t38.5 -15.5t38.5 15.5t15.5 38.5zM318 -11q-4 8 -9 24t-7 25h-2q-8 -7 -18 -15t-23 -15
t-30 -11.5t-38 -4.5q-80 0 -121.5 43t-41.5 115q0 39 15 67.5t41 48t61 29t76 9.5q15 0 31 -1t30 -3v15q0 19 -13.5 32t-46.5 13q-41 0 -65 -11.5t-44 -26.5h-3l-30 120q20 14 64.5 26.5t99.5 12.5q106 0 155 -41t49 -121v-228q0 -23 3.5 -42t11.5 -33v-3zM378 649
q0 -23 -9 -42.5t-24 -34t-35 -23t-43 -8.5t-43 8.5t-35 23t-24 34t-9 42.5t9 42.5t24 34t35 23t43 8.5t43 -8.5t35 -23t24 -34t9 -42.5z" />
    <glyph glyph-name="ae" unicode="&#xe6;" horiz-adv-x="754" 
d="M299 124q-8 19 -12 39t-6 39q-12 4 -35 4q-27 0 -41 -13.5t-14 -35.5q0 -24 14 -36.5t36 -12.5q17 0 32.5 5.5t25.5 10.5zM573 291q0 27 -12 47.5t-41 20.5q-27 0 -46.5 -17t-19.5 -51h119zM729 255q0 -8 -1.5 -28t-3.5 -37h-275q2 -33 23 -54.5t59 -21.5q52 0 81.5 12.5
t55.5 32.5h3l29 -118q-14 -10 -29.5 -19t-36 -15.5t-46.5 -10.5t-61 -4q-63 0 -102.5 17t-65.5 39q-18 -14 -35.5 -24t-37 -17.5t-42.5 -11t-52 -3.5q-81 0 -122.5 42.5t-41.5 111.5q0 42 16 72t42 49t60.5 28t72.5 9q22 0 37 -1t26 -3v14q0 46 -60 46q-21 0 -36.5 -3
t-28 -8t-23 -12t-21.5 -15h-3l-30 121q34 17 76.5 27.5t89.5 10.5q31 0 53.5 -4.5t39 -11t28 -15.5t20.5 -18q20 17 50.5 33t81.5 16t90.5 -17t66 -47t40 -71.5t13.5 -90.5z" />
    <glyph glyph-name="ccedilla" unicode="&#xe7;" horiz-adv-x="468" 
d="M444 37q-29 -16 -60 -28t-72 -16l-14 -29q89 -12 89 -80q0 -35 -32.5 -59.5t-98.5 -24.5q-30 0 -52 6.5t-40 18.5v2l29 52q9 -6 22.5 -11t29.5 -5q28 0 28 22q0 10 -8 17t-25 7q-7 0 -16.5 -0.5t-14.5 -2.5l-2 3l37 85q-49 6 -89 25.5t-69 51t-45 73.5t-16 93
q0 58 20 103.5t55 76.5t82 47.5t100 16.5q54 0 91 -11t69 -28l-32 -136h-4q-21 19 -47 33t-73 14q-42 0 -66 -33t-24 -84q0 -60 25 -88t64 -28q47 0 74.5 14.5t46.5 31.5h4z" />
    <glyph glyph-name="egrave" unicode="&#xe8;" horiz-adv-x="501" 
d="M319 291q0 32 -13.5 50t-39.5 18q-58 0 -66 -68h119zM476 256q0 -9 -1 -26t-4 -40h-275q3 -33 22.5 -54.5t59.5 -21.5q50 0 81.5 13.5t54.5 31.5h3l30 -118q-15 -11 -31.5 -19.5t-37 -15.5t-46 -10.5t-59.5 -3.5q-54 0 -99.5 16.5t-78.5 48t-51.5 76t-18.5 100.5
q0 53 17.5 98.5t49.5 78.5t76.5 52t98.5 19q48 0 86.5 -16t65.5 -45t42 -70.5t15 -93.5zM230 545l-120 116h141l74 -116h-95z" />
    <glyph glyph-name="eacute" unicode="&#xe9;" horiz-adv-x="501" 
d="M319 291q0 32 -13.5 50t-39.5 18q-58 0 -66 -68h119zM476 256q0 -9 -1 -26t-4 -40h-275q3 -33 22.5 -54.5t59.5 -21.5q50 0 81.5 13.5t54.5 31.5h3l30 -118q-15 -11 -31.5 -19.5t-37 -15.5t-46 -10.5t-59.5 -3.5q-54 0 -99.5 16.5t-78.5 48t-51.5 76t-18.5 100.5
q0 53 17.5 98.5t49.5 78.5t76.5 52t98.5 19q48 0 86.5 -16t65.5 -45t42 -70.5t15 -93.5zM320 545h-100l76 116h148z" />
    <glyph glyph-name="ecircumflex" unicode="&#xea;" horiz-adv-x="501" 
d="M319 291q0 32 -13.5 50t-39.5 18q-58 0 -66 -68h119zM476 256q0 -9 -1 -26t-4 -40h-275q3 -33 22.5 -54.5t59.5 -21.5q50 0 81.5 13.5t54.5 31.5h3l30 -118q-15 -11 -31.5 -19.5t-37 -15.5t-46 -10.5t-59.5 -3.5q-54 0 -99.5 16.5t-78.5 48t-51.5 76t-18.5 100.5
q0 53 17.5 98.5t49.5 78.5t76.5 52t98.5 19q48 0 86.5 -16t65.5 -45t42 -70.5t15 -93.5zM308 545l-37 38l-37 -38h-136l121 116h105l120 -116h-136z" />
    <glyph glyph-name="edieresis" unicode="&#xeb;" horiz-adv-x="501" 
d="M319 291q0 32 -13.5 50t-39.5 18q-58 0 -66 -68h119zM476 256q0 -9 -1 -26t-4 -40h-275q3 -33 22.5 -54.5t59.5 -21.5q50 0 81.5 13.5t54.5 31.5h3l30 -118q-15 -11 -31.5 -19.5t-37 -15.5t-46 -10.5t-59.5 -3.5q-54 0 -99.5 16.5t-78.5 48t-51.5 76t-18.5 100.5
q0 53 17.5 98.5t49.5 78.5t76.5 52t98.5 19q48 0 86.5 -16t65.5 -45t42 -70.5t15 -93.5zM124 543v101l110 16v-104zM314 543v101l109 16v-104z" />
    <glyph glyph-name="igrave" unicode="&#xec;" horiz-adv-x="288" 
d="M60 0v453l168 24v-477h-168zM135 545l-120 116h141l74 -116h-95z" />
    <glyph glyph-name="iacute" unicode="&#xed;" horiz-adv-x="288" 
d="M60 0v453l168 24v-477h-168zM155 545h-100l76 116h148z" />
    <glyph glyph-name="icircumflex" unicode="&#xee;" horiz-adv-x="288" 
d="M60 0v453l168 24v-477h-168zM180 545l-37 38l-37 -38h-136l121 116h105l120 -116h-136z" />
    <glyph glyph-name="idieresis" unicode="&#xef;" horiz-adv-x="288" 
d="M60 0v453l168 24v-477h-168zM-6 543v101l110 16v-104zM184 543v101l109 16v-104z" />
    <glyph glyph-name="eth" unicode="&#xf0;" horiz-adv-x="545" 
d="M349 237q0 34 -6.5 56t-17 35t-24 18.5t-28.5 5.5q-14 0 -28 -5.5t-25 -19t-17.5 -35.5t-6.5 -55q0 -66 21.5 -91.5t55.5 -25.5q32 0 54 25.5t22 91.5zM520 243q0 -58 -18 -104.5t-51 -79t-78.5 -50t-99.5 -17.5q-52 0 -97.5 17.5t-79 50t-52.5 77.5t-19 100
q0 50 17 93.5t48 75.5t74 50t96 18q-11 18 -28.5 41t-30.5 34l-77 -57l-61 66l71 50q-20 14 -37 26.5t-49 32.5l118 90q31 -20 51 -33t40 -29l81 60l70 -65l-81 -57q40 -39 75 -84.5t61 -95.5t41.5 -103t15.5 -107z" />
    <glyph glyph-name="ntilde" unicode="&#xf1;" horiz-adv-x="582" 
d="M359 0v288q0 26 -14.5 38t-37.5 12q-26 0 -45.5 -13.5t-33.5 -28.5v-296h-169v373q0 21 -4 41t-9 34v2l149 26q4 -10 8 -27t6 -30h2q29 26 61.5 44t81.5 18q88 0 130.5 -40t42.5 -131v-310h-168zM478 659q-2 -23 -9.5 -44t-21.5 -37t-35.5 -25.5t-51.5 -9.5
q-16 0 -31.5 4t-30.5 9t-30.5 9t-31.5 4q-11 0 -14 -6.5t-3 -18.5h-91q2 23 9 44t20 37t32.5 25.5t46.5 9.5q17 0 34.5 -4t34.5 -9t33.5 -9t31.5 -4q10 0 14.5 5.5t4.5 19.5h89z" />
    <glyph glyph-name="ograve" unicode="&#xf2;" horiz-adv-x="545" 
d="M350 236q0 36 -7 58.5t-18 35t-24.5 17.5t-25.5 5q-15 0 -29 -5.5t-25 -19t-18 -35.5t-7 -56q0 -35 6.5 -57t18 -35.5t25.5 -18.5t29 -5q13 0 26 5t24 18t18 35.5t7 57.5zM520 236q0 -53 -18 -97.5t-50 -77t-77.5 -51t-99.5 -18.5t-100 18t-79.5 50.5t-52 77t-18.5 98.5
q0 53 18 98t51 77.5t79 51t102 18.5q50 0 94.5 -17t78 -48.5t53 -77t19.5 -102.5zM230 545l-120 116h141l74 -116h-95z" />
    <glyph glyph-name="oacute" unicode="&#xf3;" horiz-adv-x="545" 
d="M350 236q0 36 -7 58.5t-18 35t-24.5 17.5t-25.5 5q-15 0 -29 -5.5t-25 -19t-18 -35.5t-7 -56q0 -35 6.5 -57t18 -35.5t25.5 -18.5t29 -5q13 0 26 5t24 18t18 35.5t7 57.5zM520 236q0 -53 -18 -97.5t-50 -77t-77.5 -51t-99.5 -18.5t-100 18t-79.5 50.5t-52 77t-18.5 98.5
q0 53 18 98t51 77.5t79 51t102 18.5q50 0 94.5 -17t78 -48.5t53 -77t19.5 -102.5zM320 545h-100l76 116h148z" />
    <glyph glyph-name="ocircumflex" unicode="&#xf4;" horiz-adv-x="545" 
d="M350 236q0 36 -7 58.5t-18 35t-24.5 17.5t-25.5 5q-15 0 -29 -5.5t-25 -19t-18 -35.5t-7 -56q0 -35 6.5 -57t18 -35.5t25.5 -18.5t29 -5q13 0 26 5t24 18t18 35.5t7 57.5zM520 236q0 -53 -18 -97.5t-50 -77t-77.5 -51t-99.5 -18.5t-100 18t-79.5 50.5t-52 77t-18.5 98.5
q0 53 18 98t51 77.5t79 51t102 18.5q50 0 94.5 -17t78 -48.5t53 -77t19.5 -102.5zM315 545l-37 38l-37 -38h-136l121 116h105l120 -116h-136z" />
    <glyph glyph-name="otilde" unicode="&#xf5;" horiz-adv-x="545" 
d="M350 236q0 36 -7 58.5t-18 35t-24.5 17.5t-25.5 5q-15 0 -29 -5.5t-25 -19t-18 -35.5t-7 -56q0 -35 6.5 -57t18 -35.5t25.5 -18.5t29 -5q13 0 26 5t24 18t18 35.5t7 57.5zM520 236q0 -53 -18 -97.5t-50 -77t-77.5 -51t-99.5 -18.5t-100 18t-79.5 50.5t-52 77t-18.5 98.5
q0 53 18 98t51 77.5t79 51t102 18.5q50 0 94.5 -17t78 -48.5t53 -77t19.5 -102.5zM452 659q-2 -23 -9.5 -44t-21.5 -37t-35.5 -25.5t-51.5 -9.5q-16 0 -31.5 4t-30.5 9t-30.5 9t-31.5 4q-11 0 -14 -6.5t-3 -18.5h-91q2 23 9 44t20 37t32.5 25.5t46.5 9.5q17 0 34.5 -4
t34.5 -9t33.5 -9t31.5 -4q10 0 14.5 5.5t4.5 19.5h89z" />
    <glyph glyph-name="odieresis" unicode="&#xf6;" horiz-adv-x="545" 
d="M350 236q0 36 -7 58.5t-18 35t-24.5 17.5t-25.5 5q-15 0 -29 -5.5t-25 -19t-18 -35.5t-7 -56q0 -35 6.5 -57t18 -35.5t25.5 -18.5t29 -5q13 0 26 5t24 18t18 35.5t7 57.5zM520 236q0 -53 -18 -97.5t-50 -77t-77.5 -51t-99.5 -18.5t-100 18t-79.5 50.5t-52 77t-18.5 98.5
q0 53 18 98t51 77.5t79 51t102 18.5q50 0 94.5 -17t78 -48.5t53 -77t19.5 -102.5zM130 543v101l110 16v-104zM320 543v101l109 16v-104z" />
    <glyph glyph-name="divide" unicode="&#xf7;" horiz-adv-x="534" 
d="M346 140q0 -34 -24 -56.5t-57 -22.5t-56 23t-23 56t22.5 57.5t56.5 24.5t57.5 -24.5t23.5 -57.5zM43 281v109h448v-109h-448zM346 526q0 -34 -24 -56.5t-57 -22.5t-56 23t-23 56t22.5 57.5t56.5 24.5t57.5 -24.5t23.5 -57.5z" />
    <glyph glyph-name="oslash" unicode="&#xf8;" horiz-adv-x="545" 
d="M350 236q0 28 -5 51l-108 -157q17 -10 38 -10q13 0 26 5t24 18t18 35.5t7 57.5zM303 346q-14 6 -28 6q-15 0 -29 -5.5t-25 -19t-18 -35.5t-7 -56q0 -24 3 -42zM520 236q0 -53 -18 -97.5t-50 -77t-77.5 -51t-99.5 -18.5q-63 0 -116 25l-41 -60l-56 37l41 60
q-37 32 -57.5 78.5t-20.5 103.5q0 53 18 98t51 77.5t79 51t102 18.5q58 0 106 -21l39 57l57 -37l-39 -56q38 -32 60 -79.5t22 -108.5z" />
    <glyph glyph-name="ugrave" unicode="&#xf9;" horiz-adv-x="580" 
d="M390 -12q-4 7 -7.5 21.5t-5.5 23.5h-2q-19 -14 -46.5 -27.5t-77.5 -13.5q-40 0 -75.5 11t-62.5 33.5t-42.5 56.5t-15.5 80v271l168 24v-289q0 -28 14.5 -44.5t49.5 -16.5q20 0 36 5.5t29 14.5v306l167 24v-375q0 -17 3.5 -40.5t11.5 -37.5v-2zM230 545l-120 116h141
l74 -116h-95z" />
    <glyph glyph-name="uacute" unicode="&#xfa;" horiz-adv-x="580" 
d="M390 -12q-4 7 -7.5 21.5t-5.5 23.5h-2q-19 -14 -46.5 -27.5t-77.5 -13.5q-40 0 -75.5 11t-62.5 33.5t-42.5 56.5t-15.5 80v271l168 24v-289q0 -28 14.5 -44.5t49.5 -16.5q20 0 36 5.5t29 14.5v306l167 24v-375q0 -17 3.5 -40.5t11.5 -37.5v-2zM348 545h-100l76 116h148z
" />
    <glyph glyph-name="ucircumflex" unicode="&#xfb;" horiz-adv-x="580" 
d="M390 -12q-4 7 -7.5 21.5t-5.5 23.5h-2q-19 -14 -46.5 -27.5t-77.5 -13.5q-40 0 -75.5 11t-62.5 33.5t-42.5 56.5t-15.5 80v271l168 24v-289q0 -28 14.5 -44.5t49.5 -16.5q20 0 36 5.5t29 14.5v306l167 24v-375q0 -17 3.5 -40.5t11.5 -37.5v-2zM338 545l-37 38l-37 -38
h-136l121 116h105l120 -116h-136z" />
    <glyph glyph-name="udieresis" unicode="&#xfc;" horiz-adv-x="580" 
d="M390 -12q-4 7 -7.5 21.5t-5.5 23.5h-2q-19 -14 -46.5 -27.5t-77.5 -13.5q-40 0 -75.5 11t-62.5 33.5t-42.5 56.5t-15.5 80v271l168 24v-289q0 -28 14.5 -44.5t49.5 -16.5q20 0 36 5.5t29 14.5v306l167 24v-375q0 -17 3.5 -40.5t11.5 -37.5v-2zM140 543v101l110 16v-104z
M330 543v101l109 16v-104z" />
    <glyph glyph-name="yacute" unicode="&#xfd;" horiz-adv-x="513" 
d="M314 -17q-16 -41 -31 -72.5t-37 -55t-55.5 -37.5t-85.5 -18l-32 132l3 3q37 0 61 8t33 32l22 58l-186 432h180l76 -256h3l73 256h169zM320 545h-100l76 116h148z" />
    <glyph glyph-name="thorn" unicode="&#xfe;" horiz-adv-x="562" 
d="M367 237q0 32 -7 53t-17.5 33.5t-24.5 17.5t-27 5q-22 0 -36 -6.5t-26 -17.5v-192q28 -5 43 -5q18 0 35 6t30.5 19.5t21.5 35t8 51.5zM537 242q0 -62 -21 -108.5t-56 -78t-81 -47.5t-96 -16q-16 0 -32 3.5t-22 5.5v-177l-169 -24v916l168 24v-291h2q15 11 39.5 21
t56.5 10q39 0 77 -12.5t68 -40.5t48 -73.5t18 -111.5z" />
    <glyph glyph-name="ydieresis" unicode="&#xff;" horiz-adv-x="513" 
d="M314 -17q-16 -41 -31 -72.5t-37 -55t-55.5 -37.5t-85.5 -18l-32 132l3 3q37 0 61 8t33 32l22 58l-186 432h180l76 -256h3l73 256h169zM115 543v101l110 16v-104zM305 543v101l109 16v-104z" />
    <glyph glyph-name="OE" unicode="&#x152;" horiz-adv-x="1018" 
d="M513 523q-23 32 -54 50.5t-75 18.5q-33 0 -61.5 -15.5t-49.5 -45t-33 -71.5t-12 -96q0 -53 11.5 -96t32.5 -73t49.5 -46.5t62.5 -16.5q40 0 74 16.5t55 48.5v326zM961 0h-435v33q-19 -15 -53.5 -28t-88.5 -13q-85 0 -151 27.5t-111 77t-68.5 118t-23.5 149.5q0 82 25 150
t71 117.5t111.5 77t146.5 27.5q56 0 89.5 -14t52.5 -31v36h462l2 -2l-36 -148h-252v-123h240l2 -2l-36 -147h-206v-155h293l3 -2z" />
    <glyph glyph-name="oe" unicode="&#x153;" horiz-adv-x="821" 
d="M351 236q0 63 -22 89.5t-54 26.5q-33 0 -56 -27t-23 -89q0 -61 21.5 -89t56.5 -28q32 0 54.5 28t22.5 89zM640 290q0 40 -17 55t-38 15q-23 0 -44 -17.5t-21 -52.5h120zM796 255v-8t-0.5 -11t-1.5 -18t-3 -28h-275q0 -30 21 -53t59 -23q49 0 79.5 11.5t60.5 34.5l2 -1
l29 -119q-16 -10 -32 -18.5t-35.5 -15t-44.5 -10.5t-59 -4q-37 0 -62.5 5t-44 13t-31.5 19.5t-25 25.5q-16 -14 -31.5 -25.5t-33.5 -20t-40.5 -13.5t-52.5 -5q-55 0 -101 18.5t-79 51.5t-51.5 77.5t-18.5 97.5q0 54 18.5 99t52 77.5t80.5 50.5t103 18q33 0 57.5 -6.5
t43.5 -16.5t32 -21t22 -21q24 25 59.5 45t92.5 20q52 0 91.5 -17.5t65.5 -48t39.5 -71.5t13.5 -89z" />
    <glyph glyph-name="Scaron" unicode="&#x160;" horiz-adv-x="526" 
d="M501 207q0 -50 -21 -89.5t-57 -67.5t-85.5 -43t-106.5 -15q-37 0 -66 3t-53.5 9t-45.5 14t-41 18l36 155h4q26 -20 66.5 -35.5t96.5 -15.5q83 0 83 64q0 20 -13 37t-48 40l-74 47q-28 18 -51 37t-39.5 42t-25.5 52t-9 65q0 48 19.5 87t54 67t82 43.5t104.5 15.5
q54 0 101 -11.5t80 -26.5l-36 -151h-4q-17 14 -50 27t-83 13q-47 0 -62.5 -16t-15.5 -38q0 -10 2 -18t9.5 -16.5t21.5 -19.5t37 -26l72 -47q55 -35 86.5 -82.5t31.5 -117.5zM361 778h-105l-120 116h136l37 -40l37 40h136z" />
    <glyph glyph-name="scaron" unicode="&#x161;" horiz-adv-x="407" 
d="M387 140q0 -38 -16.5 -66t-44 -46t-63.5 -27t-76 -9q-54 0 -93.5 9.5t-73.5 24.5l32 130h4q23 -19 52 -33t56 -14q31 0 42 7.5t11 19.5q0 9 -5 17t-24 17l-57 28q-21 10 -38.5 22.5t-30 28t-19 35.5t-6.5 46q0 38 17 66.5t44.5 47t63.5 28t75 9.5q40 0 71.5 -7.5
t66.5 -21.5l-28 -121h-3q-14 12 -37 21t-49 9q-32 0 -42.5 -8.5t-10.5 -18.5q0 -8 5 -14.5t22 -15.5l57 -29q22 -11 40 -23t31 -28t20 -36t7 -48zM283 545h-105l-120 116h136l37 -40l37 40h136z" />
    <glyph glyph-name="Ydieresis" unicode="&#x178;" horiz-adv-x="679" 
d="M430 314v-314h-188v315l-236 412h221l75 -150q11 -23 23 -51t21 -53h2q9 26 20 53t23 51l75 150h207zM199 779v101l110 16v-104zM389 779v101l109 16v-104z" />
    <glyph glyph-name="Zcaron" unicode="&#x17d;" horiz-adv-x="643" 
d="M297 150h314l3 -3l-36 -147h-543l-11 24l325 553h-302l-2 2l34 148h527l13 -23zM394 778h-105l-120 116h136l37 -40l37 40h136z" />
    <glyph glyph-name="zcaron" unicode="&#x17e;" horiz-adv-x="461" 
d="M253 122h190l-26 -122h-395l-15 21l202 320h-176l25 124h381l13 -20zM306 545h-105l-120 116h136l37 -40l37 40h136z" />
    <glyph glyph-name="florin" unicode="&#x192;" horiz-adv-x="542" 
d="M492 561h-4q-11 13 -24.5 20.5t-30.5 7.5q-26 0 -39 -15.5t-16 -50.5l-8 -92h91l2 -2l-28 -129h-77l-28 -298q-9 -93 -52 -141.5t-137 -48.5q-42 0 -76 7t-62 26l30 140h4q12 -13 27 -20.5t29 -7.5q27 0 39.5 13.5t15.5 45.5l26 284h-77l-2 2l28 129h65l8 106
q3 42 13.5 78t32 63t56.5 42.5t87 15.5q84 0 137 -36z" />
    <glyph glyph-name="circumflex" unicode="&#x2c6;" horiz-adv-x="550" 
d="M312 545l-37 38l-37 -38h-136l121 116h105l120 -116h-136z" />
    <glyph glyph-name="tilde" unicode="&#x2dc;" horiz-adv-x="550" 
d="M448 659q-2 -23 -9.5 -44t-21.5 -37t-35.5 -25.5t-51.5 -9.5q-16 0 -31.5 4t-30.5 9t-30.5 9t-31.5 4q-11 0 -14 -6.5t-3 -18.5h-91q2 23 9 44t20 37t32.5 25.5t46.5 9.5q17 0 34.5 -4t34.5 -9t33.5 -9t31.5 -4q10 0 14.5 5.5t4.5 19.5h89z" />
    <glyph glyph-name="endash" unicode="&#x2013;" horiz-adv-x="695" 
d="M626 239h-578l21 116h578z" />
    <glyph glyph-name="emdash" unicode="&#x2014;" horiz-adv-x="975" 
d="M906 239h-858l21 116h858z" />
    <glyph glyph-name="quoteleft" unicode="&#x2018;" horiz-adv-x="263" 
d="M233 725q-11 -14 -19.5 -28.5t-14.5 -31t-9 -36.5t-3 -47q0 -17 4 -43t16 -66l-167 -21q-5 32 -7.5 52.5t-2.5 37.5q0 46 13 79.5t35 58.5t51 43.5t61 35.5z" />
    <glyph glyph-name="quoteright" unicode="&#x2019;" horiz-adv-x="263" 
d="M233 649q0 -46 -13 -79.5t-35 -58.5t-51 -43.5t-61 -35.5l-43 34q22 28 34 59t12 84q0 17 -4 43t-16 66l167 21q5 -32 7.5 -52.5t2.5 -37.5z" />
    <glyph glyph-name="quotesinglbase" unicode="&#x201a;" horiz-adv-x="263" 
d="M233 81q0 -46 -13 -79.5t-35 -58.5t-51 -43.5t-61 -35.5l-43 34q22 28 34 59t12 84q0 17 -4 43t-16 66l167 21q5 -32 7.5 -52.5t2.5 -37.5z" />
    <glyph glyph-name="quotedblleft" unicode="&#x201c;" horiz-adv-x="474" 
d="M233 725q-11 -14 -19.5 -28.5t-14.5 -31t-9 -36.5t-3 -47q0 -17 4 -43t16 -66l-167 -21q-5 32 -7.5 52.5t-2.5 37.5q0 46 13 79.5t35 58.5t51 43.5t61 35.5zM444 725q-11 -14 -19.5 -28.5t-14.5 -31t-9 -36.5t-3 -47q0 -17 4 -43t16 -66l-167 -21q-5 32 -7.5 52.5
t-2.5 37.5q0 46 13 79.5t35 58.5t51 43.5t61 35.5z" />
    <glyph glyph-name="quotedblright" unicode="&#x201d;" horiz-adv-x="474" 
d="M233 649q0 -46 -13 -79.5t-35 -58.5t-51 -43.5t-61 -35.5l-43 34q22 28 34 59t12 84q0 17 -4 43t-16 66l167 21q5 -32 7.5 -52.5t2.5 -37.5zM444 649q0 -46 -13 -79.5t-35 -58.5t-51 -43.5t-61 -35.5l-43 34q22 28 34 59t12 84q0 17 -4 43t-16 66l167 21q5 -32 7.5 -52.5
t2.5 -37.5z" />
    <glyph glyph-name="quotedblbase" unicode="&#x201e;" horiz-adv-x="474" 
d="M233 81q0 -46 -13 -79.5t-35 -58.5t-51 -43.5t-61 -35.5l-43 34q22 28 34 59t12 84q0 17 -4 43t-16 66l167 21q5 -32 7.5 -52.5t2.5 -37.5zM444 81q0 -46 -13 -79.5t-35 -58.5t-51 -43.5t-61 -35.5l-43 34q22 28 34 59t12 84q0 17 -4 43t-16 66l167 21q5 -32 7.5 -52.5
t2.5 -37.5z" />
    <glyph glyph-name="dagger" unicode="&#x2020;" horiz-adv-x="504" 
d="M334 439v-565h-168v565h-126v149h126v165h168v-165h130v-149h-130z" />
    <glyph glyph-name="daggerdbl" unicode="&#x2021;" horiz-adv-x="504" 
d="M334 38v-164h-168v164h-126v149h126v252h-126v149h126v165h168v-165h130v-149h-130v-252h130v-149h-130z" />
    <glyph glyph-name="bullet" unicode="&#x2022;" horiz-adv-x="473" 
d="M413 325q0 -36 -14 -68.5t-38 -56.5t-56 -38t-68 -14t-68.5 14t-56.5 38t-38 56.5t-14 68.5t14 68t38 56t56.5 38t68.5 14t68 -14t56 -38t38 -56t14 -68z" />
    <glyph glyph-name="ellipsis" unicode="&#x2026;" horiz-adv-x="760" 
d="M50 -11v161l166 20v-163zM297 -11v161l166 20v-163zM544 -11v161l166 20v-163z" />
    <glyph glyph-name="perthousand" unicode="&#x2030;" horiz-adv-x="1342" 
d="M263 508q0 31 -4 51t-10 31.5t-14 15.5t-16 4t-16 -4t-14 -15t-10 -31t-4 -52t4 -53t10 -33t13.5 -17t15.5 -5t16 4.5t14.5 16.5t10.5 33t4 54zM770 200q0 32 -3.5 52.5t-9.5 32t-14 16t-17 4.5t-17 -4.5t-14 -16t-9.5 -32t-3.5 -52.5q0 -62 13.5 -83.5t30.5 -21.5
q8 0 16 5t14 17t10 32.5t4 50.5zM1165 200q0 32 -3.5 52.5t-9.5 32t-14 16t-17 4.5t-17 -4.5t-14 -16t-9.5 -32t-3.5 -52.5q0 -62 13.5 -83.5t30.5 -21.5q8 0 16 5t14 17t10 32.5t4 50.5zM353 -2h-146l335 622h-159q10 -19 16.5 -51t6.5 -59q0 -52 -15 -92t-40.5 -67.5
t-59.5 -41.5t-72 -14q-35 0 -68 13t-59 40t-42 67.5t-16 95.5q0 57 17.5 97.5t45 67t62.5 39t71 12.5h485l20 -22zM913 205q0 -55 -16 -95.5t-42 -67t-59.5 -39.5t-68.5 -13t-68.5 13t-59.5 39.5t-42 67t-16 95.5q0 53 16 93.5t42 68t59.5 41.5t68.5 14t68.5 -14t59.5 -42
t42 -68.5t16 -92.5zM1308 205q0 -55 -16 -95.5t-42 -67t-59.5 -39.5t-68.5 -13t-68.5 13t-59.5 39.5t-42 67t-16 95.5q0 53 16 93.5t42 68t59.5 41.5t68.5 14t68.5 -14t59.5 -42t42 -68.5t16 -92.5z" />
    <glyph glyph-name="guilsinglleft" unicode="&#x2039;" horiz-adv-x="342" 
d="M201 230l110 -152l-117 -70l-164 206v35l164 201l118 -69z" />
    <glyph glyph-name="guilsinglright" unicode="&#x203a;" horiz-adv-x="342" 
d="M148 8l-117 70l110 152l-111 151l118 69l164 -201v-35z" />
    <glyph glyph-name="Euro" unicode="&#x20ac;" horiz-adv-x="700" 
d="M660 47q-23 -14 -45 -24.5t-46.5 -17t-52 -10t-61.5 -3.5q-127 0 -216.5 63.5t-122.5 185.5h-96l25 90h57q-1 6 -1.5 14.5t-0.5 17.5q0 11 0.5 20t1.5 15h-82l25 93h73q32 116 116.5 180.5t215.5 64.5q45 0 76.5 -4t55 -10.5t41 -15.5t35.5 -19l-36 -166h-4
q-30 28 -71.5 46t-92.5 18q-45 0 -81.5 -23t-53.5 -71h223l-25 -93h-220q-1 -7 -1.5 -15t-0.5 -17t1 -18t1 -17h245l-25 -90h-199q17 -51 54 -74.5t83 -23.5q48 0 92 18.5t74 46.5h3z" />
    <glyph glyph-name="trademark" unicode="&#x2122;" horiz-adv-x="579" 
d="M242 671h-66v-199h-68v199h-76l12 56h210zM462 472l-13 117h-2l-40 -82h-29l-40 80h-2l-14 -115h-69l37 255h35l67 -124h2l65 124h36l37 -255h-70z" />
    </font>
</defs>
</svg>
