<?xml version="1.0" encoding="utf-8"?>
<!-- Generator: Adobe Illustrator 21.1.0, SVG Export Plug-In . SVG Version: 6.00 Build 0)  -->
<svg version="1.0" id="Capa_1" xmlns="http://www.w3.org/2000/svg" xmlns:xlink="http://www.w3.org/1999/xlink" x="0px" y="0px"
	 viewBox="0 0 59 58" style="enable-background:new 0 0 59 58;" xml:space="preserve">
<style type="text/css">
	.st0{fill:#0098D7;}
	.st1{fill:#FFFFFF;}
</style>
<ellipse transform="matrix(0.6759 -0.737 0.737 0.6759 -11.8119 31.1399)" class="st0" cx="29.5" cy="29" rx="25" ry="32.5"/>
<g>
	<path class="st1" d="M2.7,20.7C3.1,16.5,5,12.4,8.2,9.4c3.1-3.1,7.4-4.9,11.8-5.3c4.4-0.5,8.9,0.3,12.9,2c4.1,1.7,7.8,4.2,10.8,7.3
		c3,3.1,5.5,6.9,7.1,11c0.4,1,0.7,2.1,1,3.1c0.2,1.1,0.5,2.1,0.6,3.2c0.4,2.2,0.3,4.4,0,6.6c-0.3,2.2-0.9,4.3-1.9,6.3
		c-0.2,0.5-0.5,1-0.8,1.4l-0.4,0.7L49,46.4c-0.3,0.4-0.6,0.9-1,1.3l-1.1,1.2c-3.1,3.1-7.3,4.9-11.5,5.2c4.1-1,7.8-3.1,10.4-6.2
		l0.9-1.2c0.3-0.4,0.5-0.8,0.8-1.3l0.4-0.6l0.3-0.7c0.2-0.5,0.4-0.9,0.6-1.4c0.7-1.9,1.2-3.8,1.3-5.8c0.3-4-0.4-8-2-11.7
		c-1.5-3.7-3.8-7.1-6.6-9.9c-2.8-2.9-6.1-5.2-9.8-6.8C28.2,7,24.2,6.2,20.2,6.4c-2,0.2-4,0.5-5.8,1.2c-0.2,0.1-0.5,0.2-0.7,0.2
		L13,8.1c-0.4,0.2-0.9,0.4-1.3,0.7c-0.8,0.5-1.7,1-2.5,1.7C6,12.9,3.7,16.6,2.7,20.7z"/>
</g>
</svg>
